<mxfile host="app.diagrams.net" agent="Mozilla/5.0 (Windows NT 10.0; Win64; x64; rv:142.0) Gecko/20100101 Firefox/142.0" version="28.2.0">
  <diagram name="Page-1" id="5k6mJEzndtglX96XtN2j">
    <mxGraphModel dx="834" dy="2069" grid="1" gridSize="10" guides="1" tooltips="1" connect="1" arrows="1" fold="1" page="1" pageScale="1" pageWidth="850" pageHeight="1100" math="0" shadow="0">
      <root>
        <mxCell id="0" />
        <mxCell id="1" parent="0" />
        <mxCell id="24Ofo_av3dnUQXe8KebZ-3" value="" style="edgeStyle=orthogonalEdgeStyle;rounded=0;orthogonalLoop=1;jettySize=auto;html=1;" edge="1" parent="1" source="24Ofo_av3dnUQXe8KebZ-1" target="24Ofo_av3dnUQXe8KebZ-2">
          <mxGeometry relative="1" as="geometry" />
        </mxCell>
        <mxCell id="24Ofo_av3dnUQXe8KebZ-5" value="" style="edgeStyle=orthogonalEdgeStyle;rounded=0;orthogonalLoop=1;jettySize=auto;html=1;" edge="1" parent="1" source="24Ofo_av3dnUQXe8KebZ-1" target="24Ofo_av3dnUQXe8KebZ-4">
          <mxGeometry relative="1" as="geometry" />
        </mxCell>
        <mxCell id="24Ofo_av3dnUQXe8KebZ-1" value="Hypercoagulable States" style="rounded=0;whiteSpace=wrap;html=1;" vertex="1" parent="1">
          <mxGeometry x="330" y="300" width="120" height="60" as="geometry" />
        </mxCell>
        <mxCell id="24Ofo_av3dnUQXe8KebZ-2" value="predisposition to thrombi like DVT/PEs or arterial thrombosis" style="rounded=0;whiteSpace=wrap;html=1;" vertex="1" parent="1">
          <mxGeometry x="160" y="300" width="120" height="60" as="geometry" />
        </mxCell>
        <mxCell id="24Ofo_av3dnUQXe8KebZ-7" style="edgeStyle=orthogonalEdgeStyle;rounded=0;orthogonalLoop=1;jettySize=auto;html=1;" edge="1" parent="1" source="24Ofo_av3dnUQXe8KebZ-4" target="24Ofo_av3dnUQXe8KebZ-6">
          <mxGeometry relative="1" as="geometry" />
        </mxCell>
        <mxCell id="24Ofo_av3dnUQXe8KebZ-9" value="" style="edgeStyle=orthogonalEdgeStyle;rounded=0;orthogonalLoop=1;jettySize=auto;html=1;" edge="1" parent="1" source="24Ofo_av3dnUQXe8KebZ-4" target="24Ofo_av3dnUQXe8KebZ-8">
          <mxGeometry relative="1" as="geometry" />
        </mxCell>
        <mxCell id="24Ofo_av3dnUQXe8KebZ-11" style="edgeStyle=orthogonalEdgeStyle;rounded=0;orthogonalLoop=1;jettySize=auto;html=1;" edge="1" parent="1" source="24Ofo_av3dnUQXe8KebZ-4" target="24Ofo_av3dnUQXe8KebZ-10">
          <mxGeometry relative="1" as="geometry" />
        </mxCell>
        <mxCell id="24Ofo_av3dnUQXe8KebZ-4" value="Virchow&#39;s Triad" style="rounded=0;whiteSpace=wrap;html=1;" vertex="1" parent="1">
          <mxGeometry x="330" y="420" width="120" height="60" as="geometry" />
        </mxCell>
        <mxCell id="24Ofo_av3dnUQXe8KebZ-6" value="Endothelial damage" style="rounded=0;whiteSpace=wrap;html=1;" vertex="1" parent="1">
          <mxGeometry x="60" y="550" width="120" height="60" as="geometry" />
        </mxCell>
        <mxCell id="24Ofo_av3dnUQXe8KebZ-8" value="Stasis of blood" style="rounded=0;whiteSpace=wrap;html=1;" vertex="1" parent="1">
          <mxGeometry x="330" y="670" width="120" height="60" as="geometry" />
        </mxCell>
        <mxCell id="24Ofo_av3dnUQXe8KebZ-10" value="Hypercoagulability" style="rounded=0;whiteSpace=wrap;html=1;" vertex="1" parent="1">
          <mxGeometry x="600" y="540" width="120" height="60" as="geometry" />
        </mxCell>
        <mxCell id="24Ofo_av3dnUQXe8KebZ-13" value="" style="edgeStyle=orthogonalEdgeStyle;rounded=0;orthogonalLoop=1;jettySize=auto;html=1;" edge="1" parent="1" source="24Ofo_av3dnUQXe8KebZ-12" target="24Ofo_av3dnUQXe8KebZ-1">
          <mxGeometry relative="1" as="geometry" />
        </mxCell>
        <mxCell id="24Ofo_av3dnUQXe8KebZ-12" value="Examples: Malignancy, Post-op, Pregnancy" style="rounded=0;whiteSpace=wrap;html=1;" vertex="1" parent="1">
          <mxGeometry x="540" y="300" width="120" height="60" as="geometry" />
        </mxCell>
        <mxCell id="24Ofo_av3dnUQXe8KebZ-15" value="" style="edgeStyle=orthogonalEdgeStyle;rounded=0;orthogonalLoop=1;jettySize=auto;html=1;" edge="1" parent="1" source="24Ofo_av3dnUQXe8KebZ-14" target="24Ofo_av3dnUQXe8KebZ-1">
          <mxGeometry relative="1" as="geometry" />
        </mxCell>
        <mxCell id="24Ofo_av3dnUQXe8KebZ-14" value="Elevated homocysteine (aa)" style="rounded=0;whiteSpace=wrap;html=1;" vertex="1" parent="1">
          <mxGeometry x="400" y="160" width="120" height="60" as="geometry" />
        </mxCell>
        <mxCell id="24Ofo_av3dnUQXe8KebZ-17" value="" style="edgeStyle=orthogonalEdgeStyle;rounded=0;orthogonalLoop=1;jettySize=auto;html=1;" edge="1" parent="1" source="24Ofo_av3dnUQXe8KebZ-16" target="24Ofo_av3dnUQXe8KebZ-14">
          <mxGeometry relative="1" as="geometry" />
        </mxCell>
        <mxCell id="24Ofo_av3dnUQXe8KebZ-16" value="deficient in Folate B12 or B6 deficiency" style="rounded=0;whiteSpace=wrap;html=1;" vertex="1" parent="1">
          <mxGeometry x="540" y="160" width="120" height="60" as="geometry" />
        </mxCell>
        <mxCell id="24Ofo_av3dnUQXe8KebZ-19" style="edgeStyle=orthogonalEdgeStyle;rounded=0;orthogonalLoop=1;jettySize=auto;html=1;" edge="1" parent="1" source="24Ofo_av3dnUQXe8KebZ-18" target="24Ofo_av3dnUQXe8KebZ-1">
          <mxGeometry relative="1" as="geometry" />
        </mxCell>
        <mxCell id="24Ofo_av3dnUQXe8KebZ-18" value="Nuphrotic syndrome" style="rounded=0;whiteSpace=wrap;html=1;" vertex="1" parent="1">
          <mxGeometry x="240" y="160" width="120" height="60" as="geometry" />
        </mxCell>
        <mxCell id="24Ofo_av3dnUQXe8KebZ-21" style="edgeStyle=orthogonalEdgeStyle;rounded=0;orthogonalLoop=1;jettySize=auto;html=1;" edge="1" parent="1" source="24Ofo_av3dnUQXe8KebZ-20" target="24Ofo_av3dnUQXe8KebZ-1">
          <mxGeometry relative="1" as="geometry" />
        </mxCell>
        <mxCell id="24Ofo_av3dnUQXe8KebZ-20" value="smoking" style="rounded=0;whiteSpace=wrap;html=1;" vertex="1" parent="1">
          <mxGeometry x="305" y="50" width="120" height="60" as="geometry" />
        </mxCell>
        <mxCell id="24Ofo_av3dnUQXe8KebZ-23" style="edgeStyle=orthogonalEdgeStyle;rounded=0;orthogonalLoop=1;jettySize=auto;html=1;" edge="1" parent="1" source="24Ofo_av3dnUQXe8KebZ-22" target="24Ofo_av3dnUQXe8KebZ-1">
          <mxGeometry relative="1" as="geometry">
            <Array as="points">
              <mxPoint x="390" y="390" />
            </Array>
          </mxGeometry>
        </mxCell>
        <mxCell id="24Ofo_av3dnUQXe8KebZ-22" value="Inherited Thrombophilia" style="rounded=0;whiteSpace=wrap;html=1;" vertex="1" parent="1">
          <mxGeometry x="760" y="380" width="120" height="60" as="geometry" />
        </mxCell>
        <mxCell id="24Ofo_av3dnUQXe8KebZ-25" style="edgeStyle=orthogonalEdgeStyle;rounded=0;orthogonalLoop=1;jettySize=auto;html=1;entryX=0.5;entryY=0;entryDx=0;entryDy=0;" edge="1" parent="1" source="24Ofo_av3dnUQXe8KebZ-24" target="24Ofo_av3dnUQXe8KebZ-22">
          <mxGeometry relative="1" as="geometry">
            <Array as="points">
              <mxPoint x="820" y="360" />
              <mxPoint x="820" y="360" />
            </Array>
          </mxGeometry>
        </mxCell>
        <mxCell id="24Ofo_av3dnUQXe8KebZ-24" value="Genetic tendencies to VTE" style="rounded=0;whiteSpace=wrap;html=1;" vertex="1" parent="1">
          <mxGeometry x="750" y="240" width="120" height="60" as="geometry" />
        </mxCell>
        <mxCell id="24Ofo_av3dnUQXe8KebZ-27" style="edgeStyle=orthogonalEdgeStyle;rounded=0;orthogonalLoop=1;jettySize=auto;html=1;" edge="1" parent="1" source="24Ofo_av3dnUQXe8KebZ-26" target="24Ofo_av3dnUQXe8KebZ-22">
          <mxGeometry relative="1" as="geometry" />
        </mxCell>
        <mxCell id="24Ofo_av3dnUQXe8KebZ-26" value="Factor V Leiden Mutation" style="rounded=0;whiteSpace=wrap;html=1;" vertex="1" parent="1">
          <mxGeometry x="760" y="730" width="120" height="60" as="geometry" />
        </mxCell>
        <mxCell id="24Ofo_av3dnUQXe8KebZ-29" value="" style="edgeStyle=orthogonalEdgeStyle;rounded=0;orthogonalLoop=1;jettySize=auto;html=1;" edge="1" parent="1" source="24Ofo_av3dnUQXe8KebZ-28" target="24Ofo_av3dnUQXe8KebZ-26">
          <mxGeometry relative="1" as="geometry" />
        </mxCell>
        <mxCell id="24Ofo_av3dnUQXe8KebZ-28" value="abnormal factor V" style="rounded=0;whiteSpace=wrap;html=1;" vertex="1" parent="1">
          <mxGeometry x="610" y="730" width="120" height="60" as="geometry" />
        </mxCell>
        <mxCell id="24Ofo_av3dnUQXe8KebZ-31" style="edgeStyle=orthogonalEdgeStyle;rounded=0;orthogonalLoop=1;jettySize=auto;html=1;entryX=0.5;entryY=1;entryDx=0;entryDy=0;" edge="1" parent="1" source="24Ofo_av3dnUQXe8KebZ-30" target="24Ofo_av3dnUQXe8KebZ-26">
          <mxGeometry relative="1" as="geometry" />
        </mxCell>
        <mxCell id="24Ofo_av3dnUQXe8KebZ-30" value="not inactivated by activated protien C" style="rounded=0;whiteSpace=wrap;html=1;" vertex="1" parent="1">
          <mxGeometry x="760" y="820" width="120" height="60" as="geometry" />
        </mxCell>
        <mxCell id="24Ofo_av3dnUQXe8KebZ-33" value="" style="edgeStyle=orthogonalEdgeStyle;rounded=0;orthogonalLoop=1;jettySize=auto;html=1;" edge="1" parent="1" source="24Ofo_av3dnUQXe8KebZ-32" target="24Ofo_av3dnUQXe8KebZ-26">
          <mxGeometry relative="1" as="geometry" />
        </mxCell>
        <mxCell id="24Ofo_av3dnUQXe8KebZ-32" value="point mutation in V gene" style="rounded=0;whiteSpace=wrap;html=1;" vertex="1" parent="1">
          <mxGeometry x="930" y="735" width="120" height="50" as="geometry" />
        </mxCell>
        <mxCell id="24Ofo_av3dnUQXe8KebZ-35" style="edgeStyle=orthogonalEdgeStyle;rounded=0;orthogonalLoop=1;jettySize=auto;html=1;entryX=1;entryY=0.5;entryDx=0;entryDy=0;" edge="1" parent="1" source="24Ofo_av3dnUQXe8KebZ-34" target="24Ofo_av3dnUQXe8KebZ-22">
          <mxGeometry relative="1" as="geometry" />
        </mxCell>
        <mxCell id="24Ofo_av3dnUQXe8KebZ-34" value="Prothrombin 20210 gene mutation" style="rounded=0;whiteSpace=wrap;html=1;" vertex="1" parent="1">
          <mxGeometry x="970" y="470" width="120" height="60" as="geometry" />
        </mxCell>
        <mxCell id="24Ofo_av3dnUQXe8KebZ-37" value="" style="edgeStyle=orthogonalEdgeStyle;rounded=0;orthogonalLoop=1;jettySize=auto;html=1;" edge="1" parent="1" source="24Ofo_av3dnUQXe8KebZ-36" target="24Ofo_av3dnUQXe8KebZ-34">
          <mxGeometry relative="1" as="geometry" />
        </mxCell>
        <mxCell id="24Ofo_av3dnUQXe8KebZ-36" value="make excess prothrombin" style="rounded=0;whiteSpace=wrap;html=1;" vertex="1" parent="1">
          <mxGeometry x="970" y="580" width="120" height="60" as="geometry" />
        </mxCell>
        <mxCell id="24Ofo_av3dnUQXe8KebZ-39" style="edgeStyle=orthogonalEdgeStyle;rounded=0;orthogonalLoop=1;jettySize=auto;html=1;entryX=1;entryY=0.5;entryDx=0;entryDy=0;" edge="1" parent="1" source="24Ofo_av3dnUQXe8KebZ-38" target="24Ofo_av3dnUQXe8KebZ-22">
          <mxGeometry relative="1" as="geometry" />
        </mxCell>
        <mxCell id="24Ofo_av3dnUQXe8KebZ-38" value="Antithrombin III Deficiency" style="rounded=0;whiteSpace=wrap;html=1;" vertex="1" parent="1">
          <mxGeometry x="970" y="280" width="120" height="60" as="geometry" />
        </mxCell>
        <mxCell id="24Ofo_av3dnUQXe8KebZ-41" value="" style="edgeStyle=orthogonalEdgeStyle;rounded=0;orthogonalLoop=1;jettySize=auto;html=1;" edge="1" parent="1" source="24Ofo_av3dnUQXe8KebZ-40" target="24Ofo_av3dnUQXe8KebZ-38">
          <mxGeometry relative="1" as="geometry" />
        </mxCell>
        <mxCell id="24Ofo_av3dnUQXe8KebZ-40" value="protien losses" style="rounded=0;whiteSpace=wrap;html=1;" vertex="1" parent="1">
          <mxGeometry x="970" y="140" width="120" height="60" as="geometry" />
        </mxCell>
        <mxCell id="24Ofo_av3dnUQXe8KebZ-43" value="" style="edgeStyle=orthogonalEdgeStyle;rounded=0;orthogonalLoop=1;jettySize=auto;html=1;" edge="1" parent="1" source="24Ofo_av3dnUQXe8KebZ-42" target="24Ofo_av3dnUQXe8KebZ-38">
          <mxGeometry relative="1" as="geometry" />
        </mxCell>
        <mxCell id="24Ofo_av3dnUQXe8KebZ-42" value="heparin resistance" style="rounded=0;whiteSpace=wrap;html=1;" vertex="1" parent="1">
          <mxGeometry x="1100" y="210" width="120" height="60" as="geometry" />
        </mxCell>
        <mxCell id="24Ofo_av3dnUQXe8KebZ-45" value="" style="edgeStyle=orthogonalEdgeStyle;rounded=0;orthogonalLoop=1;jettySize=auto;html=1;" edge="1" parent="1" source="24Ofo_av3dnUQXe8KebZ-44" target="24Ofo_av3dnUQXe8KebZ-38">
          <mxGeometry relative="1" as="geometry" />
        </mxCell>
        <mxCell id="24Ofo_av3dnUQXe8KebZ-44" value="deficiencies of antithrombin III" style="rounded=0;whiteSpace=wrap;html=1;" vertex="1" parent="1">
          <mxGeometry x="1155" y="280" width="120" height="60" as="geometry" />
        </mxCell>
        <mxCell id="24Ofo_av3dnUQXe8KebZ-47" style="edgeStyle=orthogonalEdgeStyle;rounded=0;orthogonalLoop=1;jettySize=auto;html=1;" edge="1" parent="1" source="24Ofo_av3dnUQXe8KebZ-46" target="24Ofo_av3dnUQXe8KebZ-22">
          <mxGeometry relative="1" as="geometry" />
        </mxCell>
        <mxCell id="24Ofo_av3dnUQXe8KebZ-53" style="edgeStyle=orthogonalEdgeStyle;rounded=0;orthogonalLoop=1;jettySize=auto;html=1;" edge="1" parent="1" source="24Ofo_av3dnUQXe8KebZ-46" target="24Ofo_av3dnUQXe8KebZ-52">
          <mxGeometry relative="1" as="geometry" />
        </mxCell>
        <mxCell id="24Ofo_av3dnUQXe8KebZ-46" value="Protien C or S Deficiency" style="rounded=0;whiteSpace=wrap;html=1;" vertex="1" parent="1">
          <mxGeometry x="1280" y="380" width="120" height="60" as="geometry" />
        </mxCell>
        <mxCell id="24Ofo_av3dnUQXe8KebZ-49" value="" style="edgeStyle=orthogonalEdgeStyle;rounded=0;orthogonalLoop=1;jettySize=auto;html=1;" edge="1" parent="1" source="24Ofo_av3dnUQXe8KebZ-48" target="24Ofo_av3dnUQXe8KebZ-46">
          <mxGeometry relative="1" as="geometry" />
        </mxCell>
        <mxCell id="24Ofo_av3dnUQXe8KebZ-48" value="warfarin skin necrosis" style="rounded=0;whiteSpace=wrap;html=1;" vertex="1" parent="1">
          <mxGeometry x="1500" y="380" width="120" height="60" as="geometry" />
        </mxCell>
        <mxCell id="24Ofo_av3dnUQXe8KebZ-51" value="" style="edgeStyle=orthogonalEdgeStyle;rounded=0;orthogonalLoop=1;jettySize=auto;html=1;" edge="1" parent="1" source="24Ofo_av3dnUQXe8KebZ-50" target="24Ofo_av3dnUQXe8KebZ-46">
          <mxGeometry relative="1" as="geometry" />
        </mxCell>
        <mxCell id="24Ofo_av3dnUQXe8KebZ-50" value="thrombosis of skin tissue" style="rounded=0;whiteSpace=wrap;html=1;" vertex="1" parent="1">
          <mxGeometry x="1280" y="500" width="120" height="60" as="geometry" />
        </mxCell>
        <mxCell id="24Ofo_av3dnUQXe8KebZ-52" value="" style="shape=image;verticalLabelPosition=bottom;labelBackgroundColor=default;verticalAlign=top;aspect=fixed;imageAspect=0;image=data:image/png,iVBORw0KGgoAAAANSUhEUgAAAnoAAAD6CAYAAAA2her9AAAgAElEQVR4XuxdBWBdRdo9SZrUUnd3d/dSd6XeUqQtFN/FYWGF3WXZ/YFdWBaXuntLKXV3d0/dvWmSNvqfb+bOe/e9vKRpKRWYWx5578rcmW/mzpx7PgtKTExMQopbKoeSXROUcjHOkaCgICQlJS9T9gfaAp1705vYEx4ICbj7NqX+fyAaYitpJWAlYCVgJWAlcB9LICh1oHdnai6Luizm/kDPvV/uZBZ/s/D/UkAvreVaAHJn+v9BLsUC0ge592zdrQSsBKwErATuCtAzYk6N0ZMFNSXgZ7vJSsBKwErASsBKwErASsBK4NYlcFeBnn/1UmLufmlG79bFZK+wErASsBKwErASsBKwEnjwJHDXgN6tqMAs0HvwBpKtsZWAlYCVgJWAlYCVwP0nAQv07r8+sTWyErASsBKwErASsBKwErgjEvjFgV5Kdnl3pPa2ECsBKwErASsBKwErASsBK4EUJWCBnh0cVgJWAlYCVgJWAlYCVgK/UglYoPcr7VjbLCsBKwErASsBKwErASsBC/TsGLASsBKwErASsBKwErAS+JVKwAK9X2nH2mZZCVgJWAlYCVgJWAlYCVigZ8eAlYCVgJWAlYCVgJWAlcCvVAK/OND7lcrNNstKwErASsBKwErASsBK4L6XgAV6930X2QpaCVgJWAlYCVgJWAlYCdyeBCzQuz252ausBKwErASsBKwErASsBO57CVigd993ka2glYCVgJWAlYCVgJWAlcDtScACvduTm73KSsBKwErASsBKwErASuC+l4AFevd9F9kKWglYCVgJWAlYCVgJWAncngQs0Ls9udmrrASsBKwErASsBKwErATuewlYoHffd5GtoJWAlYCVgJWAlYCVgJXA7UnAAr3bk5u9ykoASY4Mgn7DsjAyEBHcKTm4yzSivVNl/4a7yjbdSsBK4DcqAQv0fqMdb5v98yVggR48YNcCvZ8/nmwJVgJWAlYCv4QELND7JaRqy7QSsBKwErASsBKwErASuA8kYIHefdAJD1oVfFVrvko1768krcpznZzkHJRd7qvkeyB13b3XjaasMAzyq3Ci36k+7fM7N8n/4gdkAPj3ZyBlrfRxEv+lLLmAPe2RgPceviXocr3jxBy1Kt0HZPDYaloJWAncMwlYoHfPRP/g3jgtQE9jmeSLulmwPQt16uv+nRGSAxJurbDAEMKA1EBAz63KNYAlJSCSFrDnBsS3gg1TAtS31v7kZ/vWIQX5OLKWo0FO//t2sRuuBbiHGjZSiKt856uAaflICcH8n76H75YcjCa/h7vonysTe72VgJWAlcD9LgEL9O73Hrqf6pfkj8oCLbW6wnqR9+fu9MrsY9uWIpV3Z7maW1vcb35vf+BlAKzpLiWZVEBsWoCep6zbAMO31t6bDzJfAJWKfAzQcwN9H6BtxoWvG4ewgLIFqwGSFqAnrKH88wN6aZHVbQH/m8vInmElYCVgJXA/SsACvfuxV+5xnZII6IKC9BLqXeADgDbvGQFq7CzoTjlIBhL9V2gHF5qb3nTB9mN8bnK+PxBLXcS+8MEH5MgPh03yNN+NaZ1LpbmpwcU0AT1ThnPPWx0WSiSuSqTUg2kt1wtc/Vrmi9lcxXkPeOsSCOg54J9jRZg6Tds593C9S6gygr0CNjBPxqvpi7Qyn3caCKdVhvY8K4G7LYFAr+d3uw72fvdWAhbo3Vv533d310SMw64ISFPrsnch9aHk/Gvvs/4boOegjZsBvVuShLnRzZk3U+zPBnr+9XNQky/TFbgRyTBoWi4SjHZTsHtzof0ygEaPi2TdnWw8+DVAXeYP9HQpaj/Hm7Q5KAVGL7XWenBhGmX2y8jl5v1hz7ASuNsSMI+EedFL+6x5t2tq7/dLScACvV9Ksg9ouR52hPUPdoCe2WdYPm/TArAzHrWYVt4mJiUiUcoKDqZajn8TXbySYvv42wcEuugrfzbQc8jQPOZ6QUUOoExB7p6F3cx6qc52qRx0qi/lxfN7IusewnqmM8DMbzZVTQtYXOqIRF9i2CuRIL+r/nDkJd89v133cN/fIz8DsO7UoDT1kvbrewvRpoCpu73se90Mp66qrxNd5nfmBcIZK4k8xsJkrEihUp5i+FLbvFXxSiwN19zslDslKVuOlcC9loB5LN0zpAV797pX7u79LdC7u/K+7+8moM6obhXQk7VbVnNhW4zazNMKN9Bzfw8muJPFO1gt3PH8Jf9k+Q7laSEKDMivJCRycVcLuwEtnuXatRS7gaCqk0GTDoAwADAtrKF7hhPcEcBhRKkEHWSYjAmUa+Qwq5zAmjgQjD+SFNhLF6LrlsTfqk08z4MtXSDIy2w54MhvZKhWesCc62AgUJwSeHWAtOrTVEaeAfBuQB8I3Hurz751Ckx05CA/gymMYAG+RvUv40VOlPGjkKC0SiQm9fFWWsCy9qyQcQPEEQyKbEO4U8aLfDybkqkzBqQkAY4OmjbvDe4Fzb/ZnqIMCL7vn0hbQSuBnycBN9Azz4YFej9Ppg/a1XcV6MmC4maMHjRh/Rbqa4CetDVEMStkrgjGEBKigEzKmyzRwsjIMk5Whsu0fI/ivpikWK7xwQjl3lAuyun5XRZxYfuSEhJZNEtWwM9hgBQk5HdFF8nmAAGFNLxAT+GDEF1HtQkjpECGAEd92c03QWV+SMlD/wk48dZKlck6JRFoCMCJ4Q0ElATL/RISEMS2ZEwXijCpowA92RTA8WuG+q2Pq/874FrtUMe8TgaqbHO9A7g9bQsEbD0Axgul3H1qnkH33+RMbcpSk1sqhwn+F8f6xCQlICFdiNqXmJiA4Nh4pA8OQYZQ6VORl+4X9V2NJ2mxjBNHPmxfghx3ZBWTEIdr8XGqzDCWk5GIL5z9If+kWxLY38FBcj+98VVBvSyoM9xIL8UmGGHapS7lXrZHfk0SsEDv19Sbt9cWC/RuT26/yqtkoZRFUz4hBHYa1wiwCcalG9dx4txZxPAv0Rni426odTtTpkwIDQvBjRsxiI29rsBbuuAwhKXLgPQZMiGeZZ6+cgm79u1F5IWLyMl9FYqXRLWKlZAjPCvZQs30edR7AmY8DI/DCDnAwqgtdZQ2zZwFSSUM00igpYCei/Hx6Sg14xkwae7pACkBGz56VhdYlFs5pKMpL5ZfzsZE4cCxI9i3/wBOnjqJXNmyo06lKqhauiwyhYVqyk8BHAeU+DXNA1UcwOaBHsKeOkBYE11OAQYQqQsNQ+YCqm5QqJqqAbKCjS5c48/Wqd8KRHvQk4Ontfw950s91Lm6vAR+Tl2LxIqtm3Ds5AkEU/5Z0oWhWrnyqFelqi5MAK/qTyncAezyV/URYZpTnJx6IzYWe48exuaD+3AhNhpJcfHIExSG9rUbIH+RojIacT76Gq7yE3MtCtkyhyNPzpxIH5JeHVN9bzrIAcyKPUzGgjrj51f5FNtGWQn4SsAN9OzI/22Ojgcc6PlTNv5v6e7jd+sN3p8d0gyX9+6GybhbAy4QreXPanjP8VHdyvLJQ9FBiTh+9QqmL5yHAxEHydaEID0Zl9B0QWT9yN6FCOsXT5u1BMTG829MHNIlhqByhSqoXq8uTl29hKmzZmLLuvXIkykcHZo2R8+OnVEkV17FhLkZNaOKU+pcgk0fVs7Yp3mAjrbl8jBcHpbIjWr85KzKMLZjgt4c3ara5+o7NTs6YEqKY1U89+HvG/yciYnG9oj9WLR8GRYsWoCcBHpDevVF9xatkSkdGS0BelKOU035KWWoGHAGXKnqmTFhAKwDiBwAmyRsobrWAC0HOLmHdLJudh10VMjJRpxnBXC+GLDn9nj1XOTI2eBkwYCszp5zZzBu7o9YvWE9rl26rIB8v85d8EinLvpKZcgoOl2DdikF+c3xw8Gj+sI4Ytzg2Nl5JAKz167Aos3rcPbEKdQrXApvP/YUSleqpM5bvGkdZs+bi4N79qB+jVro36sXihbUIBBkFD2bG7j6NFzLOEm0Cz7P5d16Hu19rATurgRutkre3drYu90LCVig94tI3awyqYHLQADsl6hMSkAvNVCs6yFgRNb1SP5/5+kT+OunH2PHrh2oUbUKKpUvi/NnT+PAgT2IvHoZOXLnRMmyZZEhYybs27EHh3bsQ5P6jfHsS79DaLZs+G7iKCyYPQfZyPa1a9QUAx/uieI58yGJLKBWuTksUXyCWtBDCJSCqAbVulMXODasloAeAQ+GAVQIygEjBjslY3KcAx7AKPd1020ECoYJMkyUoFjFGvJUAXsO0LnO35H8efLaJYyZOgnjp05G3ly58FSvfujVrA1yZMjgBXrObeKkZfwuNoohqt6u/jb3lb8pghT/8eEAQh8AbOroAvPGPs4RsyrfA/I8wtI7HbbOUwd1jZGRc526hGprAv0ofv1h63pM+3E29u7ciexk9J7o0QuDO3fTlRXsFRtHQzsCX7FfZP8qoCe/lQ2fWHDSmlPdIwSXadG5YOdGfD5pDHZs3oI25arhL48/g9IVK6ri5mxei2+GfY+NK1ehTZOH8OqLL6JcybL6RvLSYDYPi+jZ4XzRtqMaeKb2fPrL2v62EnhwJeBHPzy4DbE1vy0J3HWgp9eIuwVybksmHmcE16qRSkF6sUhuvO5dRMzabQrRv++lDAItcN76eGy2hIwh4xJJtm4zmZbX3/srLhDUvfjC82jSuCEWL1mAWT/MxMWLZ1GuXDm0atUaVSpWxoaV6zDyy29RMG8BvPW3v6Bw3hL4ZsEETB47HlmDQtG+0UN4rFcfFM+Sm5IwTJpm2uIICkQ2YWFhXIf5Cbj5I6HUkNFtTnFymWGiAoiLCmza6AEXkm5g5JSJGDFpPHLlzoUh3XujZ9NWyBtGoOdsMjYEzCQqFknbuKVu76gvFBW6bKK6NWPIjc/crTYYLm3QxRXkxFFXi+fwzTZlU8maKBcbA/540YLLJzBm4kRsXL0G2QnkB5HVfLxdxxS6TsCp773c7SAkxJLju/Hv0d9jHcvrVKUu/tBvMMpV0kDvUEIktu3ehaO796FU/kKoV6MmcoVnV0+UDyOb4vPlMHpKJZ2sKjcTgT1uJWAlYCXwwEngrgO92wd5LtsqY6MV8I38Zgu7P8Ayy4x74ndBM/XVGI/rBUofFTZCFgq3Ebg+nigG++o2KQMqvdbJte4xc/PF1pcGcl/r3y6z9KdlTPpe6zbOF7ARQ5VYxJlTGD19KtJnzYx+jwxAwaBMmLZ1GcZOGIMTJ4+hTvUa6EF1XdPS9XAtkWreiVNxkaq8Lv37IHu2ghi2ZDImjhmHzFTptm/cDD07dUaB3Llx8cwZRZSJrVV4WGZ+D0H09atkCSNxgwxNAkFOSIb0yJI1G50cwnDteiQir1xBKPdnyZwJWTJloZOHlABciY7C5SuXER0lPFMS8uTJTbu5nE6fadlepk1Z5LWrVDUnKCeQnDnzIDw0FBevx+D8pfNIR5VilsyZkTl9RmoXQxBDx4BLUZGI4vHwDBmRn+Wl5/0E6NEiEZeSrmPkjCn4dvIEZM+VG09064UOdRohG701Yniv4HTBCFf1zIzQILKUMj5U7TxcIi5cvojz584re8jM4ZmRNWtWZA3PQjAYRJ4qCZHR0bgSdU3VIYhMZwaWl5XyEFldjrqEK1SrZ0yfHvlz5kVW7hNe63x8FK5Q/uk4wLLy3vIJc8FLqcMNx1EmOuo6ZRpJuUWTaAtBzhw5kIufMAXpdD2lzDiybVIfYXov0t5S7OWiM6bDukN7sXzVKhzeuQ85g9NjUO9+6NOyrXJUuXLhvHao5kfAe5bwbKodl1nnOLJ5QaHBCKP8s6Vnm8LCeQ9g+Yk9+Hj8CKxatgKdqzfAW/0J9EqXwYkbV3Dk2gUkkhmUcZQrQzjyZZH+CMbZaxdxjfKW+6TjfXLkyInMPHI2+iIuXbqEDJSPkivvYdplbBjdANE8ge4n8V6+kqXl6bXnWAlYCVgJpCaBuwr0br8rFL3iLI9SitGjuXbJbjU7u4Cee4b2wVDuA26gp7/rOF7C0omBtyxt4tWnN3fiJfPdxP2SowlU+RmmwO3t6G27uYf3PvpYWkCeu31uHsTNZpiyXEAv0ErluV3gZcw4ZihpUx434mJx+tw5JKYPRU7a1snCP3PDEoyZNA6nCQLrksnr3aYdWlavRzgRigtXLuAKbdjy5y+GUzx71KLJmD55GsITQtCCKt1SJUrgEgHO7l07cf3aNdSqWhWtmj6EigVLIzohGuvXrsfKTRsUwMxMwFalajXkz5cPJ44ex9aNGxjKIx61a9RA+7btkC9dFhy6cg4L5y/A6VOn6BhyHdf5yZU3N+rRRrBS+Ypk2LKqOq/fvR1rN2/E7v37qFGMQ6MGDVGVZW/fsxvr6VRwg04mBXLnQWuqBcuVLYPt+/Zg/sqlOHriGLIT6LWo0wD1qpNFypELWZABJ6m8/H76ZHw5aQKy5smD/p0fRrncBXCE6usD+/cSmAWhKtWOLRo0QrkCxVRPC5ihqwGBYjy2bt6EDatW49qVq8qbN4gqzUKFCqF1s+Yom7+IOv84Zbly/TqsWLcO19iufAXyo2bdOsiTLy+2bNmMDevXI1PGDGjWtCmqVKmiQOwGtnHLxk1IvHEDRfLmQ9O69VCncjVkINiU5yeOgDCKddh57iBWLl2F08dOI+FGnHKoSZ8hDM2bNKHqvYE6XyIgxvOqKMTSIzYK2zZuwYZ1G3CRADg0TzYcjbyA8+cvIP7CNeQPyYyBPfuiY7OW2HRgF+bPn4ez58+p4V29ejV06NAJMdExZIOXYMuubbhy7QqKFiqM5rXqo0nNesgQHIolx3bjU6r615LRa1GhJt4Z8hzKFiuB5fu3YMbyeRyHZ5EtKCPqlK+Kdq3aIG+mbFi0dQ2Wr1yJU2fP0HwgIx5q3gxlyTIvX7EC69atRWaC98K8T7P6jVCrVCUFecVWUsd51M+AqI99gF4KU4n3WbbfrASsBKwE7n8J/GaAngcWBUo34MJMhnHU4E1Amw4bomk8t4LMMHm6k7WZlPyPP1whLoxRl1ozHDVZsCzoxi5N7RZAKScEZuEMv+hl/wKxkoFQreNoEGgcekCxGzB6T1RtUd6fjuOAsmvSx6P5EUZrzsblGDlxLI6fPI46ZcphUKduaMrFWqk8xQYtXXqeF4RDtGYbO28mFsyZh8SLUahQrBQKFymMqIQb2LJ9Cw4fOICyRYqhW4eO6NG5K/KGZsOeYwcw8YdZNL5fjwvXo1GwYCGULVmajh7XsWzxItoHnkK/Pr3w7LPPIyaG6tORo7Bz63YCxmqoWL489tJzc+2WjciaIxs6tGqHDs1bI3dIJgKbE5i/ejlmL5yPwwcjCCBKoiEBzXUCxy37ditAl5FMXm2CwzIlSyI6KQ67jkVor+Gz51CfDia9yVw24jW5yJ8dT7yEryaMx7TlSxDLMVOuUAmUypkfGQj4d+/djYgThwkKs6NdA9oldnoYhfLmV6DpGBW/i1Ytx8xJU5AuJhYtCHIzZA3nvpU4dvwY6largcf69EUVOiNcJkRdtHYlZi+Yj83btyOYYLBStaooVbokzhLYbN26BRfPn1f1LUNwGp4tq1KxHz54ECcOHULS9Rvo3q49BnTviWK5CgikwVWO6S1nD+K7MWNwcNcB1K1cC5XLV2I7d2HZqqXInzcvurZuh25tOiAPWbCrvOpIwln8ROC2ZM58pGMjGjRuhCxF8mHxljU4evgI0kXGo0R4HnRq1R7d2nfCwcizGD1+LH6a9xMiIyPRvl07PPPkUOTKnAuLVy/BpJnTsHnHFpQsWgxPdOmFXm06EliGYsXxPfhkwggCvbWoX6oi/jT0d6hcsgx2Xj2GUT9OZnnzEHXiIro2b4cnn3gSpfIVxqbTBzGBdpLLly+nGWACqlA+5ej9e44g82BEBMfoSb6EJaAjx8GjXXuhfL5C2iSRnwSJ8ajsBb3viv6vXTaTxv2/mNkaWglYCQSWwAME9AxrJVOwY0jteuN2QRTPV41V/NWjGpC587n6ADXzdq/AmCkqbWpQX9NDw0B6Vc6BIZWx7yOb4AF/viDS1MIDJp0dvsAvEDMXwODcpxJumSYfIKZExXOY5pAKEUZKHBF+2rQCIyaOw+Ejh1CvbHkM7doDjWrWdwE9YY1CsC/pAiYvmIOl8xcj5vgFVC5RBs1atkCeYgWxeuNaLKIXZWJUDBrXroOBffqheuHyBJPxGDZtAn5cuRzHLp5H9qzZ0bJxU5QqWhzr1q5iSJPdaNW6JWrUqk2v1xWYTMBUhDaBrz33AlpWqoXtF47ii9HfYeW6NShTqDj6d+hOlqmdGjlTd67Bt+NH49jBQyicLTeaN2yCGvXr4PD505hH79lTBEe5aWNXic4ldZo1RmLWjFi6eiVWLliIrFQZdm3dBn3pcFA8YwEcjj2DL8aNxcJtm3EtLgHFyea1qFYH9avWwAHxIF0yD9t3bEMJOp4803sgOhN0imJ56uZlGE0W8OiefejXugOee2oow4RkwqiF0zF63DhcOn0G/QicB/bth2LZ82H31bOYs2ghZtDp4RJV15XoENO8RTPkogPItq2bsXjhAsSRvStevBiq1KiGMhXLKxD444wZ2L9jJ1o2aoxH6ABTq3wVqjSzYEfMUXxFNnYSj1cqVg4vD3keLSrWwvrTB/C/777Easq4SrHSeOHRIWhepykukM2bvOZHqurH4crR0+jVuiMGDx5CtWt2TNg8G0uXLMPZPYdQImNutKXatnfn7sqGccq6+Rg+YjjOnTmNFg81w9ODn0LVTPmw5nQEvh49jKztOpQsXAQD23RBn1YdyAWnw/Jju/Cf8cOwYcNG1C9RCW8+/jRqEoSe55iYvm0eJk6ejBPbD6BDw5YY0GcAKhUtTTAMTFoyHVOnTEUUGeKCBQuiRs2aqFS5Es5SfTx15gzs3bcPDarWIqjsjdZ8IVGPN8e19ob2BO1J1SDELiRWAlYCVgIPmgQeEKDnL9bU1JxuNaaBKv6I0K3W5HenuETGAZMJ37B5av53GZ2ntXM1IKO618kJpVW/Xls+zRpqxkyzChp9uVm+FHC5L8iVqjvMnK/toxv0peRdGAgY+t5VTPZ1RDcBejxfPrSpEjZPeVuuW4KRBAuKgSLQe7LLw3ioVkNl02iyIVxjcNt9uKiA3vwffkLQ+Wh63TZD/4EDUCw8FxYe2Yrh332L44xFV6dKNQwgsKlfspq6x5i5UzGFIPAM7e5qVa2OIf0Gomqewjhw5TSOk5nLnCMrdu7fT8A0GadOnUFnhjV5onsvVMlVCGcJCsYvm4Vh40Yh5txl9G3REUMfG0w2KTumH96Mrwn0Tu6LQP0ylfFYj76oU7YStsacwdiJ47GJwDEH692xdWv06f0Yey8dxqybhXHDRyD67AW0bdoMgx59DJWyF8eh+HP4huBnxvKlCKIdWM+WHdDjoTaoki0vHQeiMHb2VEycPgUZ44MwoH1X9OjeA5HpkvDxuOGY+dOPKEdm6aV+j6EtwZT0yIITuzFh2hSsp31a6TwF8Gjf/ujQpDVBTiymz52NCZMmkbGKR6fOnQjcBiibvAXbl2P0iBE4fuQIwU0NPPHUENTKVRbbbxzDV59/RqeG1ShXqjR6demKtg1a0HKN9pVb5uGLsSNxjrZ2PZt3RP/23VE5V2EcpeXemIVTMIZtCo2OQ982ndCjR09EhiXhv+O/x49z5qAi5ftCr4GUQ1vKJhTzz23FXKrNNy9aiYJUoz/cpTt6duimgN4sqduoEThz4gQeIth8dtBTqJghD7ZdOoWvKYOl61ehGFWqj7TuhN4PCRAPwdJjO/DBuO+wadNmNClZFW8+8hRq0DSAVoz4Ye9iTJwyGUc370H7es0I9PqjQpEyuMJ7/bhxHqZMmIjL5y+ifv167Ls+qMA+2nLpIL4aMQyr1q4hqC2LIV37oXO9Jvq5l+g+Qnw7c4CaGQJML7dvW5zWWcOeZyVgJWAl8MtI4AECen6zr4uZ0upVzd5pVk1AlAmemjrI8xTjAU3JBc04rrQrikVoKL1ABe8IHlQYTUAhDeYJEONptJ81G830tV/ALW4a+OmqBwJgXm7Nrd41C5K/LaABf97ivLIzTiBpqaBhPRUAVYwe28nYZ8bj9KdNyzCK3qZHjx8lUCrPkBoPo1l1Aj05WcJo8Nw4Aqa9uIaxi2dizrRZyByZgM4PtUL3Hg+jGL1uV53Zg2+//oqs0y56UNbgwk2gV6Ia4QYwct4UTJg1C5FkqprWqY8BnbqjSoGihDxgiXFkFW9g+LTxGMnFPX0G2oZ164GHm7VGaTJgwkBN37AI3xLoXTxyEj0bt8bTjw1C7hz5MfvIJoKMkTix8wA61mmMZ/o/TiYuP9ZcOoIps6Zj09JlyB+WEd07dCCg6sWSQjGVwGj8qDE4TxvBFgQsQ54YRDBXDBHxFzCC4VUmEoRlYADfoWTt2tduhGIZsuES6zl17Vx89v03SIyMwYCO3dCOdownoq/imxmTsIZq6aoFi+H5Hv3QtlYTpdKdf2o3ZjAu3cblq8geBuFhxhsc0PMxyjwB436YjMmTJyEzHSt69uyBHi26KIZy3sYFGDeawPUYAXedOhg89ElUy14KOwj0vv3+W6xduxZ5aT/YtX0HxvjrQqnFks0bhenz5tC2LzO6NmqJ7g+1RaX8JXGach23ehaGU24J569yf2t0puPM5dAEfDV9PJYvW4bqeYvhFQLg1vVbEcwFY+7pzZi7cCG2LFmNQumzo3uXblT5dlYq/pmbFmL0yOE4T0aveaMm7IMnUTlLAey5egZfjhmOBWuXobgweq06oXuTlggLyYgVp3fjAzJ66xl3sSmB3h8GPo2q5SoQvCdg2s4FmEQV7ekdB9Gpfgv06dkb5YqUJaOXhPmbF7CPRuPquQvo3LEjHuk7ELkRjlUntmMUPaOXrV2N8oVK4tkej7HfG+lHgEJPkmfWCVFowv35Px8W6AVyXNgAACAASURBVKVlxrDnWAlYCdyPEngAgJ6BYpr98mwe7OJm8HxF7Kt61ceMLZxxmFCAzRBsnOwZs5UekJdx/PgpnDhxGseOnuDfkzRSp/k6gYsGVWToRLUr64NCdkEqLIh4FRaj6qwwjemz0k4qIw3kc+XKiXz5ctObMuXu9w/zIMBR7uXU2HWh5IY17J8v8+Btl26MtEsBX1U72eS70IfueqTGjPqLWp8bxz/a4xSYTWeM4ePHKBu9erRpG0Sg17IGVbcCvEUfRg9R+lViJ/mW0fOnYd7MOQR68ejQoBm69+qB0jkLYtXZPfjmqy9xYPdu5bnbl2FXmpSoocofPm8yxs6YjuvslJb1GmNgh66oSAcFAXpX+P+rhCzfTx5Lh5ApCGeWjf5UdXZv3Bzl8hQi+xOHqVuXEkyMwOmDR9CbrNgLTzzFoMb58OOR9Up1e4qx/jrXJMs04HHazhXCigsHMfmHGdhCoFcqPAd6deyEFm0FsIRh9vaFGD+WjicRh9GUDhxPPjEY1Qn0DiZewLDx4zB53o/KM3hor0fQtmYDFMmckzxmImZsWoRPvvkC1y9exeO0DWvZvCV2nDqCET/NxN6IA6hRuASeo31au5pNFbide2YnZtF+cMvK1Qi/kUjbug4Eeo8TUCVi9KxxmDJxMnJnz47+ffsSoLVT4HDu+rkYN4btOX4C9evWxZNDnyIILYltMYfx7fBhWL1+rQr90plAryvZu8j4a/h6zEj8tGQRy8qJrg1bEGS1Qrn8pQmm4jBm/Q/4ZvRwJJy9rNjJTgRN50Ji8eWM8VjD+HX16DDzZu9BaFa7OZndIMw5vg7zF9O5YtkaFEyfDd1oZ9m1rWb0Zmyah1EjRyjv6hYC9B4djCpZC2Nv5GkyisMxl/aARalmFaDXq2lrpA8Nx/LTO/EvBfQ24KESVfD2o88w20ZFnOGgGr91DiaT8by4+yg61m+GXmRIyxWvqGwIf9pMtS5tNaPOX0JngvR+/fohB/+tOboZIwnGl61bjYpk/54n0OvkAnoK5JlHwfXC5/Oo3OchoVKeXewRKwErgd+6BB5woOcFNaYjDeBJMX+nw8gJ+vGoaRywFxeXhM2btmLECKrvNm5DNFVXiTSqz0SPvYwMgEufWt5GwnIw+TqN9wU4pQthBleG6Yi7kYAoehMK4JOwHenpoZmLIUOKFS+OUjSSL0jwl4fhRLIRAIZnYeCH9OmUR28QXf9y58qBLNnSNhTFoFzQmq9Dhzeci4rZJrk/CfJEBe0vB8N+6rulDeh5jNR5RSwBrmH0Zq9fgu/JjB07cRyNmPJqMFW3LavWdVS3LJsgOJqr6F7ya+MXzsbcGbOR8UocOjUmsOj5MIrnINDjov7tN1/jADMd1GVMtL69eqNhsRoK9IylzdWY6dNwlWE/2hDoDe7SA2XyFiYUSSCDc0OxesPJKI4Xb14Cvd6M3fZw05YoQ+P8SwRGU3csw5es39E9+9GdrNWLg4ciT7YCmH9kHUYQoB7bugcdazbE8wMHoyCvWXLxABnEaWSmlqNSjrzo3bELmrRsw/uEYs62JRg/Zizt946gWcNGGPzEEwR6xXEg4TzZr7GYShYuG0OSPN2HKk2qrwtkyM5WxylW8eNvPsf181cwhCritrTv2378MIb9OB37Dh1EjaJkmLr1RpuqTRQDNv/MdvywYB42k9HLRnWvhKHp020g65CAMT+Mx+TxE5GXQG9g/wEEaO2UveRPm+ZizKhROEm2sUG9enjq6adQLWspbImKwHdUm66gyjIPnSt6dO2GTrzmStIVDBs7Gj/SuSM75dadAEuYuzJ5SxFM3cDoNTPx7egRSGSde3B/ly5dcCFdHD6bPAYrVixHwyLl8Va/J/FQjYcIsBLw0+G1mL90KbatWI+CGXKgG1XE3Vt3VeNk5tYFGCk2evSGbkEby6cfG4Iq4YWw88oJfDVuBIHeYhQtUJBx97pSdduWlgGZsfTUDvxr7PdYv34jmpepjncI9KqWKY8TwtLuXKSA3untB9n+lujdozdKFdaq27lb5mPSCKrqL1xCR4La3n16I3dwLqw/uV0BvYWrVqACnVte7PUEOtcW5lk9zprN8zx+og3QL0myWSYvbfOSPctKwErg/pXAAwD0jPAcRs/BJhqwGDZPB3A19nRJkgQ9BQxDLaAKii8ZmBTUUWhPf4+IOI6XX3oVP85egLp1G6NWzTrIyFyuEhYiNxkRrb8UvS0/BFRxVNcK0AsNTc+QHvE0fj+Pg/TklFATkZFRBIqMf3b5Ks5fuIBrkYQlPD89WT9h+QTsJTKBuwC23HmE9cuDEiVLoDEDEdeoUTLNGMxIR9sFOiJxsxKend7FSxN7TgKoNGI9MTcU1iOWAhMQJov4D8LoTRjLPKdUGZLRe5LOGK2qygIqaFoCHzNWGwPo7iPsGr/4B6puf0CGq/Ho2KQFHqbqtmz2Alh9cT8+++xT7NqxA/XpjNGfdlWNitVUTNWYxdMwikAvMiYGbes3oVfvwwroSR9EEuJES9gWqkBHE/wEMyxHV6pFe9ARoDJZMmF4Jm2aj89HDcMZAqCeLdvjmceHMAVbHiyIWIOR40bjOOO+daBt3NOPDkKBXAWx9LIGepsWLUOZ8Jzo06krGb2OBFnpMGfrIkwaN4FA7zAeqt8QgwcNRiUyevtvnFY2ddMJ9MLC0uNJqgs7E8gWoOfwKfJdk5f9hK9HfIfgqFgM7TmArFpH7D9/Cl/R0WQ9nSjK0kbvSdoVdqzXRg3EeWd3qHRxW8noFWBcwZ5MJ9a9Y3+2Jx5jfpqIyePGIy/fCh4ho9epcUclp3nbFiigd/zIMXoQ18PQp+jwEF4C28noDSfTt5xALyedNroRNHZv3IlwiSrvqWMwjfcJY/aRLlSl92jbCRXylCKjF4sxK6djGBk/BulDbzqKdOnSmQzpDWarGIUlDItSNV9x/L7PE+jYsD33BmN6xBLMmTcfezZsR5Es9Nalurlnq66KeZ29YzG+H/YdjtDBpVmTpnhx6HOolqkw1p3bT1Z1FJZvWoOSzGM7sDWvadKGkqbjy+kd+GjCSKyh122jYpXwp0HPowYZPQb3wfQ9C6m6nYJTdMboRKDXk57EZQj0rvFe83cuxtjvhiHyzHmyil3Ieg5AdjqerCXQG8NYhwtXrkDZgsXxfK/H0al2Y5Wow2OjJw+SY/Zh2HD1bAmDbx4y+9dKwErASuABlMCDBfT0vKtm5CABWw7QU7ZyymnCfLw9cfokQ1PQk3LDhnVkNXIye8NDBFKVIdm1lMpUTnXAzmIak7/33j/JyiXi7Xf+zOwPddUdGM9V52A3oMjRgMo+yZDlkGxM26WrdJkugJcuRSrAFxFxCPv3HcCRo0dxjuE54qmGFLYgPQ33ZUGJZXy6S5cu8prLBAqhymuyaLGiDLKbWamIVTYCMnTZs2dDRcZjq1ylEgrkzwHG873p5gF/Tt6uwM4erqT1DrOpROIRjGYLxfNWgN4NHjCq20mr6VHJgMmnme+0RolSGNSxKx5u0FoLQRhPosNEBjneQf5t5LxpmDvzR2SIjGOoETpjPNKfYCovVhHo/ffTT7B1yyZUZwy4R7k4t6vYVBEt384ZhxEzpiGa8e7aCaNHz9lKhQmCuUnwXqnHPNoJjp48FXv2H0SF0mXxWM8+6EJG7STP+GzSd1TFTkeerDkwsEtPdKOnKMMNY86OhfieqsmzB4/RoP8hPEmgV4x2Z0uu7sNYMj9bl65A0dAs6MkQIZ0IwkR1O239HEwZP0GpbhvXqYunh9ITNFcZ7Es8S9A4FnMWL1D91Y2hRXq360JGsBi2RdFGbuJoesr+gOLZ8+DlAUPQqVl7nIi7jC+mUg374ywEX4/FQHqoDnlkEJWM4Ri/fznt6r7Hyb0EMmxzf3r3VipdExEEy9MIJqexDllDwtCfbFXX1j2UnOZsJqNHG70TR4+hPuv2DIFenezlFND7hqrbpatXIS9jEHYR1W2L9shJ+DN/xyLKYCR27dyFhtVqY+jjVMWWrsP7XMb/xn+LKQSvBei48mz/x+gp3AlHEy/iPyO/wWw6kOQPo8MFVbpibxiaJysdURZg2YpVuHDkDErRoaN9q7Z07uhNqfFlYN8KfPH1F9h7YB9qkrEdSOeJcvS63sT4gZOpvt4ZsRdli5fAI7zHgKZicxiGeSc2K6C3csVq1MlXCn9/6mU0Yl5bsXkcs30WpjBw99ldR9GGavfetNGrSs9c8bqdtelHjCPQu0qg152s4uOPPsG2ZsPyoxv5wjAFy9avQQk68wzt2p82m+2QwUlpR+JUmzqoqUUlSPPaRVigd9N5xp5gJWAlcH9L4IEDel4WT2LPGVs041nqRmPA6hURGDt2IhYz7trOPZtRkzZgb7/zKrp2baNBmZrYHQDHv7t3R2AH83WKirVZswY+rJrKly5ASMzP+BETOilDQBCJOsUSespMoc/jxamDhksxXNyVhy+XFLG527dvP/YTqEQw3teGDRv4fb9qm6hpJXq/yphA4FeI3okVGCOuUuXKaEJ2pFzZfLQDZDEpOYAYKkLE4rTTgD/NWniBs7fKXqs+o9BS1oguRk88bi8JmzZ7EsZxAb0ceQVlcudDn4da4jGCo6yZs7JwbeF+hYBs09WjGEXAtWrpcqS7cgMtyZY+MYgOENkLYdbmhRhF9eJ+BhcuUawYHuHC/XCzzohPosPAmFGYMH8Oogl0G1ashkfpAdpKvHpZGbqFqMwUZ+OuYdaiRRhJVu88PUh7de+Oh7t1wx7GsBs5dgSuMp7cw4x7171dJ3r5FmS9ef7ynzBq3BhcOHmW4UaqKfVfzToNseXcXoxmuJgdq9chX3AGtGPQ316PPYLrIekxZeEszCSgvHzsBGpVppp6yBC0KF0Xh9nCT7//AksYE09Ae7mipdCBDFndmrWxYuMajCZzJxkbuhMYPdmlDwrnKcaaJ2JpxGaMZxy5tbR5K1WQXqcDBiB/iWKYOHsW5s6di9IMFfMSAWjzWk1VcOPFJ7bhB4ZQWT5/EULj4skMtkePAX2ZeSMDfmR7Jk6YQM/WU6hRrRoGP/Y4Gpeoj+1nduBrgsaVtNErSPVoG8bq68QAw1XokXucHN3MOT+qUCVxjOPXlWrqlq1aYt+RAxg1YTQuXbyADlSDP96zH0plKUqmLxpTN8wh2zgDJ/YfQs704SpmX95SRXHowikcOXwUF4+dRaEs+dCB6u5+zI5RkIFcNlw9oNhTCXMTywelKuMQlilRmtk8rmLr/p04cuoogXh29KR8nqWDh3gEj6HN4dc/TMH2rTtRKWtBxeh1YF8cJ4/7zbyxmEuVc+Thc6hZvJICeo3qNmNcwrOYTG/chXN+wo0r11C3dm30JutZvlhFrN67Ht/zhWQLg3MXzJ4XPZt15DjtiXw0o5DRLupvVwh25TEuNrh6ftBvdTaO3v29kNnaWQlYCaQsgQcI6Gl7GQ9AMSDNE5ZEN/L69XicPHEWU6f+iE8/+YqLbIwKRVGxYjkGUC1FRqwMSpeRoLHeeVwBHuIuyb0uIVHCwtz6TL0UCCALInhJYiwGyX4RQvszAXdyXTxBWyhTXekoJAy+6grJYjxX5RqVyz00ZV0pE0Vg167dOET14HUGufWoo1mFc2QHd2zfgcMMTBvFFF9SXkZ6X1Yh6KtSpSKKlyhE+79MVNHlQOHChZE9R8ruv1JnaZUTE1oBSbe6ygR+VupdHtBetwSeRLtJdLCQhXHLmSOY+tNsHGXmCgn3kT04HUpmy4GuTZqhcqWqPEMjaVHzztm9ivHwluISw16ExSSiaJ78yu4rZ95cXLTnYeu2LbRvvEaPyxA0ql0X7QgYY6OvYzJjxm2O2I/gTBmRMzQjGpSrjB4M4pspYzihkiggEwia0hFqxWHe8mUsi6wa61mkcCEGED7HzAfxqFerJlowy0VJgjzB6vsvRGDB8sXYQAYxgcxtNmZVqMqwLtUljh5DtiwjYLt+8QpTbAWjaL6CaNmpPWIzhDJW3zLs3b6T0aKvIyvtL+vS6aFz6+5UzsZgzNTxOHbqBOXDvo+nTScZt2xMYXbi7Elcoodtdca860KP0gr5SrMG0v+JKjPGlqO7sWD+fJyls0860sbpqc6/zDRuot5vRzm2IailtaeKKThz7SIsZ3aMKKY1i4+MRmnafbbq2A4h4Rlog7caG/mCcJ2mAoULFEJjqpYrU5UewYDJ8+gNK9kisjH9V9H8jPHXsDHqVajLEpNwkuFkVjL7xKqVa5RdaSa+NcQyiHVQcCJTjpXiuU1RNndJwswgtjMeJxhKZh0zbohDxgHG/8vGQNBV69VCppzZ6Lx0HPu27kZQdAKDPddEu7Zt6PhQntdFY832DVi+ZhU2bNrE1G5ZqV5uyPGZA3si9jFDyW5mRolC40o1mSN3ALN6JGIm7fY2HzuIqKtRyHI9GL0YdqVli+Y4ePk41ddTlE1o+htByMFQLjWqVUe9Zo1wnOrwBYwzeIqsZnqOxaxZsqigyVUIfHcw68lPixeqoNjZM2RByZyF0K1FB5VtQ/CcGBlIr+gEddI9vkBPBw+XA9qhSZ9l3p5+zvKS8lzwc0q111oJWAlYCbglcA+BXtotX/TkqsGIN+Zc8rTwy5dtwOzZs5kpYDtOnjzDfJxXCSi64Y03XkfR4plVu5lmU6ltiVe0hpGgRwEevzlXHCVkQdYqTKpQDdATFo4gK5g6W7GvE2AhQCeU2QpkS6BtWrACR+Khq5PAayMfvc9j5O3EUXbbCMpZwg5K/QJtEQcuY82atdhOwCchM47TyzKcgCJr1ixUBfMi3ipTxkwoW7YcihUtTi/QcOb8zIaSJYujYuWCKYx8k/1D2zWKPETGCqyqymmGL5FtFBAbwhAzMdx3+PxJHGRYFclHm4HexQkEn5l5bZn8BVE4X36kY7gTufZqwnXsPXMMEQRCYg+WPikdwgiWS5QojjBed5AOCZKyTLF0LCtnlqwq8LHQpgcJHiK5ODMqL5KY/SIH2atqzMCRmXaTwunFsY8SmaKL7jEKfG6L2IUDEQcZCoc5W9mplcg4lSMgSs/7SiBeSeV16tJplf0i+kYMx0AY7wk6zhAgM13a5Wiq2xlcNzx9BoQmBCmAU6BoEcSw3cdPn0RQfCLrzz66EUsHnUwoVaYsAX4YDhyNUPloRR0fx3peISiPYiaIYKY/y1+4AJnKosjLHK+ZdOItJU9xKLlGUHXh4iUcZfy7kydPII7Cz5U3D4ozU0RxMnBZmU5Mzo9KisauwxE4Q5YtI+1Bg2Lj1RjLX7SQArvnWOcYDux0HJOhtBnNRjAln2gGoT7LdGFCP4fI2GPIm6IEgoUKFODvUJ3WLD4GEXQwOUqAJDlhs4RnRPFihVGiaFGC4HDm5xUpSM5d9bpDj90oHD12HMcZFy+UOYiLMztHePYsOMf0eMcjOB6uRiMP88wWI9gWu9MMTFV2JT4SRzhWI/gCI3aM5ctXoBd6uALCx08dJ6CLZM7aHKhWtiJZv3gc4Hi5zliDdCeibWM8ijImYTHW52LsVWw/tIfPWxyypMvEhzmB9WW+W8r4CgG1ZMFI5PXS3zKWwuhAlYdhZS4yDuMxhnfJwHETRlvO0PhglKT3dgGy0MLcqcwYqpU6LZoHyHmwXGA7PX1F8u3Wrfos4EthcrK7rQSsBO6ABO4x0Esb2DNAT8CADkXCxUepBvV27Mg1TJrEwLRUu0nGhCJFCqJdu7Zk8jqifr3akPB3sim1K1cswTAC7gyTJ/N1cucNqZv+qH9OWBMFevhdPFrlIx6uomLVQE+zNck390SeyqTuJw7VVhNlxVVoLGmyy5cjGST4JNW++3DgwGGqzk5wsb1IJ5AYgtlYHr+KU6dPITvVU1WrVaKTRz00aVqf9onlA6iYvTpeaYsO7xLihJMRmXmDPycIY0mULLBJWuo4LTr8RoLaK0nvlS2lAEcV4kXbTspiGqA5Hu25t4nuUr1JOURylL5zL4F6lL1iI1lXBcuS4XXVHzyLH83E6FrokDjuTbuO6CPuOgoYkiOmd8010nY5JqW4S0u5dwWKGrW4kbfcKfkLi76Hka58N7an/qWLDES6gaQaYBi6dqmY1ixOOSSktkk1zDkBzpWWaCMEf4lKzSS4jlzkL72b3NORlLK9TQFM+ZYgZ+qg5L6959hbcL95mk15MirEfEK9eMm7mHqR4/h0TQSmuWmbpW7eptTPuFlH/Nzy7fVWAlYCv1UJ3AdAzwsykneCPiZMmAAqteRRLaM2Hjpw4CR+mEVD9DETqaY6hHIVyhDQ1Efr1s2oWquJbNmTeyzEM02VWtDFyM6ZWwN56BqnD1MnbxgtHb7EDfQSSQulc2g4E45BB2++2RKR2nENWzycmmsdEIeOdIqS1NtVsijX6ORwLZKx5fj9GO3IDtFp4CTze16+comq4Ajs2bMDOXJmxcMPd8EA2naVLlMsxeDOxh7RqHZ1J2imL4H3FtkFiReK6QgPwDVAhtCKheiF0/88U2sDDVQCKm5uVbNZoN0AxpTtgd5O92m2NzAaMcu7LOTiLa1fEnzP9UjYI8878sVnWAt1TFjo3xzPG4Y54B4Pco3zVuKD9gOgLv32k7Zqe99f9PmB0bHv+4oRkft8NwqSMpNhTdnJ+iufKY5V9328qCsQMpcL9LXqrz/0djfTDbXNC5a7ImZsmZu7ZMSiNfNmnrGbPatpE+/tnuXVVNxuCfY6KwErASuBwBK4h0DPeM2m1jXaEUGDBd+YcAvmr8a33w7D9m27qHK6gprMa/m73z2P1m3r+BXoXQCUF6v66c0la7zt1JTvWgcEzGn7Ormvu0gdtFjHqdPsnlJ1OiH1TQy75K1y2bt5DurFxZMSzecivxVYEQ+yiIknrpFJYNlRs0UVqz5GbR9zw66jzeI0rKadVCzjyxQqVBBtaUNVu04tFeqlQP78yFdAq7YD1dusxqrdIhNloC7ASahRQYAiPM3tJIjKm7IJIRBUTCjVhWrpVQGgHUE6jiZqt/JgkTIUChNheGIUShnaENI5hV8UBBTVuLNAe6Cw3NfgPQOwfTpV6qxWd6ejHfmaznWcY5QbtXNI4RFR08s5fljMvAio+7uBkO9QceQiQMwJy2POlfYGwhbuwWYcAlTdZHOBPCVuB+CZdA4G8EnZhoF24x53Pc1+fwLaXSc3mHM/A0bO/oNFyc0BqGocyMsU5Ul7R5+2ustyYTDdTLLJoj9VcU/EriKE3xy7WFKQwjRrMQjIk3tIJ0n5DoB3ich5O/GTnSNGn2dan6L6W9hoI2kjL9XFAS7wb3/yO6Vwhne3G6P7v1ze9GJ7gpWAlYCVQBokcN8DPc2MyUQuLJJu0aaNEXj55VeYzH0r+vfviz59e9LZojyj/9Nux9lMmjL3uulZ/50136hvA8np5mycWRrSugCkxhj4H3OtfmbxSOU2ql1OEfLdQ7b5NWzb1uMMXjsWM2b8QMAXS6eNQgpHVaDs2rVrTaeOCgzDwYAU2X2NBHU2EAdSCbaQhVDVRxZ12WF28jwVcM+7WHoXSL18KiWbgEVP3RzI5rQhSCqkwKNmTmVT+M800QNqvPXQZcl9XahFVUODa+/NnLsGBHzO4HIGSZK6zqm9GTimHs5vbxvMta5bqTopg0f9V+FcBzmo+6fSoT5vH0oCWs4KFfgjt0DlpIBinKIMMA2I14ygzRB0D3MDfNznmH4048HHdEHq7KidAwFIUx8ZRvJdyUheJMgGK0gvvcqXKWUnyOdfxqAqR8aZuJNo1WuQCuTiDAG5pRTlrr9nrAX+4np8vO8CprucS0xxphlpfepvcmufwxbo3Yq07LlWAlYCaZXAPQR67unVr7rOAuvN4iBxTLSjwrJlW/HnP/+Z3oKL0b/fALz//ruMO5cneXsNBtHrtdoEN+jMEsIkaa9ZhQ9ck7pb9aqvcex40irR2zjPDSo9Xq7OwhWISBCPW80oOuubrP+ulSeJ3qZiH6V5CPoSuuwZTx6/QWeVnSph/J7de3CSdn5nz55m2JcoLnIMf0F7vk6dOqB9+zbIlz+nDxGnqiTElHuV82An47gioJA2cY56W6ndXTJRENChMRRu8IAmbQ7vYchU1wgo1ILQoMQBbW7QwCMhngppe0o5z5P/V12irzOgU7M2jsOJYdacldwwOtLIQIu6MbT3lOXpJwcFOndRzkMeeOrqIAMaPTIxcMsMRGmoYT9NDfRA1QSe3EfYZiE7tbpb7fcfd3KaB9DKQV0/A3y1XPWmcLp7DPkU5u0vD+I2bKE5jxcrMYpcjcpeMbGmTY5a3m3vJy1S14gtn1TCsOzySztCObXjH2PdKRaapj7aVlO7zOiKyJXamUglZVF7parmpc9fRO7fphe0QJzCnD9ucfgMvQAFevBlKic6xLW+lTNsVH/KGKXYvNoE751TzPSTWqPsMSsBKwErAZlnOKncbO66S4LyVkOrRs3ULQuy9ii9xnQHr77yN3z17WfoQjDyf//3d9rlGW9Sxy5MJn6XutXDdvF68ZYVz9F0TIsh5SvCSBY4D0nirYM/+PolheCexD33NYyPa5UxhFC88vr1BXp60ZD6yyeeNnISmFl+SuME1CZ35T0cQU9Fektu3bYV8+fNo1dkhPJWFPu/7AydUZuxyOrWqYNatWuiYMGsyZlC1+roAXe07tcATi/UirtTbTCLsVNH98qqgApdChR76wXXwu6psz2MmiMMn2u9Htme9Vl1o+MQotGNw/wY7KH7WRvmK7ShQYoP+6fhpVd979hcukCqGRO+D5CuoyY5HebS1YdeoGjgq1OKqoMGYj4x3FQnyr11aRrnCdzRTigGwPmMTw+ramom15m3At0fZqSoe6qPN8SOAR+6Qk4ZDgurRavBtEH8Cnw5z6t6MZIRJ3XzdIgXiOnLdZ94vksrPBScvEnIXYxphx4T+gWDz62k9eM/5QHu0XFskQAAIABJREFUYjfPnYujLeoxjuezKii5fpETlS9DAqm2+Ztg+EjM8yPgs+jpIiM1vSMZZveMcjPa9Tj0jBPVbvnPeQUgKE6fIZ0KjVSK8QjTMUSTeUHxt/G1QC9wf9m9VgJWAjeXwD0Eeu73ZN+Kelk0YS7EA1SDlK2bLpDNexcXGSLjL+++yaDBNZVHrQ6Fog34daw7vTg4VIEHyJn1xRBAyvNQLQJyvldNaCZZo/r7pSbZ1PNp+qAD1X5nzfcsMJoZcECKWgnFFE6zPyqPrloIBQwYr0RZSLRsBCi6txgmWr0eE48tW7bTnm8GfvppPi7T9rFw4SIEejXQrn1rNG3akKrd9N7LXIBLHFLkoxw1FBsm1IpZ+Qy35QuJzCKoQINLNexZHB1mS1/lQQ2u5dSogA17dvMB7156NYRyUI8LQ+r7Jb9ryqUnH8sOhPRFA0ouRga+oCH1sj2l+Z3m3m/q4IFwrnPNeX6AyzlD9iqzOKfdybXKXjm7K+Dfm4Ha4O615MdNnd3y02NVAT2Td096wwP0QtQLm9TIpDE8fSoaEyZMxXwGk5Zc08o0UIEpDUgViFRpETXg1c9M2sbKrZ8VqH/Ni6sex3p+YdzO2FhmvMmE7g93oPlJN+0g5nlBufU72yusBKwErAQCzsP3jtFzrax6/tMEgnx1yAcd5sO7mI0ZuQKffvopqlQthb/9/XXkL5Bde3fKNao4Z+nmD1kM1KTqNqJXb9Ped2wfFWQA6RgbMVWympx9V4dAb/+pMQIpAUY34NP3FLbOZYsljIanjc5ybEgUD4tnGB6zXOusGhrQ6VRqhvFTsQNViBoB0MlBypnTcbR/3IWNGzfTHnIz9u7bw3RuZ5GXAY7btGmFxx57NMW4fJrZE5BpwKQGeVpBF2h1NXZwuh5ihyULvIFZGmIkr6PpLgMhvRAm5XMDPgAusJr62u868RbmEkOIGTxpeiewLNwF+9/P3S5/gOTfZn9Z+wI9uYv7DK0o9u7xQlwvVncfd19/a9I2V7rrH6gEB+g5o0ADNv2Sothph3kVp+QN63fik08+w8JFixmvsCTq1qvHLDKMs8hGJDD2ozxHwu5pxYU2DXDgX8BedI+BgG1LscHmgD/Q8+0LzdhqVbQ8JxLkvGGjWuqjn1XT786Idl7kfqmXzVsYyvZUKwErgQdUAveQ0VPLugt1pQT0vIDnyUHv4yembXrz7afx3PP91aQowVNDgjXL5JPxwW/NNEBJFgBR7QhoS0ePzxAGtTWb7Lt+/TqDuoZp7z4p05loDfBKzUnDTMZeJwLvZO22vfMv031//d1c5/wS7ONU04BhD+YU4/WAiJVJwrjQhSjDH50vV4NeR0XoxGZLpCejsKA+wNIlu727zzNX8FIsWbwM69ZvUHl5GzWqj6FDBzMYdeNkYTWEGU1gnyifCgesEnK62D13xzjAXK2Njn2ez4PkDy+SP2VeW7i0P4HJ12ovz5ZSKYYhSvtdzJmBkIGXIUsNXLqv9J6XGuDzjCRXNQODKjf8EBkGGwpcPZK6XwzgU788FLneK2puUyfvN2d8OSPYDRj95aZrZZ5t3xLMq4GuiVZT62dCAJITqoW/zp25jrfefBvjxo9Fw4YN8Prrr6pgzPL8ymY0A4ZBc54mVZY3IHigMXVzGK6vShmM6zp7X1fU2c7DK3OLfI9lQMwEBs3OkiWMphKZNduovI3ledfMo2EA5a+xskkb6As8em59/NorrASsBB50CdxjoCfiMwjGJUrXi63BMJs3HsWjA59jJoiMmDDpCzpg5OIFTMyUQJDCRPVil26Ans/S6pTlMVFSb/rMqhAXh4vMSnDw4AEGGY5Udnt6caB9G49nZcqoMmXKoACzCLgXDXeH+ztu3M5g8Fffen671Mo+IM8F+nTgZm9r9+3bjSPMspCPmSnKMyduqGSUUB6MjpgddKhVusbgX1Z2pwznD/GhjrHnEmQU7SM3bDjI3MFjMG36ZOWo8dRTgzBwYD8uUlq1LsWL/KROHvZQqeHcC7kXHngYWHV/Y1JvOt8AjtQXXV+g5y47cG94muRZo28O8m6nX5U81IW+QM8NoUy5gcCe71X+ddSlpL65AZ4503uNG+jpkSCqdu1p4wV6+nwN9EyLtOAM0PP2rLvEQLxYoPp62+ELPM2IMcye8eJwBUrnBe//4wt88cWXqF+/Jhn+P6Fc+RK321X3wXUCaOVZdcvJMUHx9sIt1NNf3qm9UtxCsfZUKwErgQdOAvcB0HOWEr+1wQNOeDjyahz++8m3nNSHoWePbvj40z9wr2QaiCUoC+XUGOZhvFLqAcE2hgUzZW9n7tKvv/oac+fNVbHlataswZRhOZgO6igB4EEUZdqlhx9+mAGYWyuWwN9m73aBnpv587BeNBqXVGASeNnLSGgmT9viOeuw2B+Z39xpgN61qEi8/tprGDVqFPr06YO//vWvyJ07l8fxxIAq71/NGqjlW7yRPUGgDWATtbk7lIeW7LkzYHiWaRg1egSB31oMfGQA/v2fD5gSTC8sWibaA9frzOCy0fMALC8Q0SAiOaPnXvxTfrIcZ4xbePTcS+Avufx56u9gVwNr0roEe9W+2kvYu90M6KV0/CZAz6MqTV5TL9DTfeVrx2fqllKP3Vp9vCNDwI84dzjgkmrbRKamO3v2Er74/Fv8858fME9xZfzvs4/QoGENRzz+LNstDIy7dKqxFU7z7eTZd072vvQZRyEjLf+XnLSOsjTXwp5oJWAl8IBK4K4DPf9pSctNoQLP5p/2a93aPfj7397HJab1ev21l9C5a1OBFPzEUQ0r3poSQkRfHnASdYEldTfn3PPnL7Hcv+G/n/6X7F1p5sR9A9WYCP0E83iuXLlS5c3NxPyYEs6lY8eOybo4JRWsePrp8CfJgZL/NaIqXr58uWIYBWjmZ+J5/80DUP3mbndbBST+8Y/vMIj0d+jcuRP+/t7fUYSOFG5gp+VjnFa8dRNmUNRcbkcKpepVxuty0+TtWLl8G1566SVs37ENv//9i3jttZeRM5cOuiz3UL4t5noD+tRBd+v4Q/rGB+g5qMh1aiAw5iUh9SrowEynvak/jXcV6Dk3U3889fTl41ICm25Y5gV6XhjkjPgAjQ2kBjeneSXlu0cDKqNU9h836rlxBqLyTk4+SlPoMf/6ui9MDjw984M4SYlnuaqT1E0z7idPEuR98Q2+/vo7OjLkwF/+8if07tNBhwHiRoMFZf+mg4unJFkDnO8UzPdto2blXG2TfpdnQLH0mi0X1lw0CtHRzCCckI7PP1M6Mw9w3ryZwRTDATf9oql6wuWdm+yhcu7tD67vVFtTf7bs0UASuNmM4983gZ4vK1krgduXwF0FemaxM9X1sgIa6BnWzZnLPK0aNWIOPv7kQ9SqVY1M1Z+UE4aa3niNyhLlALkUxSDFO5OtmiZdz9GoUWPw97//nYnci+GLL79AyZIlVDE3mEFCgN8nn3yCfv364YMPPiDrVyjZLUy8OE+beCMBbYaVC1QnNxN44cIFDBo0SIHCf/7znyhXrpznEidesCdeXuCyvO05fvw4c9/upYF3NlSuXAnp04cppi7EFVpFVKs61IQXvInThvyTOkjdtG2T18ZOu1JwQeK12h7S8YLesh/vvPNHxjZciiefHIQ/vP0GcjLNmi7D4egcDbGH6/GZ07RnZWqMXqBlzMGFHgspX7YpbQ+DF06m7fyfdVaAmxkV3c2WX33pzc7yrZ1bCZ5yvQPZ2PmzQrfband9075oua9SmFJMAOSPqxp//dsn+Pzzr1Cndi2+XLxCT/DqPpU0ZcjfQHc2XeG2odNnpnTFrcnAC/kC3F3mK3GEItATL/fJk6di6ZLVuHGdjhnUTAjIrlmzOj9Vma4wC81UwmiikpMhWJw6uKqoXxhNjE/P0+VqtT/Qu7V22LPvlAT8x0HA11Zn/Jl72r67U9K35WgJ3BWgZ+YnPW1rBkYt4GqF1g+CeNSZGKuqYq7n4/33huGjj96jA8ZgvPvXt7x95xSlSk1tLUwF6A0fPhLvvvsuSpQoji+//BJly5bxlC8evr///e+ZMaIKF5fP1d+IiAgVm0vs98LDw5V93+XLl+mkcEkBLAGDoaEaCEmMuu3bt6tjpUuXZvaOip5jRg28adMm9OzZU8WuE6An51y4cJHMXn4UKVIUodwvmCyOOXr37d2H4yeOo3jx4jxWhGyjXgGMvWFk5FVVTu48uRCeOYtyihCbvYsXL9LgOwtj4RVAxoyZcOXqVZw5fYbXxSsbxLx58zpt1o4amt1z554VNfkNdlss/7I+kAwkOteueD2+/fYfsX7DOjz37FC888c/ICxU4p35gmsVFS1ZHwn65mLlIDdf+yQvH5PsMv1e4LM0e9Sc3tHxm/3mBRsPngiMw4KeFjyRDlVDRo+ZhWeefp7mFTnpgDEKjRpW9jQwrVDYC/R+GdmkKnuZr5wXzqgoqBSO06f9yCw1wXxmwjlfMF8hC5DnJz7hOp+heDRr3hDPPjuYL4CFfZCrdvgyjliBWm/Bwi/Tw7daqgV6tyoxe/6dl8DdBXracMuZ7dx2R6KKMGpCZz5zPR+v/P4DjBz1NdWRb2Po0497peCa3wJmB3DJS0FKp0w3iBw2bCRZwncVk/clGT0BcGb7/vvv8dxzz6k8ut9++y3ZqpwYM2YMtm3bRiahKRnGWjh8+DBmzpyJHTt2oFu3bmQZXlNga+7cudi8ebNit8TLVxhCAWht27ZVIE22mJgYDB8+nIGf/0+pSLt06aLAY1RUNGrUqMHyutMpJBx79uxT5V0lQBNVr1wnwLFt29YMtFpKlbV1y1bazY0mqLuA9h3a0bawu2Lytu/YilkzZ1HldRLVq1dXdd6/fz/j5M3DtWvXULduXap6O3uYRMPmeVcVYQ1E3StATwCfAMD0XI8MzQBsXL+X6rO+KrvGpIkT0KiJsZfydgADvDjhMfwnPid+ofSPDwfjy7m4h743CLOzVxbPVJ6NAITanX+SApQYqE5pBSS3W8G0g7zbY91ut15puk76kS8IiSoGpPSpfpmQmk6cOBdv/+GPfLGKoinFnwh++niKNC1x97ORg3mV9D9H//bfm9ooSl6Svp/rbdOpkW8fuB0qvLeULD/bth3A3r0H+YIbhkwZs+LUqbPYsX0XTp85zXZe4dxyAKdOH0WXru3whz+8ylSFxb1tdqf7k2IdAOmVs7st/qMutXamqafsSWmWwK0CPQvQ0yxae2KaJXBXgJ6pjbL3UioHmZUMJyNHZTLUgXaVCtc11nduv4D3qFo9f+EE3vrDS2jeooFrsnPN1TdpsrqlSQ7A78Z8buTI0Up1K0Dvq6++RDGqcM32N9rvvf/++xg8eLCK3ydA63//+58CewL6mjVrppw3pk6dqmz6nnnmGfzjH/9QLJ5cmyFDBgwYMABVq1ZV10yYMEGBuXfeeUddJ0zbaIKzjz/+WNkCClA0++vUqYuuXbvi5IlTeP+f7yug1rtXb5SmLeGUKVOxePEitGjRnCElXqOtUnaCwT1K1bxq1UoyhD3wr3/9iyAxO+V2FsOGDVP3ka1nj56qXrt27eZCs12V27dvXyWDzJm1jZ1aAh2nCs0ayB4JSeN4ZUrQZSaqDwlxcozy6H/+PRwf/+cTekDWp93U26hQiQyELokQT6dEUwwN7Sl9NxPs2J/PS4XR00MmZRMs5wa/1eXswWu3AVF6vEjwcz3mNDM+fdpi/PGdd/liEok//fmPeGJQN78xdHs//e96M5hnhp2ppfu32afLcANIz2OgjzisXkr5qPmupIY2Hf/pFHaRoPaPmDRlOPr26YfPv/gE2bJm1hEGPEDP337WH9S551lT4wdvhNxeDz9IV92HL14PkvhsXVOVwF0Fenqi0xOPN12X7BXbMJ3ayGwGlH3/7WwFwOrWrY7XXn+BNiuOmtGZMNPav25GT6pggN6w70fgw48+pKo0H9+a30KDBvUVSzdjxkxMmzZNgc8//elPHmcMcdAQj1Zx2Pjd735H27QnmTd2E5YuXYrmzZsrRk5UwaIyffnll5XXroRqESAmgDE6OloBQgFXsn/Dhg0MQPyYYvkEnInq9urVSGUvF8so/59//gV+5D1fevkl9O/fVzX33LmLjGP3FK9dT0ZwGAFfC6U+/vOf/8J6T1dBjcWmMFu2HOr8pUsX4+VXXsZOso4ffPAhevXurdYiaePbb7/NcCz5MG7cOAVI3ZteTLzqIQm6rPWlAtYlFhk9np0uu0St0+uv/wGjafM45MnHaFP5V8Yo1IueGMhLTD8dpFl2OouTutbY6CVn5czUlzxTg7os9YHtHLVLWlqfkHt3ntubXY85AXrCHAczO8sNdO7UC+vXb+YL0Ud4+lmO3Xu0mXqq2ysiL6UYlg5f6Bq4boZRvcwm928K2KoN6w7h0Ucfwe69W8lovkONxmDkz5dbPVvaWcqXzTPzq/dpskDvHg0Xe1srgftGAvcY6Gm1nQZ6vsnJDRD727tfKSbs0Uf74IUXn0TGTGL85bvOaw/PVNR3fpOh3NEAlO+/16pT8Tht27YNvW6rMWfmIS4s68nylUT79u2Zaq2JsnGTbd26dQRZQ9X3kSNH0umhsuOZqlsi+1555RUF5IQFdG8Cvj777DOlwlUZPmjzt3fvXqU6FZD13//+l3Z0BemRx1RijOu3bdsOpToW5k9Yv6K02RPbObERFJZvxIhhClQKEJVNAKgAv1atWuH/PvgXsmfLqfZv3rwRzzz7DC6xnOkzZqBC+Upqv4SRkbZIHb755hu0bNnSp76BFg3N6hnfTPF29kKpNasO48033mbu3PV45dVn+HmeNoEC7Ki+ThK1r/QRg8UK0PPQKU6eAh/g5i1TLVMB0FpqAM5XdebTJPvjPpaAcVLSz75GQsuWbEKvXo+iQoVKTHE2AaGuDHyepqiXx9QmgJ/faF+QZ9QOfuWqMSzH9EhPNYxKMgInAAvoFL9w/la+RL2JY8eO4dVXX8Trbz7l03Qhy8WkVtvA6hw0vs+Hf9n29efnj4ifX4I7+L47nqp/diX/ANnuc283xNfPr70t4UGSwF0Helo4MvGYYKjyW2YpE8DXV3X7+qsf0T7tJzz/whAMHtLH1wPVAXzaw9P1lpx8pks26Rp8Is4YEj5FAiaLXZsAPXGwEHWoAJ88efL4gJlly5bh+eefV8BPQJ3YyIn9Xfr0egX697//zTAnf8QLL7ygnCvcC8SUKVOUelU2UeXWY7omsffr3r27sgMUwFmiRAnP+Jk1azbee+89xg07qwCnqHelPHH22Lp1C9OTbaRMBiu1qzz88ldsCcV2T+6dI4cElQZB61pVH4m5N5P2erlz51XpoQ4ejCCL+TZ27tyhvIvbtGnjM3Z9nSc8/JrTd3KqE3jZxVDMnbON93qW5UczbM2H6NiphdPjVN+qoLx6ATR5SM0NdUAQrbo3y5QAPF/izqWvTWFdtyDvQZp+NCtlXig0MPLa6opn6rBhYxjrchg6duiI9/7xkl+kH7EdlRHiiu6dMl76WYJJbUF1L9jum6SYwcI1P/mDwZTA4aTxK2n/+xZDGIXzZfFDNGhUUT9XLMvY1RotiS7eDebsU/GzOv8XutiE2lIzqV8oLv9A+qYK/uPQAr1fqHN+ZcXeI6AnUnQDPbHdItPjEHxGrRF3A/TkfAcbN20gIHkZPXr5AhHF7LnYPbeThX8/KSLKpS7xMHrfDafdz5+UjZ6AqkaNGioGTWzlfD1PdYkC9ISxE2AnLFiFChUUw2bOFRs9UcE+++yzimGT/eYhnj9/vlLbihfuDDJrjRs3xpYtWxTQq1OnjgJ6wvaZbdrUGfjnv/6pnCaEIcyVMxftc8Q2Lp0KdRJF170KFcorECib2AV+9923KsCzMHo5smugt27dGgLl5+mcEaIcR/LkyadsfCIiDlGuf1BgU9hEuc47ocgq4vzyrBlGDaQPaAca6TuXtCnnzz6bQOD4b1SvUZX2iG+garXSDs+gO1hNcPzrUtR7QJ6JQeaBlSmSD74QUMq1y9mDPDvp/nSH/dm65TDtc9+n89ABPnMv45FH3bEs5XzGa1QhRgLnbP650vBfRP1DKYmTlTzfKQE67/Xu0elbq+RAT9qTXK8bHQmy9//Dfz7+AE2a1mUswY9QtlxRz/PkDVIuMjFAT73+uj4/VyL2+jspAX+g537p8eVk3bOlk8LSmXR9mOY7WTlb1q9KAvcI6BnAYFS3MllSfWtUsM6KfepkDJ4e+jtcOH8OH/77PdRvoN9iPZsL5N2sVzwTqnONeYH6njZ6f6X6s2y5Mko9WrFihVSLkuDGr776qoqTJ+FYJO6dADkD5j766CPlbCFA78MPP/RZBBYuXIgXX3xR2dNNmjSJ+TkbeoBe7dq11fluZ5D58xfyLf51Zfc3bNj3CgRei7xG9XUmOlRoQ3WzySIkQFWAXsuWLWiL9390GMmjDq9fvwYv0p5Qtum0O8yXr6D6LqFi3nrrLQX0kjF6frI1tkB6YTW2lrIwS9/5ioxRXvD6q3/CggUL8TJVTc84HpLaz1oHwHXDMnW5gEZVjK/aVh3y7xEPsWfGkZe/sEqpmz0J99NxNZCcLtcvfhq0qa9Mtzcfb775Or3FK5Mp/wCly+b3VD4piRGHnZg62jv3zvV8WhdP9wverUg1VZVuKgUdOhBNVvNvmDptIln7ZrQBfgE1alahNkI8lcVZKkFpPFSYaaUhMR/f5+pW6mrPTUUCvvjLOzZ9LjEvMEa1rjVWBtTpsWb6x4A4dwHOTdSc53C16gIdEFyDRQfY37lHwHb7r0wC9wjoOTO5ZwnXAXyNqtAAhx3bj2PIYOa3pTfo8JFfonCRrAHFbzzZUmT0HOZPvSiLqoMXhITop0LCq7z77l9QgiDqgw//j4tKNcWYud/m3W/swuiJk0XGjBnpJPKVAnruLBji3TpkyBDlQTtixAiPSlfupYHYd8quTwChhHLZuXOnYvRy5cqlHCiE5TPbpk1bVRy/s2fO4BuqZJs0aejT/hs3YsnsJai6mPK/+eZrBfSEHcyVSwO9TZvWq3KEgZg8eQrtALVHrNgivv766x6g165du2TydfeJ12bPfZpOti5A1y3//348Hv/5z2f0HO6Af3/8lkflTr6BfWC8d/UE582uKgu/mfS0bZ6H2XNuaeYybw4HYy/oDxN/ZU/qr7E5zsuEenEgOyfjQkKNyCY47oUX/47p0ycxEPfLePa5xzwSMLZoerzJCPGafdwJMbmBnj+LdyfKd5eRZtDnrPdnTkcrm9zJkyai/4DefDn8BwMqMz0jrnPOkmDojh2sAnraoUVvFgXc6b4LWJ7qJ7es3VoQt87BiT6hbDq9mWx0RAqJFa6ZWG0TrXtPj0V3nwr2c78035UW2ps8gBK4h0BPPwDGLsczIck4d+amVSt20wljCGPGlaTKcRTScQ0IkFXME7IgVdWtfp70IuJEp5fvX3zxlbKpK168GFmDj1R8PNl0OBDvm5dh7ObNm6fs3SQ48tdff61Am8TNM5uEVpFMF2LnJyBKAJ+EYjl9+rQCdBIDT2Lt9abnq9janT9/Xp2/ePFipdaVa8QzN4HxFSS48aef/o+g8ENVjjCJVatWw0Vm05i/YD4OHNin7AilzjJBCJMojJ44Ywg7aNKprVmzSjGJwkCIJ3HRosVVdSWLxvPPv6BYRWEnxUPYf/MHehrsaW8/IyfZJ/2i+0ZAMvDTj+t5z9fpTVwQn3/5b5Qvn0+fb5Cb8tw1b6PaIUNvvn/dQM+H6/Ms8prY8QLAZE2wO+5rCRhaRP81z9n4sUvx/j/eR4mSBegV/zeGFTLhegwzYjz39YJ4sy3NgMpVkAF88oIkYYikbmKza+xxzalyngRHl4+5Rsw/JJC5BFAXpy4dRN1NASWv8fHjJ+kYtVuVITbCefPmUx7xoaFh3nmPRaxauRWDBj/FYOe58dXXnzLIe0kWRmQsIZAEMCtbVwEEFujdbFyk/biZiVK/wvS/JgdcYM4zt3nHq5n/jHrdJ0a9323i43U8VhlH5jxZI0w+cm2nefPnIO3ttWf+miRwj4Geo7lR41MmJ4eVcYDerBmrGMLkFdqv1cKESf8LKHcDRG7WKUb1qM5TrF6iykAhzNqHH36gwquIGnPw4EEKYJkHxzw8ApIEgEkQZRMHT5wfHn300WS3njx5svKuFfWuxMKrVKkSFi1apMCcxNETYCfgz2zjx49XtnISDFnAYOnSZVTu3TZt2jLe3S51P/GMLVe2nIqjZ0CoLAZ9+/ZRIVnEI0/KmDhxIp086ipnjIYNGzFUyxUVR0+An9RHnEW6dpU4ZEn0Zp6oQKdcK2BXWD93vZSoDIiS7nGErRlUrXLwqHGJtoKVKk0vLkcORbIOH7PdC+gw8ghee+PJAGDMUeMqEO544nomxAAqWx9JeydeO73dbPTfT8cNw+E8iKpqXjs3eQm7HgOy4q8pZ6M/v/sG+vZr69sAxQTq0CbalCCNsUrSKAZ/27zdu3crNl7sduVFzAQ8dxcnQcglRNHWrVuV53zRokXVwhwbG6ueO/ktQdBFA+Bv+3vy5GkGMJ/DgMmn1MItL44HDhxQ8408y48//jhjXHoT4J45HYU3Xn+HTPxmhk16Do8M7MWqiLetZK5xwKSH0UsbEE6jaB6A09IGyHwb4s/AmbEZ6PXRMT9x1EhakyFaDWNg7iUJxPlNNr28Of2gqqfZ1pRwWUx0ggrxdenSFRUg/PKlyyqIvuR+lvEuGZAkqHj9enXQoGFtpVERzY4Gfdq5yYK+B2Co3sUq3kOgp1vptVFwHgCH0WNgeMaQG45Zs2aRzeqMV19/3CUWM5npCT8tm9fQVbN0MglLwOBJVIFIyBSxgxOP2x49eqi/AuzcKlm5h6g6ZTJfsGCBmvRFzSqhUSRLhf82ffp0LFmyRDlSyGQvLIDE2RMGzjgaMhkQAAAgAElEQVR6mAlfJvQvvvhCOUpIPcQpQjJWiIOGvMHt2bNXeelKyJfY2BvqTb8Fy2rfob1n0ZF4fKNGjVLAUBYV8SBu1ao1zlDtO2LEcKWelUDJtWvXUQGVc+fOo1TLwvCJLBo1aqRSsYlzSSAnFNNX5q8Bwjo/rp7kNKPnTZ22ZtV+FSMQzKwxduwo1Kpd1k9M0ndKmcvpSXtOaizp26cp9bAFeGkZ+ffTOQbkef/qBcnXxm7n9vMYPGgwx34Ihg3/krZ5Onam8q53Xi7M+BPvcUnpF3klEtn44pMjh86DHWhLjdVLbXEURyWJmSkvQWPHjlXZbdyb1EXYPIlJKaYZ8tyKw5Y8y5IdRz5iDyvzyptvvkl2u7zn8qioGBVqaebMGdQqFOeL40BliiEvbBMmjFfPunjSiz2vmxH87NMJNI34EG3bNWcQd2bW4bMnDlpG4+Hwo+qZMoynAbD304i483Vxv0ikpXQ3EE7pWi1NBfHkxcJlUKLmPxmbznohMo6XtCcsNjRU0kXqAWvmN90X7vSSuo5MaMTg+CcJ9o9j957tKhLC6VPnCPauqo+kq8yQgRmJ2M+SNSWIqSOHDh2MV197Tl0v60K6dBLX1AK9tPT6b+2c+wDoyXPgdcpQJgsczDu2nSeT9Uek41vK62+8hLr1DZjSy35amTzTof5AT4DclStXlOeqURcJ4JEgxgLEZBPVi9trVkDbBapNZRMAJudLNgmxr5NNfrvVuPKGLqFRxPlCzjEgSoCf3NPtsSdsnsS1k2OiHpJ6GNs7KVvuffbsGfVmJ4CtUKGCDLeiM1lIeBdph6iFzYIlwDJb1my4wQng/PkLBJphahKIjo5RC1Z4eGa1OMm1ps4SMkZU0iltxkvMHQLD8yYrU6Ga03zZlaefeoMgdZzK4PHGmy8gzCcOmjbA9wV6aQPuUkf71vqgTVdqSVTOOBqkM+COYkJENeld/FavPIxHHunH0EXFMG36eBgyKxBQk+dCXr6EQZdn7Pcv/V6FYvEPVyH3Mc4T5lhamA95gRInLXnhFGZO4k4K8y/PvdsZQ8oS1k8z6Q1VakNh9uS5lGDpYlcnXvcSyul3L/4O4VnC1RwmcTAF0Im5xVNPPaVia8omjI6UtWbNGnWNMP0CakOCJVIysH/vZbKegxF57QJNSP6H2nW8eX91RAOtOtSbG+zJ77Q/Yw/aCNNtM+1zCIGAjXAfM/IJdK1XhprEcxMAHMnOQhTszHsCBNVLiJiyBAUK+uitzFnaW27ctA1bNm/HZv7dT1Oca1GXOe+HUN1fnOM5L9eIDFwDQxWjK3O62JYnJAhzm8AQO3UZyL+FegFKTNRrlWX0HrwRezdqfB8APXeWDE5iDtDbvOGUUivmz58Xf/nr21RZajBlFgl5voSy9oKO1B5qM7npyU8eTnkwAwEFf0Ns8xZsWC73cfkuD7UcE1AovwUA+ge8FPAmYMqUYc6V3ymxZ2nrfLm/WwYBrpLJyVFzyVFZnKTOBtz519WU4AuMNbDWtni3piZbu2YXXn3lLWVn9MknH6FKNR0Swm5WAnpBFlDiy3AsXrAHA/6fvSsBsKlsw6+Zse/7mq0k2dO+SFJStKoopb1UKrSJshNFkTZtok2pPxVRVEKWsiVkl+w7w+wz/uf5lnu+e+femTsMM6N7+u9v7rnnfOc73/J+z/e8W6cOUFs2k/9Nei/DhuLm6tNPP8Fm8GkwIDuQy/kslSOawImOVYUKaUclHl68OT2GwwF6tF397bfflC0u/+XmiEw4WXw7r+2ceOONNxTYY0xMmnhww2YPOkfRPIIpEYcMeRG2dxWQH3sFbHVvVrJj4sQvFOPnHmQB9bPrwza3gSQjkHpMVCFto4Wm6917pHw2YRxse++DV30XzDHfm/qK8WygPf7b3bCdfKPQZY0zezvbJqFUt/p+lQVIyT3NlvmPGy8wdihV7MGDh2FCc0htstlvcXGJsmL5athZ/yJ/r1wDhg4bdEyDEiWLY1xVk/oNTpPG8DSvVvUUALySyINcDP8WUanveD+zotD0CJAPG2euK3Zs/9fU9Jn1b+R32wK5BOhR2HOCQlIZoPfHgs1K/VGjRjUEAu4r1WvqzBTcUdnJ59mJZWWAa3DGSWtBjstQBWOt7KJgJ7gFeLyPQI3fA8GcbWB7rQuQeI7Cnee0kbYVKJ5thSdMNJjz7jdqBEfguGCN72bv1WpVLZj0ec2C0XbEnncZSNcBxb6zFl6eDcrRANN+fUbL/776BrH8HpT7HrgpMvsiLRCyBZITRF4b/QnUlW9Lx9vay/MvdM20tRITE2TGjOnKFnXOnN/UgkrTh5tvvlmpWWnKEOzIDOhxTlPVynlBOzkGSKd5BAEdy/bmiAYKPE+73SZNmqgYm3TEsNeQdSR7d+mllyq7YLLno0a9BtA3WJl0kJG0mgRbV27KWAfOQc5ZyoGY6MICDZ06fpi6SIaPeBGOG0WhwnsCKmMLFK2GxJbkLx9PbhVuuIxesBERaAxi2TwnmL9PVhv7ZRXORolIv2P3rjhZuuRPWQ9zH2qBaGe3Hxqk+PgEObA/FoztJgX4GtRvhHijZ0lDbCTOrF8XzkdlArQeGQ//lBSyewR/miTxgH2m0yZywX+oBXIZ0ONgBQDD5Fn0xxbF6FWpUgmBgF+QmrW17Q2NTvVhI+pr8HI0arxAQR9MALpqHtdBw97L51Ig87tVxbohGcg4qIloAKELFm29bd3d52f0PvY6e40Fd6pVjI2G/TtY2e74DqaGDXy2fR7fkywDPRD5twWSLM9+t23BMkqUKCXFi5WT8eO+wgL5GVTXp8rd996KBZCOKBp4BkYHsAA08F0yerf/0HzN46+qF2F6hup1kew6QUl+mKcXk/wxJZCPeZV89PF4OCYdkjvu6Ahj82aSkBiL8cXwITSnYAiRfIoh5lijHVThIoUlCSYIvyP38/dTpsr8+QuUyrRWrVpKjUqPdWahscAr3EZcCGcQBj9njEtmw6EtnXVaIkMXeBCskdGjjR6BXoUKJi83LiQIJWikCpYs4UHYFd59993KLpfhmhhc3Xrz8r3s4ZlGUCUIGQNGTzn5owH37RXpQ5Xw9KnIA/4E7GFvg5yxm2YtIz0EEtyi9eQDfS7QC7eng6lxrXmQjjBgW08BqQClRiKIun374mFftxX/7pfdAHbffz8V0QyWqvuo8i9QAOpX2GwmI385vWVrwB6z5WWXy/nnn4+NSBkpVMTUVWlgKMf1umEPJRepmVG/eapmJUNVL7shhoL3dbitEbnu5GuBXAv0Fi/cAkbvSYQQqCgDB/XBTkfbzRHo6QGv2SqXlQu3e4IBmUDwFMjsuYDJBXmBLJjrpMD6EOhpFk3XN/B3JY4dzj8zloHXu3V1beRcEMnrrEeY+y5ZaaNA4EmnERqmUy3FOtNWkM9w7Z/0IqXDrVBtlk+KIOB1kmz6ZzsEZKrUrFVWSpcpDNvAeLVoKxU6Lrb3KSBgN9IBlQ0FYsN9p8h1Od0CVlXL1dJbkNPSoiV/dEkpWKA0VKN75d/N/0i5siWkStXyAHJgv1PiFJOfSju7lDTMKQA8LJ7M9ML5RTvUgvheqlRJZSO6a9duFd7I2uDSS5agqlOnTip2ZTgHy6VtHgOkE6BdcMEFykGCDhfNmjWDA8RoODSV8yuKAI7AkM4WZO3oDU8bQjpjEATSOYu2egymTk93soJMZdi3bz9fakQrM1y5oDdR3ABjrjAnOFkks5YPHvimfDhuLEIZdYH9YGeJzk+VHsGeXfiDqSf9AUQ47ZF3rskq0HOFjQVQ+JcRIPi/TDDTkkWbVESFFStWKuZu957dkHd7lGxjeswzzzwD46SslMWnHGxIKVNLliwh9RCYv0KF4unZO5okYaynHUnyhU45Qm2MgXM+oKccPNjH1gwh437OO/0XqenxaIFcC/TI6DHcR9WqlWXwkP4AeobRo+pWIYGjB3ouWAoEWsEaOTNWLNx7CIhcYGgzagSCTFu/UKyevT4YA2hBnQV5tqxwAGRGA4x1IdB75ZVXlGchD+beJVNp38vHWoKxiYrSgC0tpaAUKlgBn5KyfMWfWLT3Q8jVhCBMVI4gNiQADc2zwi64AD8r9x2PSRQpM7MW8PEhWDkZDsVs0DiX1YIFZ4x8ZDvyw3EpFuMpUcqVL4HxFQMQd1ixG3TYSgHIi4ZhOm3VFNhzvAy5eNKBic5KZJwtw84xy3HZtm1buf/++5X9XDiHDTnEe6mSJdvG8EgMT0SnJzpIXHLJJX5F0TuWYYzobUtVLxd6MuD06mfaQ9r1MQYnmca1a9fAPu9W5XRBNo+MoT1cVpt/azMPzWIqjYdD1L009H2oud9DcOkH5aGH7gTQQ1sZUOAfSDrC6AXvd3+gF8iOBVPL7tieIOvWrlc2llOmfC+zZ89WY4/hcyiXKNfatLlKhb4qXly3O+3qjJmfXzW07bMXH9bn8BEFsK5YPM3Qau9d/umAUR9j66+aD2d8R675b7VA7gV6v2+G8HpMqlWrgnyvAz2gp1S32QP0AhmicLs+GDALB+zxPquW4bNd+zj3fquKdRm5QLAZCPLsu7hAzy0z3DqHagPLRjKe35YtW3zhZ7x6ebvffAB5NBTmihQTxfhfJYTqjSef7C4HYnciA8hApJw7FXYr2PmmJEKeaZtJt20y6guXUQ23zyLX5YYWsGwLvRJpeqGD+0blIztXHLZLyQhf8hm8z9fKzbdeCycEhuMhyCOLT1U/r6XXKRhgAD166pJVJrAiEOPYZLggqkMJ8Mio0UaPqlcGLeZ3bk5CzTu3heghS69XsoG0rWPMSgI92ugxzBFjVtJL1rW95QaI2W34DAYfp3e73cyRBaQql57B/H316tUqnBHDIZEF7Natm19ZgWBPyzxOqRi/oPEvDf0AQO8DAMgH5KEunQzQs4xe5uq8k2+TlFVGz39eaBs3E+PO1ejisj27U5Sd5pQpk1UoFNqCloPDzXnnnS/nnnOucgRi1AKaI5xSrYSgGHVgD+sLchxoy0d1vD4UivN9uBny8sGzUuYyBfQsk8c5dHRmS7lBGkTqcOJaIJcBPc8ZY95vG6Q7hF+NmtUV0KtRU6c/0zZ6xw70Apv4WIGQW14o9swV3lada+8LfH5gwObA8kMNkWAs39EOJ/c9+HdWPW6t9Yh9/iNd+smfy2BAPvxFOfe8jHMKH22dI/fl3RbgZqBnz8GyaPE8sPkPyvU3XBPWy3CuTJkyRXnDMl4kHRgI7BjjkoCLtnmuE5G1Jw3FmDNbDdk5hlShqpcOFCyT982ZM0fF0qMqmJlxXNBIu7wBAwaoeHh9+/ZVKlyqbhlmheDOmjlwLpHJowfu/PnzlTqX11t732AbvFAN8dLQsfLuOx/II13vh/dtJ2QPov2jyY7hp76NMHr+begBLKUWNYDJl3Od0MvY4kH5IAsXMpbpJ/L1pK9gV5wkdc+oA5vjM+Xylq1gd3mll2kuoKOsSbmrAubf9ulKXqv/mdxAPoDHMC4MHKnDEXn2LDrYsgq47JfLOKypErnoP9oCOQ709JD3vG4tVT539jp5HKpbxhMaNmwQvG4N0Msm1W1u6G93obFsVjherRntwrMTsAYDl+GBPbdPvfRw48Z+D/s+5vqth4j+XaX2qdZYPWDrnBs6J1KHE9ACLpshEn+YIUMGw6liDuLhPQSQ1s7UgYbplBEcS/6W8Jw3H344DozYE8rBoXr1GrBVe0BloCHQskDMzgtrZsDzoYDe3LlzVQBzquAYpoW2eLTZI3vILBkEcwy3Qrs7VxVM4DdkyBCloiW7F8zb12bKIJhkWsIJEyYoExXa9PEIjMWpN1v8JThQI6P3zpj3of14SLo8fLux0fMc1vR9LrMXAHdCGcSegN4/Po8Il9HzZI4eG2TGCJ4MCCOJZobarF//lGFDR8DWcomcc24TqGRvUKF/KlepDCbZPzQQgZ21oaS5soqYQBtt5zIf6NMYTzmkqRr4bAL5jWOehbEv7fpoVbQo7IidCxG17fEZRydXqTkL9NRApyBzgJ6RZ3PnrIM64jHYs9SA3csQqVFLB/KloWp22OjlVDeGUhdzUeFv9NDK7MhJdUuoxdEfFNIOS59JTUFgaIP1/lyyBcbszyvvtIGDXoBa7UIIRarkqJqLgkDU0lCrTzJrhcjvebcFLMBzAqXjZQ7HCrxaB0I1Oke6P/kImJK2ZpHzWHxPbaXfnirazz//Al6uY5Ta7KGHHkIQ2Wt8DJ41OeC1du5ZT/NAJyhrDzdy5Ej56quvFONGmzrOTRscmdlx7rjjDpW7moCPmV8sE0egRxtWMnp0zCDQcxk/Wz7nOO3uqOYlk0cwScDHkCvusW7dOmXjV7t2LWXvFwzsEeiNeft9xNEzQC+G8tT12LQgL3j8y5yUJcdn/GYV6NnoDV6eZYX7uDbhs2PHfmRFeVImT54mba5qA/LhYbmkeZOgVbeATWs/dLmKPQbyi0Lgf22iYgEmzRC03Z19nrW91Ng7EOjZR6IffentLHqMCMvjM5ZOnlJzFuiZdtThFiigdIAoZpCZ/sMi6Y0Ao40bN4KtzAApX1GjhbwG9KzK0y44rpMEQ0BwwaBAZ6oyLhgMskp1EdU9ZBCCHTklnAPtBEN5C6tgnkb2pKVSJaF3tKno1379RmER/R8EZhe5/4FbzOsxiDMXYi9vZDiA0l28T54pmdffxMeJpMMlOokU1zprc6RXUzvvDx1EuJA+g6DOnKUYvfY3MyezXvR0oHStstJpqHQAMxZ14MB+sHmxKl914EbJBgh3M9y4LRxoZkEAxvzUZO4mTZqEQMWN0nUIM2NQtXv11VcrL3Rll4UBTE9cgjeqipkZg+pjG3LJnTuWFaetH3NlM4MOPdmpZnYPsny//vqrysbBZ6mm4zxxMNsrwz8C+/iOPPIIVLcPd4I3MueRBXoeqAjF6uWULDl+ozxcoKekh/poYEWg59WKUbGYguzVV0fJW2+Owaa0DTang6CuRWzEQFxlmDk78nUQe12WzsWs7ej4t9femkH0PdPufXiPT8ulMwcpcOibVv42eqGY3uPXvpGS82IL5AjQCzSmZ45GRXcr1Yw+Phk/XUZgd9yyZQvpP+ApsQHu8zLQ4yLCHT4FPVOe0VuLgpweeVwoaM9D8EcmgKwEbYOCGY7nFuGcoTcybU2MhxgXJxok0+544sRp8nzv3vBKayUjXh0E1YeVrqHDquTFiRWps125/NWznnUS19b0QK9v38Hy29xfEFz7frntNh2U2DNKDy/FkwV3rme2u8HKqG9o60cnC5ZBb1vGvXMPzlWCOYK6atWqKZVrmzZtlCcunTfI8tWoUUPlpmYMPxt6yDpluBsY3sNn0LaQamYyiNaTl/m06eHL9IkEk1deCTswHKkpABFgiyxAeHnYh/L2W+/6VLcMpkznFc+w36r2XBWfh1RyiyzJvvmSFaBnZY8Ge35AD5vSUaPekNGvvyGnY+Pdr19fOe98J3OJVbsa7UM6dawa2jbrk/GU9lnmuUgxCGpUjRH4Hha025aKqGyzb8yc/CXlWqD30bgfsJsaCbVGS4Qf6CEFDLmV14Be4BCy7vfcwdNDkGwAQz/QNX/z5s1qgWB+S3oLDh48WHn7BR65RThnCPR8cZ90sAeltcAx+bs5UIU8IVe2vgwBaIeCgbCCzhNkoZxZTv7peLK8obtIeVSF7mEv+IcGcF4sMORqh+q2v8xfMEu6dX8Y4UdckBX++LBBu31LIm2knFU8FFtMD1gCr6+//hrsYCUFrjp06OBj9QjyGAvviy++EObA5SbMhm0hc0e1LVWwBICM2cffyOq5quLAZ3PDN3HiRHUfN3k21y2dShiXjTaATz/9tPIYDnY832sUPIE/Rqy/HvC6BUOuppO10XNBtp1n/gAht8iS7Bv54QA9m7bMMnrcZDLLkVeLv/9eL48+0lU2/rMJcmokwHxL348+0xI8iptXz7aONnmOg6wa7/w/h65LL82DvHpGQNCCwOxrsUhJJ38L5AjQcwUw/w7G6H08/kd5ZcQr0uqKy7Gb6iEFTcrKvAL0XNYy0EGC+SsZ04vnGUmfkfvtAjBz5kzlzccwDPTGCwzKqqZ5bjeg9q3JRqBS1tG0BELw229mw/i8m1zV5nIZOepFk59Tp2mzIjIC9PK64AkO9PRbuYss1Voe0Du4n163z8uSpfMRvqSHXNO2tbO4GpiINVDHooSaXxenS3XWRjdMD8eSOxct6NJyR+8+LAik/R3VqXSIoL1c4cKFVXiVunXrqusYgJlmFps2bVKMPO9n/DSCM4Z3WbRokbqmaNGiKuQLmXmye676NpSzFEO3LFmyxFdXgsiKFSsqMw5+Chcp5POytMDiIIBx71795ccfZ8D29WnpdKf1Ura2YIFsqsvu6XbL9bIky1MhI6BnZYwdgzQVwThQZt/IOhKjB1FCfCrA3WgZhUwoF15wIcD/aAQ81s6Aqs10NCg19HR0FM9hJn3/uiDPZeUyAn8uKA/VABndn+VGi9xwkrdArgV648ZOlZEjR8lVV7WGwfLjkr+g7om8BvTs+LFAjt52VO+QuaPhOIOlumwDFxDu5rnYMGcmwzIEHnlHONOIyi4oWjB+B0aPQK/1VS2hGnnR5O3Uwpm7arv4hGujd5LPzzz8enbBdRck27829pcGWrRV4rFg/mrY6PXF2I+Tfv2fg+rzXN/Cqp22jKGSWi/9VV4u6HPzPbvjKXBMufEqw/Mmz3p3WDUyy3eDi+v31kyjWy+ad/B7oBOHte9KVTavyCQCW7x/NuwH6z8M9oSrkOv2cbn2uuamgtbJJRAMRICeZ5fH8aTj5RHvqzzCBujNnj1fBg8aLNtgP929ezc433TwOp4qWTWonLGQIWMXzphJP0fS32XGfjjFRa6JtEBAC+QI0EtvowfhxhQ/jo3e2PenqF3VNde0kRf6dPUl8s7rQI+qn2eeeUYxAmTzqN6xR2DsvFC7/7wB9DyQpxdbvTZP/u43pbol0PMYPV6hA+K6C3NktublFgjG6gUCDb3A0bGCi23PnkNkxowZct99d8qdnTtgk1NAjRtDvBkbKoel8iOs/FmVUHPHtqjr/a5GH9NM4WEZBVN2c1i7czYUSCTI43PcbDiu3aCto3t/IMto62ZDrKSlaXsvaqLXrt6FYMvDVQDzHj0ek8uvOCcA6AWOn/RMUd6QJVmZB+Gobq088sLO2I3Czp17AfIGyWefTZBbbr1FZTopUMDY8hmQp+Lg+bCZ/cNl67JS38i1kRY4/i2QI0DPFbZ6YaeXmOd9x3Nj3/8eQG8Ugp62lT59H/F5muUVoBes6yjkaXjNSPtUBw0cOFDlzXQXDaVCcIxF3MUlbwlls6g4m1UN9OYB6D1ugN4QnaBdHRGgd/yn+4l8QvhAj2pYpKuV6669FWrRf2Xsh2MQULuBqizVZJ56zFj4ufSdeSU9N/xjzgWCOfft7W8WeDG+Hcug164Nl2IZN3ufnX+uaUHgOQvabLw+m+PaBZ6BLF6getn9boGeynXrutvih2nfz1deoaecUg02jY8iteAppqo2YLI/66l/9D+Xt2RKOOM3K0DPOmF47rZz5sxDBp8esnfPXunVu5eytQwW6kmDvUDG1G/nEU5lI9dEWuCEtECOAj1lmq2IHxpJ0F5Hh1fh8cF7ZPRGIdTBtQB6D/vkU14FehQKVMu8/fbbapd43nnnKRUuve3cgyyAjdl1vNRJJ2Rk2QXFBXp48Hdg9DzV7RATYy+iuj0xfXIin5I1oJecJHJtuw4qY8TYD9+R8y9omA7oWSCnwVkgiPFfdDN2FPLaIZBVCwRZrvbBXdgDtRLWASRQ5WqBmoJYKsRGcJtBFwgGAgj9LMMYIYaaxXvDX3pfPvhgrHS643YEX35QihRVTzMfbfvogtJgvf+fBXq+XBT+AHrhwoVwbvkIttFlVYq6unVd+RwI7E7kfIo8K9ICR98COQz0rPCz0b/z+3ZP7787GUDvNag2rwYD9phEGeYnrwC9QDbBetsyGCu98y6//HLF6DG4ql0MrJqHwjfccBBH3/XH+05/1a0KBUVGb/Jcn9ftqNdgo6f6NQL0jndvnPjyA4FeoNrQtTmKUrEz27VND/RoO+WqybQjQuZAzwVWGb17MKDnXh+OCtiGUGG9rB0ebWzz58/vl/bMsnuuiYZ1DskIcFmgp/Ka0gnFvH7fPq/JJx9/hKDOj0jXx+801baylHaPBHrpzBn9muO/DPRUwGLYOzKtJvMm82B2lZ07dyKGaUEpXbq0csixhET6zcWJn1WRJ0Za4GhaIBcAPR1U0pfiiMIMm9GPx/2IeFUvS8vLL4Mt27NSWO1Wj1+u26NpvIzuCQX0Xn31VQX0LrvsMgX0dMR7BERgvhyKFAifcIR/dtc3+8sLorrFQwj0unXrrlS3r44cZEIaRIBe9rd/TpdogV6gobkL+Ow10aIZvVvB6P3jx+ilpnr3WxWatVfzf8NAlZ0NUmvP2+cGt6UKxagFOnAEu84y7wR39NplsOXTT68j55xzDrxxC/mxeKyzBm5qtvObA2QtiHXVgvoa73obk02kf9/RMv6jcfKYAnqdTXNoMxidD/W/DPRCsW/WDlhFaFdZK+wYYz9SDqcg6CdBoDah0eV43trp7RyPfqYFzg1dUiALmxkre/TP9+4M1lqmpcIsPpiZQJi3msuCt0bWyohcHbwFchzo6Wr5Az0K/WlT58NG4nk599yzVa7bMuX0QMorjF6w5qYdEON0DRs2TM4//3wF9OrXr68mtmuw7apsbQL2YAIg1w5qtZYatbyz3mtGbx6AXjcVR2/kyMER1W2u7cRjrVjWgV47AL1/APQ+HPcugtNqG700BfTskqNVmD5Gzw+zHRvQy8rbWsY9kO3j/L7vvvtUfMwePXrAueRZBfTs3LXPyOrC7QFDogBPddu/7+vyEYBe10CNjJEAACAASURBVK5d5JFH7zL5VCOMntUQZNanaaQ7SSwYitTtT31OO+ik31gEY5Qze1rg74HQ6tiBUlZr4F4fAXrH0nq5/95cAvRsJHfY6FHVgHabPn2ZdO/WQ6VAGz5iqFSopKl10ux6Ivvbn+SFcBwUGgyrwvyWlStXVqFVWrZsqfMhmjALtOOzic1t/K3cP4yC1dAf6NnI81Mmz1fJ3K+44lIZNXqYiaNHgcoy7G7bLuZ5880jtVbQxnwCW8NdJO3yEqUYvXZtAfT+CQB69MSgNzYAnl10w1Pd2vHH+31DK1u6JhCoWdmzdu1alUnjr7/+UtkznnzySd/zgtn3hVsZV3VLuWdjP/d9YTSA3odIF/eoPPooGD01ffzzAkdUtyFamZYlxiyAalu2MWUvB0uBAgUN+OOYsynIXFOU8ICeHd3pIZyZGxzWqnq03TTlG9OEQFvO3KJiD/1O4Y7m3HPdf4lBzHGg5xkas9lhsEWgB9XtH/O3ql1xgQL5EVOrt1x48ekG6Nk8jhroqWli1J3+wY084JATQyvUYrB8+XIV6Z6pzxhehaAn8GDwVNqKEAQy8GpeOyzjoZZ7E9LLGpCP/3CKWgRvat8OTjbdzaulGqCX9Vy3ea1t/jv1tWI0GHNhF0pv2dCq247GGWOMzxlDMd0q7A4WXbJ5Zr7beGhB29MAO18YjHRALxh/EX7PhJrb3MSR0WM2m4kTv5SLLrrQAXqerZzKhWoj7qorQtVHn/dkJINE6xy/PPr3Qfq08R9AhjwMVu9uw+hZ7YhNF/dftNGzze52vP7bPzSKOqX6guOMG2wetK3UHs4W6LljI3OQp2GchXfeXyqfu6+/udB5Gx1rf8l4kalQHbv2ntY5T5sD2f4MDh8zsyNUtTePNdGsVI1ChQL0jUyDQ12gF5Vu2LJy7mgOPq5VzTObgn7lqBqalgvOfLL+vhbnpjBgOnvtrn9Qy5LXRX6uXcGfEFCgc4ff9W6jBtxC+ZVTRy4CemwCCCcD9PbuEuSRfEO+m/wdcl62l2d63qN+S1OhWHh4jJ7H5pmdkh66Tk+e+OYNtRjw/Ouvv45I9r3k4osvVjkza9Wq5WPxmP+WOS6ZGm3oUDCZFSqkq3xu2d2FalX77kowaVMY1R3xhwUex2/I1KlTkaj9brnzLpviysuMYR1S8gJDe+JHVV58ojsn9bwNthhpoHcbgN4GFV7Fet1qBt+KaS6Ujuo21BzPFOixHkcvdN257Xr3cgNHj/rLL28F5v4TZLYorzsMj/ItkFzAbJP4VohgdbHnLJOpBSODJdujf5+35IOx70Bt+yAcnB5QQZT1k2xqORcYBB87uV2WHPuI9wd71rHHXTNUMG67ZPgNDdtBeqOhj8xhgB6lvq5X91qQl8+qgtWizw0u/+W6RwCvw7ykpCar88p5xwSRpDe3Z/cdfG1zYWSwdrN3+YAea6aArgF67jB0XtOeRghH33sR5HlBabynaZzjzvn0YzvrQE/XPNT78VcXdKqnB4A9W4IC7+a9bVjxwHbJvIe99vfHbpnfmVNgL3cBvSNaiFn259tJi6UbsiicdVZD+fSz17Q9V740SVU5azT74w8IbNfZgRdsKB676DjaEiyIoVcX2bxp06apeHr0wGVuTYaWYJ7NVatWKRUQF40yZcqke1xuF85Ud6Q3XhbZvCkO4PUlqLaglu/xqLS7toV5N091GwF6Rzu6cvN9ruDPDOgxvMrbPqCXmgZ2Qy0pFNAuo6ckhfNx3v84Az23pTleyQRt3bpVunTpopj6xx57XPr17Y8g71r+uOHWrEOJTaOlL7ArrVuypzZkDD1ucFU+1iidIoibpvvvfxK5d6cjKkEvuff+m83NFuip5c8WHnJw5HZZcsyj2sF5ZFK5cWCf2TA4ZM84rqKpD1d4zt7ggrys1cICEsWtohhIN/WfGvmMk4pzgHD4xnWMZfMbQR03xcyWIkqNnIzdTzQAXkGT6B21N9enB3oaTpm84mZWZFZr+4Y+kJQB0COAU9afBvNG41rNGRtY54dx7Hz3h7u2PsFhqinIucjjQvW7WbDnShP3sQRd6okKkHJj5LWAAtgO/LaacrdO9paM4Zq/zMkq0OPzcgLs5RKgZ5ubCVE9oPfn4t1y++2dpVTpYvLFxLFSqTJd3TlZyerRVkV7lenD7X6nvMxG+wn83RWqtOeh0TbzWzKvJnNlMmk6P8yPefXVV6uk6lqN4D/0crtw1kBPzzg3yOvSxZuRsulF2bt3N1Jd9ZSLmzc2re+pbk9gd0QedcJaIAjQC1hUyOi1vaaD/LPpH8Qxe8cXMFkzegYLGUHtzYecAXquR72ty5w5c+See+6Rw4e5mRkGudXRJ5b8RJSdyvakb2rrTaqWZ8YBQNklWps7zCkVWkU7d8z/bbPce++92BQnyTg4rzRtpr33/ePo2Q4OubQGCfp7wgbFCX8QgZ5uWwMaDLumZZVmenR3hG6vDCvNGIm82zAVBEUY1kLLP50eFyBPfaAeVtAOfeoDejrGIuuiPYEJ9JLh+RuDNYBULQgOlWmFgJTKZo/h8oEtB8rYt3Drq7YACnjqNyTwjOF6G2zpdIYOQRHvScG/Vp9GzsXeq6wYTZOZptQ18RWsB7uvff0xmNfivomi30iBSlVX/KdAHEqllshBcD5IqcCdvd7TAegzHhdIwBf0wP0WtEWAXvAmOqaznoG1AW0O0NuxTeSuzg/K9h1bEVNvMICBCaKK4Wbkvy/+kdfNbkfmPkbPbSymQfv3338Vg7dnzx4pW7as1KxZUyUzJ/hjlP5gQZPzBtDT09rmMeV7z5m9SgYNHKQMnIcOGyCNGtcy059ATzM9gSrvYxpckZtzSQsEAXoBNfNUt/6Mns7xqoV1bmH0LNBzN2D/+99XAF73wcmqCjzr35RLL73ErjG+BUgtWmZVdqWU59npd5ZLnc8ZIEp5GzOgfIxwn/vCC28iV/QoufXW6+W10UOEzr1khKKirY2eXiJDsp6m/XO7LMnOAazbWcchtHZvtnwNophajnH1bA7mjJd8PSo94si2JSgIVSxLScKfBHsaIGmQR7AXoz5W5ai5JjWelCewdgCxNnnuHGD99ZqgOUHbywbCmqd45+378U0sWNNbJ2URLwXIIoZqZAOeFEDEB2mWFatn7yWrx8OCR9sWRpKrdzCKUl9NQz1LAU+LDRVI9Pg3+44eo+dfCp9vfc15rX2+vsofxdoZoZ5lahWIc4PXMRBG6qsijF6owRPGeVeAdn14qFJxduv+gNz/QAdfztuUFD3kYmK0uldPMrfLbHdlPlnDqNIxXeLarLEg7tRsknM1USBYEhMTTXBO71H2PhtgVQ0sZZAbYldyTLXMvps1o2frSNsSXfZvs1eD0RusjI1fHDpAGjch0ONBoKenYAToZV8/5J6SXJMKbui0Ubxd19jzdHhsRxu9Df42eqGBnju/A+a4WXFCO2MoiZHl5glld8uCxowZoxyrmPFmzJh3YZJRR5evmAjvcMl5taarH9N8nrR2amsvdT0fdDq1VDA7Wm07e9ZfcluHu6RQ4UIyduwYOKqdqc5z8xulVl8Lil2gF/x1c7ssyXInZXCDaxbCvwnuYmNjJQasWbHi2umN60p09NERBAzXogALoYbqBvQdlqdknKSCmAetLFWvsH/Nd/aB2sRQbcu/jJrRmr+wnjYVpgZ5BmQEMHgZ2bDpUaZZOTKMLIHbhvzcHJjpYwGdqro5p5T/ZllVc9a0r30HXscyLe+s39+qSe3Id0GS10F+84L34YRazS1iNHVO9dnbKU4b1xiGT3mm6PJ8T8J3n/Zdnecks8Cdd3tt77uR93jVCuMvO6+yDvQ8G8YwHpONl+S46ta+i+oz1Wnavsuaeo4bO11GDB8h9erXQliSp6XuGTV8PavGg+1o6wbva5zcA/Tc/lKT2hjaZuZwECiEXcPvbBwD2V6UBno2d22MbxEj0BsIRi81LVlefLG/ND3rNDPXIAZVsnbjYMPpGLB2Z3slIwWewBYIAfQcAQ1NlVxzjfa6Hf/Ru1Dd1tdjwzB6GmRpcWxVb/oFPKHrE9zmtI8g8ckW80A1trIm2nVd/MP+2PkYHx8vL8GelmGTbrj+eqQ5HKNSaOl7TC3xTOVAzLlvhBY1ico0TNWHmx3rRKHtj4Mds35dBK/9nrJixSp5+qke0uv5rr7L3Ge5f2fU0f8VoBeMhaUmZfjw4crhrXv37n720HY9yrR9XFBikHu08ow2/RcwPN2+UMDLGYbksHxsGAcL7iWwS8O4UCG4lP2edljUpJcp3AdUvDFjLvE9jr9YVs5Vv+Y34JQqUZ7HKOQKrL1SFQN5BIAwSoFCc9LfCyM1TQHZNNbTADwNYPX9TvP4Tc9g9eM90ao+Gq2pjDNAoUkoG6mwVZkIfCNUZEdz8vCl7G5JG/A7cwG1UcXYWIgaYNtp7wflA9jDjOaL/i0C9DJvoxBXeEJUqyuionTe2107RJ566ln57befpceTj8iDD93pV4I3ITXd7R0ZzLCjrmX23Hg0gM0V/JkKn+yp5lGXohYsAD3dHUwDpYua/etK5PcdqPppKBi9JmfRrkjbIWmWJwL0jrrRc/WN/kBPCUqzAtj1kKrb1le2V6YMn342Vs4+p555I4absCtbYHgVf6Eb2AQnitHbsWOHylvNYOgPPdRFpW60rJALuPgeVmUYTQcLThODCbi8pmHRpE1WugPXbd4cpzQbQ4cOkS1b/wEweVwefvhBqVylrI9xCTYELBYINTxyuyzJrmEdDDgvWLAAtpS3A5SXAzM6VjnG2UP3W8abAR9wMMM5lXIPACRGdSo9KsBzJQOi5Ac4gw22Ki4BA52/FUA/459EMw8sk6UZJ57Uds6WhVS2qgR6VD2rVHhm7PttCJzNAf50WTbfexGU8RkKlJFF0+9IBwGt/iTII2jTcEbZ8eEbmT+lo+XzrOM35yXfOQY2hSgvRW1i/P3q7fqsbQq9sCcW6JmnK3BnnVX4jhzUqckpksJmhENKIn6HbkgKK6DHtcXIFAX0WC+0p7s3ysca8TeeNj+oa70RpVhUszjZ0z6ZkQ6iuiPRBXoulHUrEHzkRhg9w3IRJGhVpccEff7ZDBkwsK9UrVoBgm4wVH56QrKvVTMb5O6pC80kOIloobwG9NgXqm+OYHr6Ab1Bipl5cWh/adLUAD3lfabFSkR1m11LW24qR4t1LRI91ZOapUY2QpsPe7MHZfGiRfLy8EFyw41XmhfQzLBmwr3Fz5PqQdRsDoi0aqf0oiDjRTxo63lqB73MmsqvWb1aej/fW7788iuETeotvXv3hpoVVlgObcE5YBk9rZLT7B5lWDTdMO3h/Bl3SBBAepd88813Mvm7qbLxn42w2xXp3PkWhFS5V8qULaXu0k4GBAGG7DFkh699M1h//itAzzav1aYQcNPxbcKECcoWmlEOCPh0e3pRAzJqH5chUipMAgcCPQ42UnX7D8jaX36R/IiJGoMBnoCUarEE8mXLSIPmF4uUKCbJOMfesx6s3kDwQrJwIKl6+8YcO9qkyrQ7CXeAm/5W2IwfMy5YtrIRNAOTM1KxcASQZNIUxYwrrMA29yOEvxQkqEtF3VeulcWz58gmxD+rWK+ONL3kQilYsQK3KbBFxEbFADIrx1X7cbyb+rlWexqIGTBGVs3U0xdECP3AoNZkCmwuYt0+vMfwkvlQ3/gk2fvHUlkyc7YcSkqUBpdfIjXPbSoC0warLFcWfyr4upoq2t5QgVIdsEi9u2pW5N02kNQHEB2AqmGjViErT15nrvkjzaASRNU9g1B7oW465vO5RHVrhbge7qmcJOh4nfBeZMf2JBk18hV5/4N35JZb2svIUS/6vbhmb7UxrRpPSoZb6ZY5yj7mVsxiAVZ4hFLPHA3jl8UqHNfL/Wz0HKA3Z9Yqw+ilyRClurWeghEbvePaITleuIN4fDyBrpSPkMAlr77ykbzzzhhpfunZ8lyvJ+SUU04xS43JikMPVApXP5rKH+i5DJqrunWbIGhELnWxe1V6IOju3dWVhg1YtHCh9Hz2Wfll5kyYJAxFTLsnfC+mpI+L4/gYRfzonLTR0VpzYY8UED5r1uySv/9ehby5C6HJmCsb1m+Ec1ZJadKkkVx3Qxtp27alFC7i3cPFMJ+y57Oyz/stwuj5D/5gpjM8R+BnQ674jQIfkEo/iVxDfOWQQOBAXKKAN8bl/kOy9J13ZQ5iKibu2StxxQrLoTIl5fxbbpLWnTuJlC4lCVFa5WgVj4EzRW9/td2bAmOcEehUMm8WINIs0y57iufCFwtAWCfa5PHDg1aeBblhQlkpqCwUwixRCioXV8yzw/ESt3u3xMcnSP5iReRIicIShXoXjwFoSsonm8Z9Ln16Pie/714nba67WR7r00tOadpYqX0TUBrfI7/Wmar6USXszlcFLhX4M5BJL95qvqTgQ1ZR2zGmSQyAXn62Dwvfc1BSDuyThHyAYYVhU1myhOQrCrtKav527JGvR7wuo5AqdS/gZtfnnpebuz8sBeDc6LUsvYQx34j30DgJeBbbhO1aCFchtoWqRyK+J6n29WcmvXwzequqPacNQFf9bRo+/TDxPxMkmHNmt2TH77kA6NmhbSYHm17ZsnCnqwctj9WrtmIne6ckJSXI+++/D1ZPZ8rwDg0WeWjvPH/mIDsa63iXkRkAPN7Pz67yQzljeEDvCIBevwjQy64Gz/XlBFu+7NKk2S0ef/25HWxYL9m951/pP+AZadHiYmPC4YE5Lk0K2KibqOKhjAi+mfPUMAGy1kgJ9x9Xjui/g5UZAPWMFfvv8+bJM888I3Px70svvQy2DXZzAbdbMtBWlao4OltYa6bkBJFly/YhmPhkWbhwAZi8jbJ//z71asywcc+998gF59eV/Dq6ijFNMko4tU567egC1gjQc3rWbBKsI4ZNO6nb07Odtt+tA4T9Hrgx9wE93KuAHvpTgRQDvBVa+OZH+aH/IPll8UyJxdc6VyFs1uMPyxmXXyYpCJ0VrwaKBhoKxKmPZSz0MLLAwvrZEnSA1lAvpsKcaHM+dbjsHaEgy0vGIKDnL8spjHMxALVqAOEEvYIJzICfUCi+bNkh08aNl4V/LJQLr2gpLTohPmO50rpwAD35ab589MpImbd2pTRtd6Xc/NC9UuIMvRYnm5oz7Iqtkc8tSOEoA4jMJFBgVIkGfT4FzHaSqTPrSlu8GEZjYOWn/SYTJ3wq8aUKyMW3Xiu1wCRKCt6ODkrQjm8cN0HGvzpadsbHyg1PPyrndrxOkHUAgAyaQfUf35Ogkk8C0ENf0e6PEKOQahNWGUATFybgO9vXRRDWMEzDYQP2iFEM02qaP/N/2A6ZX5XtV+QCoMd3ss1Iwa3d39VZnHacjBCEdDio9s+kY8eO0q3bE/CU8uLoabUtdwtan6tjGQVfALK9FbOpwJMP6JlpYbqBQI/OGOzvwUMs0GO/WUZP92eIdTubWjlSzIltARfk2Sd79phqX+9bpUSef36ETJr0hdx73x3y+BMPB6kqDdOZIopywgJASk9TTrhT3mI230ITAOKCNlJwoLd08WJ5rmdPYerCfv0HymNg9PIjdaPCcZooMDIpuEhatXKfjPtwonzxxUQ5ANbi1FNryBlYPBs0rIdc3w2lYcMzkevbn/mz8yQFi531zgw2b1RzZNAm/yXVbTA2z41o4KpsyfDxYL5xHq5JiR0F6Rk9bYkWZccib/xzvezvN0jGffW+7MCvzZ94Qq7s3lXynVJdL3AmlIvR5evOsujc9pt6EM+bzrQqSKvrtFPMbn4sOqRDnBqDWs2oVJdKBUvAw8WVL6jEsWbN0gAb/14jbzzSVSb/Pl3uuLGzdHhzhEiFkkBxuCARF++Nhz3BvyKH9urzNauJlMK/gePMsHbwvPPe0c4p5YFk1mdHnapdkbkAEAZYqz1cB4ScOmKM9Oz7rKRWLi8PDO8vdTveqt8hCf2UgM8+RBBftQ7f40TOqC4p1ctJMmIOFVRAz0xE2kxaJw717qZNeU71g21wf0CqJ7BBaKY9dX+ZF+Lf6TQCQQVIjqhtVddgcOcEwLQtZP7VQE8ZJ0PnrmxNTNv7xgSumDPrT3n22Z6SkBAvb739hjQ7+wx1v7Z9wQ4ZHaf3Rdyd2YYOV/IH75jI2ay3gBswmfHxrDPGnFl/Q3WrbfSGDOkLZwx63er9qY6jx+TiEaCX9RbPjXe4YsX92whdn4zUKkc1h/GZ8Nk3KuDwlVdegcwwfXwefkeg6tSyVHvjKaN0tVgcpw1dUKkYAPSMaNm6eYv079cPpiVjlTPGSy8PR1w7Y6NHIRtCBG1cvx/aiQ/lp59mIoj4foT5iJaLL7lIrruunQZ3FQv7wkm5PWzt0Lkw6rBE+gi9QcpBEZ+LhqYFesomzQglGzNPebeqMDY26oOueNA4pmxrfpxmVZkjDIWswn+ohQmflRskYfBQGffp27IJHNWFz/SQq59Gju8y5eTIyjWyY+M/cmjfHklNipfK5ctLifoNAFpiZe2SRXIoJVFKVa4glevUloKnAFBh86AAkgocRwAUJ3HLlskq2IgePBQLk7Si8BwuJzXOOEPy14VsLapy4jFooAZqBDq798uBeX/ImhUrJa1gtJSvXlWqlC+H8mviQjg9TJkqr2P+rdq7US5perE0bH+tbEc5ZcqUlXOqI2TQfgC9DeslASrdQmfWFoF9nuzaJ3tXrJYjCHUWX6yQbEtNkDKVK8qpDRuJbNsu6/9G/fbuk2TYz1UqXwGq3rNEquJ9du+RpOUrZN2q1XIoLk6ioSouW62y1MDmRiqhXL7vYfBusxfLn8NGyyc/TZCiZWpJw5vbSomaVaVkmdLSuEFDxfqlrF4PJxgA1aKFZF+lUlL8nEYShfZQLGgyPgdiJWkZnrVsOebaXimEe6ucfqpUhjmEVKqo2ynuoMSt3SD/LF0uibGHpFjpElIeGatKloXtZlyCbIc5xY7Yg1L2tNpSrTH6qXJl9AeRslZHWyeSdHbmDk7MqemQg0DPlX5a7aoXeR1nSwkuNdHMH/jn4AGRJ3s8BaPnifJsz6flqae7qOu0zYuORaWFv3apNtMxp9r2P/tcBfTsjsxZG+l1axm9IS/2heqWlD95efa/CSUaAXonybixNEPg62igp+e6Z1fGq0mezPvtT+nZsw9shFKUh+mll0GgqkNvBjmv07ipM4yAz/4n8HEu6rHsghIWHjPiB3/MOFXbRKPGy6wj6LHHxyTCk5L5qfv27YeMNtco79vKVdLnqOZ6m5CQBjkWL0uXrJTPPpsI9vJrBEovLh06tpfWrVtJs2bNpEjRzJ5s66jbMPQRAXih2uZYtCe+lSUI0EvH6C1bJ/tgtznuk3dkY1QhubjnU3ITwuJQrSi/LZGF302WuUhjt2njWml05hnSrk1bid1/WKb/8rP8s2urRANQXXLd1XLpbWCwatXE6wC8HYKXzl9rZdUPMxTI24rQFFu3b5fkuEQ4+BaQFm3bSst7OoucaWygqeKMIxO3RdZ/9Y3M/OEXSUHgyriUBDgvHJbysBW85drrpFTZ8vLXj9Pl1ymT5eDBXVK9bgM5XKWirAIIbdSkiXQ872KJ/XOFfPrJx7IZ+uLmd3aUNtdcI6nrt8rkN9+Xf5EG8HCF4nKgXDFp2a6NXH7rbTA4XSfffvSJzIJTSnJiklzX7lppceONylHlj9m/yVYA3R1btsqWzZvlEAic8lUrS4vr2sp5N0H1ejqInE0bZcv4ibLioy/l978XSP6y1aVI4zNl44G9Uh4g+M47Okk07vtmzPuybyOgdJVKUqNta7kS+Z8LlwEQA1iWvQckHo4a3372hWz/Z5MiDWOgNi9Robw0bNlc6l1xicTURzgnbCbjps+S7/Euq5YuBRCOkdPq15NzGjaWYslpMnPaj7JozSqp0KSBNO/QXs6+AXWsUEXJJuVWYFS6uZGtyCVAT0lXH3Pq2Wd6kcwJzCkoZ8xYIH379JWdu3YinlQPue++jspRSC0FKl2Gnn1uLL7MxWbkiuxsAe6KdXgJ/0Xo15l/IsfvYHVWAz0ysjSJ5QIeYfSysw9yviyLvALZPDU7DeBiiBG9bBKvcKMGmS3vvvOx9O8/TGrWrCWvvPKiXHSJZu7toVMg6jmucY5Vo1i20DzTMCz+bWHGpKN5ochwmWQrf/RDnLsD6GZVZ/P7J598jnAnD0udOqcjYPLb0rSpzuLDg2Jp3brNSHn4NezvFsvWLTtly5ZdkpSYKhdceK7cd//tyKRxLgIgBwmtok3azcdjQzUYtYbuwXrbtruz08r5QXFS1SAYo5cO6AGQ7QJD9sFHGuhd3v8FaffgQ1KAdm87YZgJj+p3hw6U39culcoAaeeff5HUPu0MaCNTZc682bCFWyE1a9eQW57qJvU73w4jOzCBixfImGf7yOIff5YrkCbzqrbXKBA1d9oM+fnHH6RUpWrS8rGH5fzHQIQUpQ0bxsDSZbJi1GiZOOk7qVKnrtyH4N779++VPv2el037t0m3m26T5h07SNL8+TIBNvBb92yT5q3aSMUWzWUf2K/atWpL6cpwjvr6Wxn98jD57dBuubjT7fLwE2AnpYis7zdU3vt2rOwBK9isw03StuPNUvmqNsoUa+tbb8Er/XkpX6Uy5vUAeOlWklfBgM+dOUvuvPEWueaKK2X7uvUy7Ztv5I+/l0iteg2g3n5UGtwBoEiQ+uV3suK9j2Tqr1MFFKQ0hjNLsRrVpGjJ4tLgogsAGvfJJKwrM76fChavgFyCsENtuz8hBauCcYRn9f6xH8sXH3wo/+7YLu0AMs+54ELZ9edy+RIe11uS46RB+7ZyA503amPObtoke155U76Z8Ln8vm29lK9QSa5o3kLOrnmarEEbTvppuqxJPSx1LzxfOvd+Tqq2bAnsXRB2kORxtbOHvwo4d2gUcw/QCxABesfleNgRuEzvVwAAIABJREFUBxqTnK+/mil33XUPUoVVkE8+/RAqXOuYAU+iFAAHtG20Qn+RcB05IVk1o8duMDZ3xr7ki88ng+14W2oil+9zvZ6WOqfTq5L9bIMrRzJj5ER/HZ9nBgK9QIGnJ7Ni783ctrhs/940BLJ9HSDvNZVhol8/LI7XnRe0mir6l8mqklkAcltAIM+lvjvYUNcreKtYAs1iPvtWM36eJfci1+2mTf9K7169pM8LzyMhvS5j+o/z5I3X35S5c+epFGklSkK1BC/ay1pcJp3vul3KlgsG8BRENJWw9kNsM81q+msrAts2wuSFO6YDmT3XZjGz8RQW0Fu+Tna/OEzGfjRGNkQXliv695U2990nBcuVodW/yMw5MnlAX5k9d7qUK1pSrrqpvdTvdCcYv1Ky7O23Zfz7b0hMoWJyXQ9kXXkCwK1cNUlc+ruMeWGAxP27TZ7o+rgUvB0evOQ4Pv1cJvTpJ/M2r5DG13aUm18cKEXrAexs2y97hr4kY0YOl/3wUu3Uu6c07PccAFKczBo5Sv6aN1duuuxSqUCGau5v8tFzvWTRln+RfvQeafR8L5FTUQaPw3jI2PEyBQzlt5s3yJmdOkjXZ54VqYeN2EeTZcKTPWTG7lVy8U03y2333yMxLS+HB0R+2f/G6zLgleFybcdb5NK+fQA6/5QXnustMQBxLzwGoNjuGtRxn8COQd4aNFB24mWadX1ILu36sBSrVlPZBCb1GyIjPnhToqrVklsG9ZOaN1zPtFgAvoXhQLJFVr00VL7Gc2IxP1o88Zi0evwxqIdRbzB5n3ftLr8s+13qNjlHHofJl5x7tsjiFfIrbBHfmfuTFK1WVR4ePkQa3YL81Iewifz4C/n13ffkiz9mormry4P3PyCVbroFwSy3yi8jhsu4H76VMtWqyP39+krdW3C+WEmT4g5aRUw9Bra2WVJCSJFwh2e2XZdrgZ59Q4owZa+Jj7GLVfKvS5c+iC/1DQBfB6RH6yLlypcw6l8tHCOMXraNkaMoSIM3DdR14ACq1194YSDskX5Ryd/vwG4NG6EAJkUvYpkJ2KOoUOSWE94CmQE9zU6R0bNOFWTsyZARIMXBtrrXc0Nk7AfjpX6DRnIbjK8bNzlDTqtTAxs8xBbJHRtlv1YdOmwk1M1D5QwE3n3nnXekfv3TZNL/piMG6GCoprbB7rC13HjjDTBPqoJsDGWlSpUyQW3wVKF+RBxtxzzmUz80FzbACR9jOfvAUECP3I7vWL5e9gLoffDR27IxH4DegD5y1f33SQH0v8BvQBb8Lt8P7C9TZ3wnjcDk3TsYzmo3Q7UZmyBbR46WsYNelIMJh+XGJ7vJuT0egT1ZVdjEbRXZvgtxUgByqDoshjAj2+AcMfErmTjsZZm3fZU0an2TdBjxkhQ4sxY8ZRfIjwBkv/zxs9Roep5c1+dZqQj1qArefAATbf9+HdSZ4YvgOf5u7xdkLjLUdOp8t1w2BPWhLRqPeAjx9z+WGYOGyNfb/pHT77pDHkFGkaiGIFrmr5GlAGmvfzteCleoKj2ee0aqQ84L1LnfDh4gizatlyfAHpZsjviYYMr2wHav7Ck1wDiC2SyA+bxuIwx0P5exL74o25A56cxHH5JzHnlQqtSCreFB1LF3Xxn02suSApb/hsH9pdFNaCO6oJNR2LVHNgLoffvaSNmLd2r91ONyfg+ox4uXloR3P5Kxz/WVrYf3SRMwkDcirJeyD9ywSbYOGCxvjftQNoP1vAEByNt1eRT3AIDDpGIaQOOXf8ySGo2aSE+wkVHt8byD8fIX4mW+9fabUrRsabm7V085o0MH2FuWhV5Kp6+LUrE+M0pT6rHyJ3L05h6gZwRboMmJdrRgk1h1oG6eNasOwl7vSfl71VLE1RsKIdrCp8KN2OidyCHkPMvXhzSZh/G8EnjaWzAx4Yi0b38L5v1WFYW+YSOdC9TnWc21zdhGRYBeDvVftj7WAr3AQi3bpAUeU9+pf3kZmT2qQ40pxuZ/D8p4hE34EqqbDes3wDmhtJx1VgM5++ymcmb9M/F3UykOGyZuAGkTnaG5mluNQMKLVXAYvcByfOyeuc7FYGoDajQNy/7aAlOSe+SvZUul0+0dAeYqyv++miRJMIR/Ap649953O5w0Mm5kXxB4XobnaZZTt6W1a8zWbooUdtQtkCnQY7cB6B0c+jIYvTdlPYKbXD7gBWn9wL0AeuUB9ACs5i+Qb6HO/PGX7+UCME4dhyFGLMKaCJxzdoz9VL4cMlx2794p13brKk2eBBCBDRq8GnRYER6L/pTtSIfHT8ryv2Xjz7/I+tgtUqvVDXIzAInUrigH3/hIfgTT9/futVLtkkvlUoQuqtH8IjiP0CfVlMO4jju3CyJzy+gBQ2Qe7N1uvvNuuQ4gLa1qVeXypNiuDz6RXwGQJu76V2recafch+gXJZoigcGG3bID+Z5ffglALTVWBnbvKTUff1ySf/hRhr8/Rk45t4nc/gJYxDKs/0HUv4SW/zN/lq1r1sthfOKhTl0ydSriDRaVU+6/W87u9phUpnfyrv2S1ruPvDhmlCSceqq0HvC8XHjd9ZKvIIxZuSvcsVfWDx0kP7w+Ug7CC/eqJ7tKI2ADKVBUkl57Tz4FG7gbnVUPQcavhueulEbbwyZQxnwAb/cPZdb2bXLuLTfL/U89LQIVrUz8n0we/Zp8vXieVGncWB5/5mkpQy/fuCRZhgw4H7z+mhQtUljueOpJOb3DrXIEziyJcBxhqjgd/tqbs/6Dy4K8E79Jy31AL2DaKW9otIs2wNZhGezxQu/XZeTIl6Tnc93hnAGq1nfYxiaQoJOGd89Rz+rIjZm0gF2I2F+Mt06gx0OvbBvW75Jbb+kABiMKYSQmYFOFnZM52Lc6MlHkOHlaIEygR9tMg5xsZgcXaO3bmwBt0hL5BarRFSv/kn83b1JjpUL5ylCBlpGiRYtD1kcjigMSv/vpW/0osYBmDdhV2w2KucrFgWoM+zl2KMgFD9kY/UwGdY3JL0WKFIF9+X75ZtJXsJVfIwULVJBi8AAkIH3ssa5y7bVXKQY7s8NG3OAj9WNdDUVmd0d+P5EtEBhH74haZzB60GVMcacOhFc5PHiYjJ/wtqwG0GvRv7dcCaBXqCI8PQ/DzGje7zKlf3/54ddpcn7Dc6UDAIu0aQWP1L2yY9xn8s3QkbIfjFXrrg9KI9iRSQ0wemTiFi6RJd9NkXnLl0uBMqWkBrxti8FjdNuMmbIjbrtUAdBrB1tRqVVeDr3yvswFM7hyD8Zls7Pl3EHPSJ3WrTGP4NWN6hakNy7ZvAN7YIM3SUYPeUnmA+jdCNVt24F9JbXaKVqKx+Pi9z6WmX37y1d7tkrNO++S2x7pIhXPhSMDfeo+nygvd+smy3dvloEd7pGq990vv370sfy6aoXcitiBdW69SbdJLBjEWb/Kz99+J3/DY7081KO1S5eR1CV/yYrvp0ha8VK4925p1u1xsH543x1Q64LRe/ndUXK49qnSakBvOQ9AL6ZQca3m275H1g0ZIDNeHyWHEDqmTY+uUo8q5fwAgqPekc/6DJANckhqgaG8fsQgeNyi7TcjRMwHH8v/PhwvP2xYJ02QGeVBqKzlNIBWvMd3o0fJt1CRV2nUWB57+ikpfTuYu4QUWQGgN3bUKCmGrBud4FRTuxPsCOG1mwRcQiYXkogCQ2/OfBtI/81tTrDxuQfocQC47eH+zZ8MJerLGoH2nDJlrgzGjqNMmeLS+4Wect55TXzz3E2GTqB3LF5WJ1J45N1nWbUr34B5BnUcqiioK3h8+vE05YjRCB5Tr49+VUqXtaueXixJwVuwFwmxkndHgVfz8ICeFz/FuzMfDV189mk2sSY3C3tk+vQZsmTxcmTLQXqptQhNcSheUhBXLxUOGvS8z5wNtrvpLOyqQ8gl6/FrA+9GQ87kz08hn4jsFsswBw7KA/c/ClvD4WF50qoWcFCmNllx076dDOPi5HmHkEAPYMPmOpZlG+TwwKEy/vO3ZQ3g0qX9exmgB3VoHIDeXKhuweh9D0eD8+qdI7e/NFjkGgA9gLudH34qk5DxYR/+vqLLPdK0O1S3NWHXvHy1zH55lPwA557SSEN2Y5f7pUYzhCyZ/ov88vJIWb75b6l++fXSjvZop+I5734uc8DCLdm0VAqc1UzOH/CsNLz6WnSECb/CLqF36j6og2EO9Rrq+zuAXvtOd8m1A/sCXNbQnUYfqHc/kWlQ7U7es13OuOdeueWRh6TcWSYv9ZI/ZcYzz8kvP0yW6xtfKM1uuEnGzZkjaQBCd8EJRWqCzUNIGBiryk+vjJBff5ohp7ZsIbdBzRoNJ6YjsDH8pO9AOYCpWbfLQ3L2Y49IyZpg9HYAGD7fT0a886rE16glbcCKntUeoJFAj9MYQG/jsMEy7bVX5QDs/to++bicCTtZKQCV9itvybjez8tGgQPFHffIzQB6UeVQD6iOZfyn8vmYd+QnBCdvcRdiBhIcVoQqnEDv9dHyLRi9ag0aS7dnn5ZiBHpJR2RV377y3shXpRgZvWeeklq4D7nzzGrnr7pVKlzr6aUaMMLo+a8P9puRxRYcWzLPAgHa8YyBW/WQwYPlElDRY8e+gyDKdvBquxZGn9chGSg1radezujJTx4RF+xN7MJuF2n+y/AT+aFm3ysvPD8Ikf//lEe73icPPQwa3BypiLkUhV0ZU9Vob8eIjd7JMU7c8WCFnItkOAcdz2wDcBS5BkY4Xz6dtEmTdMgb4DD5CBkmu+GxuG3bHgQYhhBQ4lQzeoq99zkruC2ZfbtqlXmH2gWlcmYWHq1pYHDdAgWikL3nEOzK35JPJ3wgFbAIPPJoF+l4283wyIW9VBDbuhQsoCSAFIPnY/LwGjRbUc8K2PWeHAMkz79FyIDJxmhFvSCA3kEweh9+9hZYpYKw0Xte2iCbhBBsJKLjEdNuWr8B8u3PU+ScemdLZzJ6yDhB1e3+cZ/I1yPfVKFHrupynzTrDdUighOvf+Nd+aTPYImJT5Tbn+kmpzwJbVZJgJp3EJMRIG3JppVS6/Jr5YY3RiFECUDapB9kfp/+8tPSORJTsSqAUm9pAAcD3yZrH+z7DuKTD5tz2AyOfKaXLFi/STpe317aDoBNWwMD5Og88uHH8i3CCE3fvgXOGJ2k81PdpVAjnXteEA8w6b3x8jUcRXbF75VKDS+QhHp1pfHVbaQB8jOrY/kaWTx8hPzywbtSCnGEbn7+OSnWAykDsdlPGjFKxgPo7cfAPwOs50WPPyql6sDEB6pZQf1fenukJJapIO16PSONO9+lcgarY9su2Tb8JdjovSp7k5Kl7TPdpcHTzwAIsk3GyzjY6K0Cy1mn3Q1y1+sIAM2YgTt2yu7+sNGDA8j2IgXllie7S/MH4exC8DjhC/n+9dfl64WzpSZs9J546ikpTOYO8fj+gbfwGy+/DA/5wnIPHFVq3Hu3CpWj433AvMysX75cvxGgF96O2sfuaJymA3rTo9No+jb9sxf2MHfJ4sWLZOiwAdLl4buNyoNBeMks6XRo2gvGRuTn6HBCM/hEjq2Tq7zJ8/Iom1/A6Te1KrN4HQdRa8gts6fDpfD44N2pAHqDEUriHHlpeD+pURMT0BypqYkO0Is4Y2RzZ+VgcYFAL7AqDtBzppvFaPmiqM7HZk0JTrK9AZ6p1GjmYm3/wj/WyKhRI2Tc+HdR0RRp1aq19Or1HNK6NVcN4bLWKioUp5LR/NmW0s3iZb4IzGIR0VLk4PBmf7nsK4ZzCj7swhgbq5FjdN5SWQYG7JOfvxFwSNICAOu6hx+QUgj0S1WgTJkmYwH0Zq5YLA2rnCpdej8rhW8DKNq9S5aOel1++XiC7NmzR866oZ1c3/95sGI1ZemwV+XjAQOlJGbFdXd0lgbXXyNpCDGy7Lup8jdYvfWxO6RgPcS9G/myVL4Cnq+r18qOl0bIZ+/C8xeQpPEFl8n1cAgpWLG8LFm3RtZtWCPnNm0gdW/HBnzBAhl+W2eZs2GztKtbXxq3b4/YeBURmLiBlKgG0AhV5+ghL8qqI/FS58qrpT08Y6u0vszYDKJBps+UeU/0lI+Wz1Pr7lVIcNAKjncFzzxTdxacLqbD0/bXKf+Tylgf2qA9al7TWrasWSOL/vetrP9tnhzEhqlIq+ZyDdrijItbAEDulcNw5Htt9CuSiBA1TRG779SzzpJKtWpJ2SaNwRIelFWwR5zx0ThkHxFpihh31yP0idRvKvLLbJn6TG+ZtGCmFIa5x1Nsk1vxnvDGHQev26krl0mdc5rJg3CSqdIa3r97EKz3rfdViJmv16+QqggJ0wse9KUfeAh13yCzej0v73/+ibI87/R4N2neFSwr7AZ1wCcX6BmnDDvZ9Qx3Pid27OYu1a1qFNMALptndN3c+fKgsbbPAxffv5z4E+Lz9Jfk5MMIovy43H033M3VQeDAm3Rh2vDfrg4a6PmxSOk2zp7dWfBuCQ+sntguPb5P0wyLifxux64Z5NbTVmUDNEh8z64j0qP7C/C2nY2Ass/JPfdf4VdBq5rSWVH+e+15fHsrJ0vPAtBz571bZTMcyPBpweCpcXPyzcJ6Nqq7dt0m+fjjj+VNePDt2LkFXrY1pMOtHRAYubWcc+45Urq0t+HxlalYbZOpyaR1tEaM4cyPYCnNbIq0iLNTWD0X9kWBzhjJFuhZ1hYOaMmwefsGnrCLF8+RA3AOKNv8Qmlzx+1y3tVXqyDGOz79TD5FyJI1a9dJKbC/V9/SXi66E/HyANwmMPTJzzPVRrjiWY2kLUKOVG91hST8OFM+G/SyrFo0Hwk2KkmdJg2lIjI4FIUjwgZkf1i2bq0kIY3eVWD6LuyAXLWUxb8vlFWIJ/f9/6ZI7IFEObVxI4mpVFZWHkBitpKF5abbb0FYFzCN29fLjKd7yYzxn0m5UsgIUaWq7IYH0TVt28lFzZvL1q++Uh7l+5GFqvLZZ0lzeKM2u+EayV+DWY5wIA3ZyheGyKjP35PClU6Ru0YybEl7/EBohHokJ8q+0WNkwrAR8u/2jVKtVl0pX+90KYD4d/lj42UjMldsQBrAKGS2aPXYQ9KKYU2QUUM+/1o+RYaRdev/kTJVTpEjhQpK+do15er2N0ixggVk5vjx8jscPw7G5JOyLS6RFmAEGyMItCSmSRze+0PUeRVCxpzf8jK55KKLZMfa9TJl0iTJV7akXNq5o1x8B71nqRZfLmtfeUOmT5smczavk5JVK8qTcLqoCUdCmTNfxo96Tf74/Q84ghSUupe1kEvB6J2J8DCpKkMGw6vYkEg6xmVEdRtEhRFyhjk7J2KBVKWShUOzCt0RpZyQPhw7UV58cRA83OKQYPxJ6QRauWQpbR+mwZz1YPOMm61Hm6ZZA1cYfeL42YtlxBoeLeDJjIk82nJt29jUcjbVnMJ8pp24g7H6NwA9g6cnfDILdpTD5LTT6sigwX3kjDNNXkRTpO6bcGyrwpa/kQtzRQtYoJdRZYzq1jDDaiiZTZ2/eGDasxQN9aI0s4clVDH2eo9sdsphaTjtHOAuL4sNZeum6okvvunkspNmc2iM8ePhqffd5MkIAv2u/PjjDDwyUaohvteNN90AB41rkcu2EUx8SgWtiNr8qKXCyqfM528E6GWxT4/icqvISO91q4xVPKIZGVA2o+//RciS0gAyCcWLyc78MVIcnrMXMNAuFq5NACcbwRRFI95cGsZU4ZIlpE7D+shckSTLEby4KHLFxsCjcy/sVssic0ajFi1UjPn4n2bJIoDAXXt2S1kwc2efc44UpiPBhn9kyYrlsqsgHJaaNZa6SKVXqDrs3Oid+tffsvf7X2Tjor/lcFISgF4Z3FNNTgWoKo7rBGpRSYJdBDx5t8KpYzVAYzxCuJSF/dy5CDKMHGuybe4caJX3SRIcoA7D3TwKYUZqXnSeVIJ6NyoKzg+xhyXxy8nyPbJrxKDsFggGXox2hSbMlgJ8UAvv+vZ7+Wv+7xKHOVwCGS4aI/NGifIVZeuyv2TJRngqVyoN278GclbTpnDUhUPGzr2S9MNPsmz+Qjl04BAcaosCrDaQCucjJt6OHbJ+4SI4t8TBvi9NNheIlpLIaNH8MjCN5WFzBzU4vZsXLVwom2CPl5iQCGepgnjdCtLo0oukFDyCmZJOERW/L5GV30yTVADSWDTZvrQkhEs6XWpDhZsMcPj3ylWSCC/6JPTVLszLsuirixAy6Uh0fqW6jXIcwnz+BH5u+1bIHcXAO4ZbcpDRC/+FXRs9vdtNwqCikCeK1jZ5e3anYPf8CXYb78q2rdvldgC9p6Fbr3qKBntmdVA5lpUNkFKT0DvUyGuze1Z2N6DeddR5MlPmVgLFgCrr/rOrRTirhhXUmS2CzmIUVueGWwe33FCLhgVztmU8JwvaO6o3Nqye/deepBG9a0vF85079ZEvv5ogA6B2eOyJ231BZO1r6cXMdoJtl8wXtLCaJXJRDrZAuPPBv699OM85rR2rtDebSjummHrt8OO7jPPV9y3cTZQ7H7PYVH47Q4I+UxbGs4oUALWDFfTJSWmyYcMGODROQi7fCbIImQ14VD+lltSrV09aYtFvfVVrgD6b7i3jugSzY3XPuSpdy+IFzdlqFqBQ4DCLLfKfuNwdWWp74W4uVHgIY1PA9SU+WVL+3SQx1M2XgT0ZQF4y1LDJaPcizBHLa/FdHfDahkpKEuPjEDmlgLLZTEuA/XIh+LuCPToSd0jiY6KkCPOuFsCaxthyyB+r0qGB3RKEQJESCFlyGIZ0AH9C5yQCMdif0a5P2TzFgxE5hM8uhDfhvSUBzGoDhCHDhPK0YD0RUFkdu1EGgn8DgcKmDUCRsfoOAjDBDg8u5+qZyXj2QQDSKGT5KFSurBSGWlXl1IVNXQJUz/HI91ysRmXJX7gY5iqjMHDxxouhXWQ/ACXyzx4BW5evKN4dnr0EkrJztxxBrtN9SDFxCJ8icHooRxBGoLgf9d6Oeh3EO7M+SM8mhbH+sw0Poz0YVxBM4+HDsRKHf8uDjZQieLck1IkftO3hNWth27sNeXLLSHmofoUZSthGVBOmom0AKI8gH3A+tiXKTsY7s59jCqFs2P8JN5oI/wIPMDmAeiagT8vXqA48Eo1+RWQQXBut0rjSVCzUXvLErm+qLvB4DEci545JzHGihDsGTRQnFHflNNTWu/xEjPHpPy6QQQOHwettPVQkVyHJ+AMQoDUFHtvqYOIMRENQh15ArG2ZVQ+xc9BRaZgkNqBXiLe3bJT62d3emevTL2G268MBekqMhNnutrxwFji2mS47UGjZx3mxu2w76fLVeWVcamhpC4jV+5u8xE6NJ325Uh6DW30FBLh9592R0qSpofedazy2Ne8MwzA7JXLZUbeAyYFrR6kzt3w2fMRWR11+dt/oinRtaKc8ySFH7OaIT0zCYrNy5Qr57rvvEDHge1myZKnExcUq+XXRhRfKOWBlmsL2qC4CLp+CJPYlwe5woTuawwV+boipQBAYTtnpmQlXLviXEI56OZxn5tZrXMntk9CWBGClfXp3jAOAjVwxSNUmyVRSyX7DpIecQKGocY5plqXz0uv9Pi1puSKrlQHUC8a8agf+Ro5LXW3D52sbRnz0EmydsYKvdeDs1XqvXfXsNekrbSkJb8yY91UVDAiwmf7iYx5qgNTG8RObUPVM4w/gW2FzXlLlEaDnARl2PYeWokkVcqZnp+MmjmZe9McOefut9+TzCROlNJB7R+TduwIBlevUqYmo+ggS6X+56Wg9JPUI1am7rE2fm3zdjmFtJK2/6SGeHsF73Rs4SMMBNUcD9DIbs7pGiq0MCvQCVdi2nvpfLhKpKoI1bSQ5Vc0bUoZY00f8jWgXSHz9m4wY/hp2PTulb78n5I7O7fwrZwWFbdAgQDmzt4n8frK0QDgbFP2uLoDxAZBc0QzmHTgXlGDAXIH6gAy39vz3SD9Wdw2YhYV/LJQfp0+H/epPshGZCChTGBewImKsNYDx+4UXXiBNYGzerFkzgL6SyPiE5S6EHWsgo2fBnXu9BXlZSfPFugYrw/ZFYNP/l4Ceahv78ROV5gvY51RcQP9xriyUmIZjUCsGrcfdVYflUUfFD8slXDGQxQeQeN7CLbft3RVG5yIyF/JfyGakkDYOA6QxlBW1usaFWqpPgzxXF8UVl7ycXu/0fQgjg//XlrN6ZWaGCH54cJm1Sy3fw76vXTf087WqO3CrpBOY6vrwPuOvpMq166ptO7c92L5FUJOCylYOTpiYf/a59j77LIv51LO4bpm+YkhAHmxHWw/dBl77GN7WXIN1U5l/oU1N17vPMsXl6D95COjpwaRaUqlcOaz08La2em5Lbvk3FemTPpbPP/8SjDiMOXF9ZdgCXApDzauuukLOPb92Bg2fqgCN4ry4KbNxDxjc1WeBoXc2XrwvW5y7ZXC72x/s+cr0q0WwBS/YbiDUwpj5zsFfTRNYDr/b4ez9pt6I7WBEA6e5G+CYLClVDTt3psqkr78DYzFVFsxfjMwwZeXuezrCE7oTMhjoF1WMjFn0/J+Qo/Mg8vAcbYEwgJ7ZGPjFLs7otgzf56hvDFmqBTgEWPkwGbgJ5ZHKvG5KRrmOYB5gjY09JLNmzZI//vhDVq9eJQtha/T33yvVvQzCXBZzqEqVKnDsO1UxfdWqVQPbdwpCm9WAtq4qgCHUSObISnD4zMIYBVPnHu0QyQj8hfIkzuxZocAn7wv8LZgzSiiWMrPnhpLQZs/voXmsUbS5S8GHQI+jgCCE0UO5hFF9m8INgCNxWQbBRYySwbxHgyZ+Y8aFaP6lAIUOy2t0WkousyS7wugyWICuLVW4zLamrVw98EIpbkGlWlbxUSsahi7BEa9mWi9rJ+pFR9WroL5X/67TvkF9iX8JlHhvAfyt3hcftoEFXG4bWpDnuUjqcrX1va4P7/NAoj8o5PvwNz7TgukieHohtD/ZRbZ/INDCaHfBAAAgAElEQVTjPW4d2C98JsLkwYJWAz6vL7x2sQjTgm9bTwQG8+wyNWRQh7saZ74ym5uO0z95BOi5b2+QgtlZqAZU4ReCe+QtWbRdJn7xpVKV/PvvvwAcMHY97TTsls9Xsffq1j0NArWAsh0rUVIPN+0Bqnfj3pB3sb0eKjQIV7YPaovg7klsN7vgzh/o+Q+DYL1rh6L9NxTgO5rh5JbtAFMDoj2WUoM76z2UT4kq/TyuX7EHk5GTNEn27TskK1eslRk/zZQff5gBD/q1ctEF58uDD94jba5uhcVK2zoqIwED8nxvHGHyjtPUzovFhlpG8967WCBBoEcAxhh71k4uFMhKgoH87/Do+/33BfLnn8vkr7+WKaZv1y4EssVB4McPgV8dxBcj6KuMPKRkAAn+CPzKwXOzMGJ8FSgAL0YY+GfHkZ2gLzvqE1hGIGhzgZ4Lfvk33yWUvWJW2Mh0UlnJNYMQIOiUlodel0q1qYGFAkYEagRVAHlGCWpAhwZrMayfNd7HNQQwBFgaeHB7reUvqQ4dOkwXrigIbVujkYmqi77WrFTqHh+4U1odu3k39/BiVWew0aoMVtSWp3/DaDbP9blAGZipH3uEWjZTR/ssFmHBkdt3vpULN0ajbN0+5gpnWfNWfL1BUuPRMmiKsTsiCayzURsXwHcyibr6pk9MH6hXNH/blc8D6R5jx+ssrWOrwlBPKh6v07YaqluQ7TF6ge8ZAXpui2T6d+BC4H53PdPsPkEXmAjeevXqbfislaVLl8nkyd/L6lWrEc+tupQvXxZqkeJIQF5PrmzdSprBjZ2pisJJV6SmkBO+xb/6gQAsGM7P6IXt8M60UczQPbahFEIj5PdwMneJickAzFsQ3HyBzJw5B5lktklCQrJs37YbNkip0hReUldf3Rru+K2kWnUY2ZrD2uKlB3p696qPY3uHcFoqck2kBY5nC3Cxt4CC4I5HKm0ZuBXFdy5SKYgTRbBhfw9Wn8TERDB7f8v69etVfmhuUlesWKHO7d27F7Z9cRIfT4UcbO1LlVKq3fLly0utWrVgk19CAT6ygAR/FeBdyA/Zv0Iw7j9aEHg8Ad/RMmxKalhAYwBSMEaP14UD9LSZTrANR+hR48MmTj0smCf40sV5oMwPBNo6G+mnQJ7dERMMGnbNykdP1aoBowYppmwbiFEhGAfoOU6H+Yx9trrTAZQ+9GNFMAkMFeDRnODlCpxSl6a5ROv+pACjBVU4SybTgj0Lqjz20WtH/kaVqfrX91zze4ilQINmbQOn2orNRcrFAc6aaePvanQYbZQ/i2eaLV2naqsLB7xZbZ4ZP+oGu1gqXG1DqIRevTSgztkjjzB6Lqa3DWabz3iFYgboQcUdNAdOQV9/uE2M2Ioye9Z8mT37N1m1ai2E6DYIXGZloKoWzlGItt2iRQu5DDFy6tWrohx5gh2KyLN8czb2oSdjOAN0ndIPE20V6DuMc0RGwynQRij4S/k/is4ty/9C/kSki9kBF3YuNkuXLlUMQxI8xFQPYNBzUamEOE6NkBewZcvLpH5DpN0JOPh8soBKheU38iNALxuHT6SoXNACFihY5oisHueJTcWoU/5xHtC+ONj8Tv8Sh+FVuGnTJgX6+O/q1avVZ+fOnQrwHThwQGJjY9Xf/Jd1ILNH1S+BIMEfgR7Zv5o1ayrVL38jQ1gMHoz8FC9eHM6hZdT1oQ6CVL5LRiA13C6wwMu2De9zY/25oCuYqtb+HgjM7LX2dxcIhmL03Dor9TveMfD51pPS//3MQm8WffubBSMaiJmP+dEH9JzTHughcjEy0QA9q/bUrJixsUP/wg1Rq0xtfeE8qO3ZrAOD9lD3PCfsWAuAHcFQiErLYlYZMqGoSwqcSxIBqzTDyLK1k0RB64CB80ncyChWz7V49+ztAm3togEm86OtYwwzR3aO7hwEa6qdVCg17eDBd9MOGtpwCBZ48GgGG4j31ipeMm603Te1s4DXWdYUY0gMbNve0nqmb7QKW7e/npqauVRdGLgBMGDans4IzHm/ZW0TEe5cyuy6PAT0XNsxNS0C3o3DwtjVGdPVI3TlpkANAsjYl7t3Jcnmzdvx2Qbj6HUydeoPsuzP5RB25cHwNVAG0dWrV5WCiIEUg0FO9W7ZsqUABkvBw7ow0q0VhfAs5AF88yy7meKG/niAwcw6NUu/GwDGmJSxsSkITbMT6qJ/sXDEYhHZBfXRChUaIgGxh5J4Edo4P+IUnXVWY7nggnPl9NNrS/kKZcAYlIHqO6iXi/JIYkcosKnnjoNJI0AvS/0VuThPtYAb3iQYcNBriWaRLAsULvgjuGPWBDJ8/JcgcN26depfbsy2b98u+/fvR6SM3XLwIHa45iCoK126tAJ/ZPgICAkC+eGmjaphMoAEfgUR2oMfXsv7LHvIa3n+WAAfARVBsFrIGTYnHLVCkN53244/BzqmBNroBVPdHuugsst34DKejs3RJFQg9tNy0WHoLM3Fd0nGDwxOom3NDNCDTNXOArQH1ZsGlquBnr5GfQiUfJUytQmslK2QPe8iF3MvV1eCvESQD1TPWj4vP55iuZBUqHySiDtVTDl/oGcNq+yj9GoOkwb0f0ECPYYnIVA0QE972YI7NJskDg3azgHGqQ8BLP/KjwJjGAZNvbfNpGN6U9Xde1n7lzZHCt3j6QBdOpbEQ4eBzGVGYM974okHe3kI6AVsi/zIUHea2U6AmoRWpSGAXmA3p2LbhLA4MmfOIgQ2/QmRzJeaHXIcbND2Yqd8CMKuGARgWYQLKacEZSnEJyoOL4MYxBXSu/Yo5MDTqpHCEKC8vggAYVHECaLQLAX1SiHE5imAAJhUF3M3zeTXuFwNPGb+sJs5+0Y+YORU2KpB7WC1b6xSwwVu1oh18YmPP4L3OQSVTwL+TpC9e/YB4G5BxP6deG8yAQlg6vaosDQbN2xCeKY4sHRVoAqqrepZsmQpadiwgZx33jlSqzaYTqi3SzD2ccDzlF+WqqA3rdRFDMWiFjW7U3J74MQP/GMV7JH7Iy0QTgtk5uGamcrSBYp8HuUMvW9DHVT50taPHwJBxgzjRo0q4EOIe0ZmkKCP4G/fvn3qbzKA/I3qYN7HgwDQAiYCOgvwyAKSvaeamOcsI2hBIwEgzxM88jf+zftZZwsMWS7fg8/i+9vfw2nPrF7DZxFQ6nA3jBagbSUDmcmsOLIEq0O4QM9oG9MVYcWoDc+hL6DcJLOGPzWaC/36fD9uqBkSTHkxWHsyQ4lY0GMWCCWe+YRQotd6Z2jqWV2rTBBwXgctN/Lc1OgIFtAUxtAjs8E2xrrGeHL20EHx/RkXhiXRDh3Wv1a9qC0R/2q4eAQx62gbpzYVJmC6vsjDBGqemDOso++1lAMln+HZFJqW1e3r6Ma8pggPrukqBC64obvI++XEr3d5BOgFNl4gsPOfZgwfwgGjzDvtgHb7wwPk6XqFZglbtyQC6C0Gs/WPEobcFVMwcFAcPozAlVCP8MPzhw4dVkJEe9cxJib2OBjknE8cmPkRUJEpbKIhXGgcrQUNdjAAh9H46Dye2iOPAJECltdpdYau/xFS56am+jX0jkQzZTpIcQp2U3GoUypVK77E7np3Sw9itTNEwEcyc3wXTto4BJCkgOeuqQgFNMAcAWzp0oiYXphG31WlUcPGynuW56tXL6pSz/HZqgn95q23h2NYiTSwqUogmIt1/Y0Lesh5dOInQDjTMnJNpAWy2gKBrJKatXaRDbAlC6aWtM8LZi9mGaqM6sQ5ngzzCgIuHvY7z1Fu0fyCso0fgj6eszKN7CDPkRnkvwkI3GudSqy6leDM2iNqOQe5Z2QcZRgPqzrmtZRttCO08o2AkJtfLW80u0i1MYEkmUMLZvkvywkXDFpgZ5lGJfdoZoK2t84pPPfzzz8rkNuyZUv1bPcgAOVzs8L8ZSS5/JYe7oHxyYxRsk4b2l7P2cETr9q4H0qkQtYCCJEhiEphwXDAoZBGwOTUI2AvQCpEm41BilJJapW0XkWUSA7cqxsIpytKZxIfQGNdaKitwB+ewaohiLMm37DBZzgh1jWZoBMfBnJmLEHeQxBIRoPBlu2RiE0Fv7O+1BZRAwftmTrQZwwwrf+GDRGfFY3feI2KSM46sP4meA3GnnJ8wTnPT1gDPI9/5PV8L33eA3oGIpJZ16ux33jI+ItZDH0Nmtmtx3+NCyoz8k7A5MAGtfjdVena1tbEtc5wYcaEmW12R6XTdWmH8ShODhLBDAzujEOD7Qxo02P3wIE0qDR3w/mANmubIQj3+HamaSggGTelYJBSWBxGShYyZRSU/JuMmt1t8zuBF4VQ7KFYJUgp0Aqp3W9+JWiiCRpNlG29Y/Hfc9hY1wSMTJlD0EbA5wk5MycxgO0Om9fmzx8N4VpSysERpVSpElIckb7JTtI5hdH5a4OxU+Hy8DgbXDpw+LKtVNsqGUS1EwNPa1NhDXwJVD37Br13ItDTYE8jWFOqTxIe/0mQ2TSM/B5pgexuASt4w1FNuteG4xgQqkwLzDKKvcf3tMDNAlPKDsokq/olICTjZ5lAficQpKzhh2CJv1HGUbaRUbTfWT4BJs/pjbL/wWdZG0IbSsbGC+Rv1mmEoJC/EyTybwIzfrcOLQSBBI3ued7LjwW41mOZ12zevFmGDh2qQtrceOONcu+99yqG0h7Hyu5lNH40xrdgw7tSnVZAQyksJQqhUXSIHghHZGpIhIlRQTi7QZAD8ByRPYmHJLFAlJSqXEmKlEfmCGhq0rbvkahDAEwAfnH58CmKNkB6vYJIvRYN0KQSARjVqHqyD+Spbbs6Zb1IlSIY9dF2gVE6XEssgrQg69SRgwjyrTwWC0kKAN6+6DQpUKE0sk2gDQk6t8BLfD/UYylJ6nemcJOiyGSB8ZEC1jiKIBp9Fg9wlwC9cmlmCWHmCWTUSNsXK1HMkFEgn8TG8znRUoxZP2LwvG07oXaDA1J+tgHIDeS2P1QoWopWKi/5sYlgTVOYFtGHoo0tofEw1q1t39W6tbg4QoM8L1BNRj2Ze38LNGVQ/Zr7gZ7tGAcY6BGppoSld3WzW5RuUHkAblDkEs6pQKbIrBGFT1pasmbgYFKqnTjMDsVvUIToVDtGnA0AN03GyU5tUuLiUpWwScEEILhLArjj8xOxm0nFOQpkMnFk1cjyWQM2xfT5BqyBSXY3YvSf1pTCMvppTAuFk74dv2k6yyxqwQkAiccUKVJIgTza1eUPblrnZ+vitoB6rpZVCrh5FLpufwuw3Xv0G+gg0/q11NbL6zZfe+feCRSpWaQFcmMLBGMErbBXMy0D+7esghqCOYI6yjT+awEev7Ms/k5m0P5NYEhWkHaE/JcfniNAtOpTykCCQX54rwWKwd7Bgjsr4yybyI2sy/wR/FkGj3LPAkqyhzzmIf/sggULFBgkq9e2bVtp1aoVtBbVj2sXayCvPWZdLk1t4o3nKJk32p7RyUAZ3a3ZKPM++1JWTfsJgYCPSFzxgrKraH4pcmp1adPxVjkNGVUEmpq/J02Vlbhm+aLFElu8kNRve6Vc1K6NVEAIHgLkKMh+rpgMIqzBjOdwYTVL1oOXDg10bEhW4BMmSazu5h3y1+dfyRxErTgSnwiCrYAcBOiMaVhHLr3ndmnSCHlnkxLk0OTpMm/adPlt0R9yEIvhlVe0kitbtJQtiHTx49SpchAekQWR8WU/IlaURY7c6+/qLOWgPVo64StZ8OU3IAdTAOCi5DDCntU/+yy5CUBcSpeVP98fL8umTJciAHuHARC3F4mRsheeJZd3aC/VEW5Ih3RGMyq0bLCAWmsMk2D/ds/Z3raLqYK6WWH0jutwOarCXaDnwwO5H+jZdw3FAFljfgcQ+gCfudeAEluSFm4ERDqHJgOc0n9Im3FoJsofvBhQ4mOewm9/Zp/hJofsea53zLDNpSh+zR9qw1XX1sLb/enLjeD6P3vXAVhFsUUvSehdigiCIEUE6UVRENvHrmD5FhTs8qUoIKCg9I6oYAUpIiLYC4KKWFDAAqL0ooCKdOktkPbvmdm7b95mX0lI4CXM4jPv7c7OztyZnT17bsOCwF8l9ZP78HGLCyAUoCeg3JSlB5lHL2Zb0kogV0rAZPi8bJ+6+ww1sHwPpe41BWSqkaNhGs1zhQXEvmidMQDihBmELSAAognssA/HhSHEd+wDuyhaEGHncB72ox34LqFm8BcgUcCm2BuabRcVMkAh6oN6GhsYv+uvv54eeeQRdjJrFjYLiSn3IJn6zMCgFU0eK7KyGi+6asx4DU1mBAinBMTTywf7MqhBDzBj8Plc+qTfYJq3YbFyzChcpxE1u+t2urrdXZRQjnO+Yvt1FX338mv0zpQ3qECtanRVt07UhJMDFGG2LL4AB9aGKtR5jELhqdm9QNiXgELTMQ3iNiSq8nmoCEDhLjbzmfMdfTRuAs2fN5t2cEvLFmHHxQfb0mW9HqUqp1fmwtzWJStp+eQ36PnJkzmXbCnq/mhXqnVDayJO+ffRc8/RZwu/VgGU6zdtSo3uvJ0uuLkNxXMO35Q539Cno56jrxZ8Q1v5eGm2CW/78EPU/N57eYCK0P7p79JnY16m1T99S4gseUbDpnR+pwepyU3XURE2O4IzBpxD4jgtKqU5qjn30SXPH1HtSWQ/IYU0lymYMB0HEeOri989H7Q+5BygZ4yCSwWJ9L0AwVANOjeXGmbHbVryTwb/Fs83ASJKTIGRdy0ZokR7xqnh7DFiYf7Iy4zrVh62i34HobqF3Mxj5ncL4GJhnG0bco8EQgHAoMVd2Vf5x4WL5AQSjaQyChDD1Sm2dSjjBx4ByqSMtjHW2gsAO9gXAiDiIzEG8R3qZ3HEgGOK1qwk019//aXUt+KgIfUh13CHDh04tNalSk0cagv1UI1GZqHKaH4NoUl0cOE8zBAkgCBAHvej/IVVmjRiNL3zwlDawOXKX34N3fTUk1TkkuaBKnmZXfn4UzR94iS6uWdXatC7R/DlVAwS2Mpp2zcwYFCtgiXVEX9YiwT2F8QI1nMGSYe4FCveqRSOpzCAOsjnfzyLPnj6KZr/zwqqXak6XTykD1W/q70Kb5KAZGv7jlDa5CnUachQanXvfXRjv4Hw7iFasZZSXn+dhj8/XAG5+x+4lxp070pU81z+xW3atZNShoygMc+Npo1sM3TeLTdRuy5dqGCzC3U/lq2g7S+Np2/HT6CVfJ1aN7ahq4YPpII1qwHesUU+QiYHMukqNAnBiu8SbPvQMdgNqvy/mENQMXEBx2lDP+Zz3vPKT11rMuI5QHVrztWM4Gwv0JBI4rJf/8W4C/DTN75hQ+Y74JmZBA43FkQZe5kxvyUg2mu5r4ouD5d+sgbkoUqrOZ8eIGdu8fYHf8E9ilQmSgB9PKupPddKwEpASSArgJ4pymjXDdNJRa+/gTUo2jqiHUKwfXI9rO3i5DZnzhwaPnw4x1Fdq9LKAdghn3CdOnWocuXKEavPDqAn8CJFhVJBABGoIJGLiL8B6HEUBHprBq18ZjR9tWkdJVaqRrc+1YeqPHhPoL3bd9HcHk/Q0h9+pG4jR1CeNtfoY3sPMVDcQ8msNt+6czsVYk/oUlVYRc3hwagAgzc2GUqCTSDHD4MDozwboOkC0DuSdoxKJrMdXhrbySVxe376hX7r05s++3EOlStampoOfIJqP9aRLwRbd3aw4KD6W/r2p+Ez3qaHRo6i8267k8M+MOpatY7og/fo2aH96R8u+VDHB6hmNwZ6Z5/Dv5iBO7CHaOhwmjB8JK3lNp17++10R6eOVJCZP+IQKhzElQ6Mn0jfvTKOVnObardtSxcP6k/5q1RmLCfG9fwc2c2y2rGPDjKYP3LsENsAnkYJZ5ZHZHGtWlNRmgFLwQFCW+fkHEmnfco5zyQ/oIehFyfRHAr01FIV8YbUZWQhCSwoJvsU+K4dCgLAT9fvZePExkJfPFog5jQ1miZH0StvEemlapuJH0NiSbzRBHpgQkBt+6L57uC+Oqc4NoDBbYgE4qS0t5wpv2wSTibkaU+xEshNEoikyvUDWJkBM9E4j4hcQwG8rAZ7fuOIkDPvvfcebd68merXr0+tWrVSHr/eTQJdu16qHq/pLJ0jzloN07Jk9nRTGTUAbnjLB49VeKjO+57+ffllms7xXv/iNfqmro/RhU/35jhXOt/xDrade2PQMCrEfMUjY18kalKXDn/7Iy1duZQOsmPDQY4fdmA720xyZqPTyp9BjVpdRnWubcXnF9GRGWC7h7UfOAhMF7N7zM0xdEul4ojblwS6kT+rf6fNI0bSzHcnMyjNS5Ufak+Ne3ejcmeBmWOQ9cksen/sC7SS29xh9Ggq2/Qi3s0q3XXrifOR0tAhGuh1fPRhBoiPEVWuwr8YRB7YSzRsBI0fxiCc7eZrs1r39o4dqVCjhgzQmBH87VfaO2ESzWOg9wfb1tdu155aDuhPBQWc79pHKWv+oIU/LqKDh47QMVb/7/1nEx3cvZMq1qxOF93Uhkq1YHaQgV4Kq5hTVRgWcIHsHMKqXgk1o+3Ow2zOWGXw6Z+l08VbmXk/+X3PYUDveGQVAVQojKTLpF9sBDEFD636lY4VUzXgQPp6AKKi7kKkaWSCWP3dtynh5qtzgp4YTqoY8YgNOs8CsqiHzRa0EsgFEggF9LxrYyRg5q0nFBj0K+etO5QNoheIiVoXKmAcE1YDv8HsAejhO4JCe0OomNk69PKu13GzXGZAcEamhMqnyptO68X2eHguwcOP8x4nT5tO414dT79t3UxXXXcT3TxsMBE7NCAI7KcvvEg/c67xGy67khp368nAaiO9wszbd8t+ptrNGlCLC86nhG3/0levT6dlu/+huudfRB3GjqKyHGmB8udVik8nAIu6PlrBMRwUGFJQUhEJ/KzZwirx19+kGQzK/ji8k8pfdjld9nRPOvsSBo3JB2lV/0E0f+EPVPWqVnT5Y10YqXL4GmZXacPfdHjqVOo/bBBt4uoe69aRzn/sUaKKAHrMtB1gT90Ro2jskCG0jvtep+3tdFeXzlS4MTub4PiKZbR1/Gv0FQO9zRxd4tx299JlfftSkaqVFZG4772ZNHHceFqy4Xdqzte+gJMe7Fj8C82e9gZtoUS6su09dP/IIUQc3D+ZnUjAnqJvHPCMHZkZ7JmRIKIcMG8YvShPy/Ji5r3h9xJ1CgG9LJdtrqnQq07JNR2zHbESsBI4IRLw8/z1XjiSmtZ73ASFkQClgDLvA0/Anuld7PU0htOGWQ51uZELnE6cKKCniAAgLAY6yEOE8NWFoWDkUCWEnJTM6k148mn6dtlSOv+sGtR5BAOX225h47zl1KfPU+ykkkKD+g6g/Oc3osR35tCzrMLdF3eMHnq8E1VtfQPRGk5pOWgUjXvvdTp8Wjm65ZnB1PTOWxno5VdOIDoIDhS4jlZHwR+O8apZDS2NRG7Ltwtofp9+NPPXBVSSgdotg/tStXb3cAiUf+itLo/RtkMH6IZuXajaFdfyCay2hUncxs3078SJNGj4YMXode3xGDV/lIFehcq6XuQnHTaSnh82lNazHeF5t99Kd7LqtmiT8/kgs5srltKm1ybQXAa6m3nMqt1xN7XqN4BOO4eBIl9ixeiX6cN33qHCZ5ajjj26Uf4LWeU7dz7N69mL3lu2kMrWbUh3jR5GVa64RNkngqlE5D9APAXzJMi/2OtFcefEGtBDk01nKZm3FuhFMZhZWSTUW2pGr+FdBLP7LTOj7bPlrQSsBE4dCZg2f6GYNz8g52XjTIkFGZNH4dHmLS/XE+cOeOpKyBW5jrB/+C25iOWY2bZogGzWjLb2glVsGvcZ/gQF2XEgDkGHEa9r9Tqa3q0Hzfn+O6oaX4i69O9LxXp2oz2zZtJ9PXtQEw4R05sZL2xJ83+hVHZWyV+yKFFdZv3gEAHA1XsgjRnZj3YVK00t+z1BTe++nWPxlWLOS3v8AuhxJFcF9uKYxUtgfbIKWcLqVNU4Dg9Gm7bRNgZ6U96aSEmFS9AVjzxEFwzoR/THenqavWQLsU3ckxNeZdfZ8nQwcQ8Vycdt4PAsO158hYaMGspAL4269XicLgKjV/5MB+ixwwmA3vBhtCF/AtW+jYHeI/+jok0DQG/zaxNpLrN2fzJDeO7dYPT6UelqZymB7flmARVgxrZgBbbHO7eqrnPnITrADjbPfPAm5atRk1oPHUC1OeQMcRxAzuWhgC36CSs9AD2VZMHN6hR5RAXoic4reo1d5LozUsJ7z6VjyHOW121Guh57ZaN5Kz2eVluwdzzSs+daCZzaEohky+cnnUgvrmadwi4IIPMDed42yO9wa2eodpuaCnyX1GeI1YcAy7KZ5QT4nSxGTxJ5ATikIpYd/80PJ0EAPfzlgMVLGAy9N2E8rNro3gcfoUoPPUC/fjGbRrz1JrX+Xwe6vRODJ5wJgz+ECtvLTNnGDQy0NhP9zWkv3/2Qps7jeHZFSlLzp3pR8/vbU4HSJVUuWwBLQB/9jxWmXE2CAB94q2JD1oq9B4nGvERTnn2O/uH0oA2uv5auYQ/aRE6pOfi5Z6lq82Z0L7ONh9jmrxCfkgcs2aYdtOP5F2jYc8MV0OverRdd0LUz0ZkcEBkbB2Km4aNojMHotWVGr7Bi9PjaK1Yo1e1cBrLrk49SgwcepksY6BWreEawSRQCK29mv95/OHTO6tW0aMoU+mjtMipUvQa1YaBX62YO9cKetugtgK3OoQWgp9lL7YEbHWSLZaBnvnxZRu/UXttt760ErASsBLJVAgKyormIOED4pR8zGTuzLi8oi3SdZcuW0fr166l06dLK6xa2euZmsiMmwDQfnJGukdnjCLGS5sY30ZHt4lUeW6biEOmeMy2lTHmLpjzZl/7dt4OuvOQqqn35pTR3/Tr65dBeurrTw9Tw4v/w5bn8XgZOf22ir1mduYw9jE9j0FWXnSpSliyhH/78g/YWO40ueqo3XXz/vUQCB4wAACAASURBVBR/GtLAAVYC5Oh4JAjcrECeQ1clMdADA1YQOzhgMnHw5FnsXbv679+pQYML6OymjelfDsS/k/O7V7msJZ176eUItsLlnVi3G7fQbo6DN2LMSAZ6KdS165PUuGsnttFjBg7bPqhuR9HLI4bSH5xS77zb/0sAevnhdQvgtXwl7eLQKrDRW59yhOrez6Fw2BmjUAUnjiCnI03ibCfvvf8BHdy1l87gUDIVOazO9kU/0497dlLBGjWY0RtM1TluH+qDohpAD4BWub0AGMMBJgNALxNmfZmdGmHP82P0LNDLFlHbSq0ErASsBE6+BMIx+0GLvxNnDy3Obm1AtNqMaBi8SBIWG6VQwZzXrVunUqAtYcBTr149at26NTVu3JjOPFOrEL02y36/I7UhM8c1i6fDgGk3AWQ7Y6inwn45QA97Z8+hrzt1o983rqEa5asTVTqT/uEsEqUuu4guaH87nXYm70tkxu2jL+grDkfyzk8/ULF6deihe9pRdU6XlvbGVJr40Qe0tVBRunTgYGre7m6iUpwxhD1ZFQOIHOXYkDsXv5XNIJvQ8VfYDXLCNW0vuOBHWsb2gIsWfEsVi5ahIpXPoo3Fi1AJ9ua9onMHSihRRnntFnHUwfTH33Rg7Cs04oVnNNDr8iTV685Ar5ID9PawMwazlZNGDaPf4/NSLc76cUfHRyihCWfc4NAv9NtyOjjhdfr2lddoQ+ohqnrnPXT5kAFUoDKP225OyceOKtOYvft23Wq66JqrqOMtN1Me9rz9Y8wYenvpr5T/7KrUZuRwtlW8ketDKBjN6KG3boInHdgGezIzhOHPCWDmLK3bvHdDvgxZ1W2WytxWZiVgJWAlcEIk4FVNnpAwICF6Fi2QM0/3AqiMCg3nS7BjSc0mmTSQhxfBlCWbBtS1KIPjCJg8lb0/wewhUwZYvdq1a9Pll1+u0qCVL1/ezYzh16/sAsUC9HQiL61ShJOA8rjlLE4KdBHnq2R2bgcHRv5t1he0n23NdhQuRMWa1Kfre3el4hdfwGVYqfv77/TvgGdowrTXKLFEebp77DNU9e47tIgf704TRz9LmwoXo0ue6keX3MspxkoVp7Sly2nFypUIkELnsqdrMQZuxGnGlNMvX5phmAJ6pXhHPk51Rpu20JFnx9CXEybz71RK5Lh8/1avTOdzsOY6t93BII8DMjOgU0pyVPDHJjrAAY9HvABGL5W6MdCr253j71VyVLd7OLzK0FE0+ZnhDPQSqBZs9NjrNu58qG55W7aSDoybTPPGTaSNKQeo0k230VVDB1L+c9ge77tf6JvuveijxV/R6bUbUu+pk4ga1OOYMztpR9u76NW5cyi+UmW6ZeRIOqcNAz0edzCYiFmILCSOyHWUaAXysgHoYVSzp1r3Rc3LRss9ZlW3GV1dbHkrASsBK4EYk4C7oEcZ6+141JAmQAN7Fm0aNFNkAF1Sjxn+BEAMWS0A1BDwGN93sN0XgJqANsmri5RnyHghKc9QFucgvRqyZSCNml/+XLQXuXCR/QL1IoMG2oKct927d6cWLVoopw2U88sTfGKAnuaV4lXGCvYRZcqJM6NTXjhCMMaikWNpNtvIrdm/h7ZxXy646za6aXhfptvK8UFWmP60jP7qO4qmzHmfGb6a1JZZtJLXXknEwaIXs7PD1/Pn0/4SpagFe8he+VAHPq80HXzrXXqW7es2HT5It3bsQK3atWVUx0GGeYOH6n5uCVS3xbkdBREu5YCOmfdJ30G0dfMGLlGQil99Of1nSF8qziDrMLc7rwoPw1sigymobsdP4swYIzjcSRL1eLQ31ev6CNFZDtCDLeGwZ+hl9hTewAGTa93SmjNjdKYETkmntqUrafu4SfTNa6+zjd5uqnr9zXTLiEGUcC47mrzH7XisJ83dvIrqNruEHnjtJaLqDACnTqOZgwbTd39tZMaRGb1+fakux9OjYoCfqSpkcryOEK1RmAV6Mbay2eZYCVgJWAmcAhKQVF1iixYOpJne+CKajIYp8ROpqIRMQOnniAHQBqCFNgOACasGUPYvZ2YAgAMIQ6oyADH8BkBDWQA4lMNvlBFWDt8ByFB3Amc2kI+ERDHj3KF9OI59Yu+HcviO+gXgoY24Pv6WKlVKqW6vueYaFTy5QoUKLsDzsxXMrikXYPT0FUD+wOsVzB5ivgGU5IfXLLJTTHufXu/dlz7YsZYK5itBDw56mtWlD7JBnONkwjaIu0a9QtPYQ3VbvryUVvNsqsxBg6swgN30/QL66++/6WCJ4lTpkpbU/r4HqOTFl3PWipn0dOdO9NuhrXTX4z3ptu7s1FEOalUdigRqWPgEI65f3mMM+RJZ1bv4V5rS5XH6bOVigqXcjT17U7OuHSi1XDnFlhXg1ucHiDrEDf9yHr3/7Asc8YTZNWYdL7zqKqpzy3VU51Z2jijGgPLr7+gztj386ud5tJshYtF6tegmVje3fPhh7ldhOsyZQWa9yMGSf5hP2xGquUpVuqE3A3Pkwv11Df3E534+9ws6zONZun5txo/lqfThRFrx9be0YfcOyluhIp17LY8x5wc+s3EjTuTB84JFqRJlOLFkNbzOoOrWUMm6hJ244ZqTJZtVtyab52XLLaOXXXetrddKwErASiADEjCZonDerOHUpNGqUL2x5EI1E20CIAJgwwdADPsAvADW9nBqLTBi27ZtU+wZABX+gpkDsEI5fMc+lAV4wz7UJUDLvDZAGdg0gDUwbvguYAvHihQpoj44VoJTWiGjBcBboUKFlCctvhcuXFh9x7n4LfXhL47huq+88gp9/vnnVLduXerI2RcuueQSqlSpkhtPT9qUXexdSHkDVjlowQzZoc3k2DFDxV3hz+KV9NW412jWzwuowvkN6Ha2iavQsK42NkNO90MMxBYuoWUffELzliyidf9uo7oN69Mtra6iY//uppXsjfrH7u0UV7YU3Xz9DVSyJQc7nv0Vvdz7Sfo95RDd0b8XNb3nLlZxFuSLIZMEm+xx3WhDXrQB9nsAnZxp44eJb9DsGe9S5Vo1qU33znTaRY3oMKuZAQvzQ/2MckdSacdHs+j7jz+lw+x0wVlm6Vi+eDqrRVO68r52RGXK0vbp79E3k97kl4QUSmJV8j5WG1erex5d046PM+O4kfPn/vb511SQs2wcSDlKf+c5RlXZLrH13XycQ7zQp1/QnJmzaOGy3xSbePGFF9GlTZrS1g1/0i8rltO2o0eoeLWzqeVNN1KVZqwOZgCcyiFjAPK0yB2Ql4OcMfycMLx2rgr0WRu9DKzEtqiVgJWAlcAJlIAAN2H1cOmsAHrSBQA3UXGKqlTYM+zfuXOn+iBdGD7IKgEWDGUF+AkIRJ0AUxKrDn8BwGAHh4+AroIFCxI+6IeUwbGSJUsqT9hixYoplg3esDhf1KgmcMO5AvDkOH4LmxduiND+CRMm0N/MasER48ILOS2Wz3aiQZ7ZBG2l5ziCOjAEYER5hwI47WXV6eYttP3gXkooU5JKskNDXH5td6a2VAYthziw8a7dRNu20NEjHE+P055RRba7Y5YLuW/pEFvdpTFqLMf7GZLtHPUCvTJ5Ip3RojHd1rcHO3DUYgdc1MkZRZCSTX1zaCnVQL4G58AlTj12eNsOzlLG41yZ1bDsGAIGED3Ip9rOdn6JDDw3ccgTeALDPg4x+Y4epiMFEqggnDES2Dni762UunMPxRXkgCxF8tORFG4/B04ueDp7RSNHLaduS2H1bnw+jgfIIPFY0mFKzB9HxUqXYn0yp7ADw7htJx3jFw+ESclbsSJRST7G85j27aVkBnpJCXFUkGMGEjulwOYRaU/zcKo38SzWHrcZYPSyiaWLZonxA3k4z2/eWqAXjURtGSsBKwErgSyWgKhDTTsw7yItalcBepmxh0Ozd+3aRVu2bFEf2LzhN/4CuIGRA9MGBk4YN3wHmINKFdcG+ANAkg1ArUyZMuoDZk1AGBgzYdwAvHAMwA0MG/ZjH/4K+yb2cqgP5+I49gGwRbtFy05KfegT+o/roP1e4Iy+e0O2RMuURtvmUOXMNKswGVNwCaZjsNRj+7wEACRs8IpAID1nO5qUyppIsFPw2+D/JfBJYN0Q+845RRUVNi6vxyuAc+KOZRu3v7ZvpfYD2Umi7c0M2ApwFWC7AC8RLFlzjMiLS3E8Rrw/idm3fIB/cg1mdOFMEsfOFGmpLEecgoOgKdEmv43pwhSeW/EJ3CEGbkGbai8jW1yT07T5bslsk4g+wz41LxhIY8O5sGsMOhdsJBxcpD0md6oU5qGGJ7r9Bvgza47u5OhLmR62oqq1XrfRy8+WtBKwErASOKkS8DpXqGe0k3fV2zCxb4MtG1g3qEhFpQqwBmZu48aNytv0n3/+USAHwA0bAJqAS2Hd8BeqUYCx4sWLK6CGv/gt3wGQzjrrLBWSBGAO5wibJwybtBPACVtGwFtWCd+0LRSQHAkYmjaRWdWOSPUoPISPUHk4QcgzUeWqMCvYD9DFnJUCgM7G5yHUnqoDuMwg3kzYghrwcWE0rsdM2C4OlfLlex/T6WedSZc+zDZvpxVVWBLIUAUT5n8AcDrQi24t583QrKNTH+pUXBhAlzqV/6pGOo0JgfNQFJhUBWsGHnTqieNpgyrgsJvs0JmoXzOLPHel7zjf+aAY9qMc9qFOR2qBc6Dd5jmZACZPtU2zjxr4yceoPBNfs8u71myKmerMtNu1jF4mBsyeYiVgJWAlkFUS0AsyWy/Jq75RcToDap+0X+J5Crs3gLW1HGpj0aJFCsCBmcNn9+5d/NmjbOhQTtgpAXBgzQDUqlSpQpUrV1YqUmHh8Fds3/AXqlMANJyLY5lhFM1+hQKrEINfsGTvuQLSMsqwee2W/MYTdZtMXqi2ZodKNxTQU3PFmQepcCjBbx6PFDhoANDwiflAZAGiSCX8HSANHwE5+Abwo/+vwRQIwbwA4Zwflw6xAw1npogryGrRcqUVsDrEat18nEECdnYKMMPBxalTAKMi3DB2XLP2sHVs+FBQMBMixKgyDkPpfEc7tGJY14FXD+T2xW/VNuVx7AA24DEAPqcM2o+MGyoHL+8HoMP5+Kni4vHHBHkCDrl36jiCUGu1Mk7KeUDPfIHRndAmHX6MnprT1kZPxGT/WglYCVgJZL8EFIkAVsFBe141IVpghhyBOnXVqlXKpgwfZHXAB6BO1K9SFwAc2DeAsuLFoTItphwWKrK90hlnnKFs4HAMNnAoi2Ng6iKxbZFYsKyQmh8Y84ItLxg7nut66/YDdtkB6sK12VTduuUcPJLCgESBJVabCmgCbANwERbLIdtcoCd4K46BmH7FgK2dVsaycpVjyKVQPKs2XRWrYrkYJPIHZ4CzA5iMQ+Bmx04PWlgAJ2mDBnoaoEFxms/BTRp96I9i5dB21Qb9Mdk3/AbI0ynYNABMAMnmnKOugXqcMug3wCDKYRMAaGBdA+TqMiIrlQkDWT/QN7RE3YdyptjnhaEfnWu6f6SovLw58vEWy8rfXrUt6g4F9NQxC/SyUvy2LisBKwErAS0Br/pVgxS17IZ1qIDaFQAOoA5ZHH7++Wdas2aNG1/OVL0CqIGVg40bvEbP5+CyVatWVQAOYA4ODvguQA6MYCRQF2n8wrFykc49EccjgbNQQZBN9Zf3oZlRBjEr+um115NsZGnaaM9V27qQBAyYg1cAxgCM8BPQJd6BV6kANepcgX2KM1SsloY4GghqFlFXoMZb/YPPbWCT9oiXsJrZXF55BnsZa6c6p0pVidlut6G6WYFNXoqAEB1Nq4BFqVJdzkR4RhXGZfU9qdTPDBdV2BpolrlvLtCDU0bsO2MIyPOboyYAxHHXDMECvay4JW0dVgJWAlYC0UnADzTAlm7Dhg30yy+/0PLly2klZyjABx6v8GoFCwdVK2zi8IG69fTTT2eQV0UBu6JFiyiwB8Yu3Ha8IC0SiIpOAhkrZcrLy/qdjPZkrPWZL50O6DkARkEuA9iIelY5YjiX044c2KFDh6jyLpemvwGgadCkkZkGRbpuDen0R11KGZ2FZrlMmzRfVlLEYAI5kwnzADVXalIe6lVlmygd1Kpc9XH6bQI/lFJFXRCnOqHKp3Jdqs9QaaLfDujTZwjYC93XoBF1wHTmRznjZ5pz3gvsLNDLuDztGVYCVgJWAu6TxWtXJ/Z2ukD6B0OwfRnYAy7jFEtlT8NktrnazvHn5i+YT199NZe+//57Bey0pyuHpuA4XzU4Eft5552n0nTVrFlTgb1yHIwW6lnY2mVsg20gP9hcF8lQT9fQtUYDrMLFANTPXi/do69nysvLrnnPM48r6Tv2SfI9Grn4gcaTwdyZbdXgxNN6B0zIbqhRtcCcPw7CcWegA+p0MVByAtekvD5Rs1sOW+cAKjVHFe2mz3NpNGeqSBsCIMpEa0r6eo77DrHMN+Og2DG4XQ66glFX+rkqKmR1hnNNB6o5DsIawOrOChqEHZuAYDDr+pjutfQ94163J8L5QkQk89b717wHvGDQqm4995T9aSVgJWAl4CcB79tyKBWgeu44wMMsI9+PHk2mRayOnTdvHn0//3uVc3Xr1s3qktWqVaP69eszwDuHatWqpUDeeefVVk4Q0djJCYby8eNw1TgSgFgDK3lKRjfmpkeqH2A72UApul7Ebql0bJgH5CkoYgK9sMSTF205jJZWzrqcncZCZkXOeQqEOeAHeAiMmMP/mcDKLWFeLhiLOuyaI3eDBTP7q4Cbcwz7Tbjlhx0VjHPKu6wm7wMjqeINKmzogD31XTdKY1gAUmm5BEw2ZJuJKXKiwJ4fo+fndWtVt5kYRHuKlYCVwKktgdAOFD5MhY+osEAvWfIbzZg+nT6ZOZPzzv/OpVKVo0TLli2pGef0vOCC85U6FnZ1fpuXJVSP6LAPe/8xCwcIw41yNIzeqT1Ljq/3XqAnQMaEYi7Qi3ip9LQacuYCsAEEKZs8KeKlxeSCBnrRQE8DPr0xByZEmUJQ7m4NqJxPOiDoAj0HYDk2h8q5w5nL0rb0UzvA7MnlTGZPMXou0HMaZzZM+qkcSwIgVrdc1xhW9RxG5icT6Kl2Oy+X8jKGFzrXecna6EW8W2wBKwErgVwlgfQPQL/uaVAjj5rA279mCoSy0A8/2eI4bpgf8NqwYT1Nnz6DZsyYTitWrFTF69WrS5dddpkCeE2bNuG4dFXCShlR/DVACzATssCHA3tBpB2fL7Fl3YuZONV9skYno1w1LWKgM9EBvcAcCN9kzxjy2AZs8lyLtBBqVmPqq4sE5rlZayg2z8SPoYGe2NHpa6mQLc78CwKQYTopYNIEWdrG0Ny8c1m3KD3Q0/00patujWhuBYOlzMppFOnFKpyNnuqNePZboJeVw2LrshKwEoh9CcjjIXRL1dqO2GEgBdimDR6HXtsjc/0Xtg9ADxEqzG3+/Pn0zDOj6OOPP1G7a9SoRje2vpFuu+02atSwiW8jVAp7eOnin3pTd+zKnd/qQWXYukVSmQYxI6K1woNVYvCarVCFTT4m9kfUttCEJyKN9AjFO/P9yODAPhOuCSjzsmDpJe/HbAWBJZPRM19cPGDJn6g2X74C1/aCz+BWBfdDH4vcj6BbIhTYyyaAp5cfbVOrWmu8yQWz+mJ3Ky9/gXOkDnW+BXp2ibASsBI4dSTgcgAOmAnXc5SVcAvwxjN5jcB5YgsjNnTxTpqqnTt30LvvvkfPPz+G1bTrONzJadThfw/TzTfdTHWZzYuPM2P741pg7AIPJQ029XUU++A8FJUzhfdpisOqa/oE93GoPAudzQF48juET4RBs/g/VE+duXJyehoetMh8kLaJfZkfcAlGJ35wx8BZbmeD2TRtladrxyTzh1+BkwOvCApgBKZeYC4bVbjvFE65SNVnZETSz14T5kYGeiIvX9bS096svlME5IVzSjLDq5jlvJldFDC0QC8jU8eWtRKwEohVCfi9/SrQE4RoNKDSkE0HkVVhFhzDbJPNUAmf1JNHhVh1HluG8supNw4BbDnoLK4jMeoOHNhPL7zwAg0dOpTDoxym5s2b06OPdqEbbriBvWnFW9Z8PHB0L84NamAyQ8yBx6X2mPUoprxsg1mt8bRSDyw5lfcrFa7sw28jw5YGnaKhjvBwj9UJkUPblXmgZ0Kr9BSUL9DzGdr0QM/gvyIhMed9xARJ5pxO3yp91H35OI4xQx1m/f7gKxrp6kb4ne+nWg9VNrNd8YI87xpmrnNe1a6ci79BTlcW6GV2OOx5VgJWArEmgciBbgXoBZJDpe+D8+avjNahskW2TwF6+nxTfRJ4DOrHVWLiERo5ciT169df/b7rrnbUu3dvOvfcc4IuhRAqUPUGtgCjJ8Az2MI9E4ALXZAHqed0lfkJxxzwpxlBKRzqkRxrI27bkxEJmJxWqPOCWDijkJd98z1fiOeMNCqHlfVXQ2dNJ7wetWatXlMNU7XrvbqsTy5otEAvawbI1mIlYCUQOxKQhS697RpsWMxETGabTV7BATrKPs/IEh8F1pox4x3q0qUzx8TbQY8/3ou6devG6cfKxo5wnJYIsHNZPuyPoIOKZBwec520DQqSQLRAz2+an+pAT24NUw6RCM6MTD8/dW2o+80vnIrftWxmjIyMgC1rJWAlELMSkMDFWn2ayjHnEoKMl3WIAQZsYBuYRUNkfB2nVYM5lD+ejeMeUyqyKvG/n376iQYPHkxz5syiNm3+S8OHD2fniyp0YP8ROpaURHkT8rJ6Ny8zeQF1b+DNHI+QOHUMac4WLFhAq1evVmrhgPOFzvYZz3mm8uXPx33IwwGWk1S/9OYERHae1Pny5qM6derQ+Ry2JW9CAsVxPL78+fKpYMv58ocIDOuwgFIf/qaLa+sKLAIyPB7B2nOzXAIW6GWNSL1q4qyoNZQaVuoOFyTcZPDMtliglxUjY+uwErASOOkSMONHYcFDcGHvG68L9EQrG2Xw+4MHkmj1mtW0ds1ala0CNngAVrC7O3xYf5IYwKVycnioYX9d8ivN/myWkkmb1m2obt26lJSMVO0aiKUyaEtMPErJyZxblAEdPm5MO9fxIw/t2buP/ty4kbZs2aLqj4vT4DUtLYlVrUmUkDeVwVo+5Q2cyOnTkpKS1XFkNkA+U/wFqMubNy8VK1pUZdXIX6CAaj/KIRDzVVddxTH8yqUbv2AnDX/Pv5M+6LYBmZKABXqZEtsJO8lk9bxet362eV5TFfWqZ9zA7jlWdXvCxtBeyErASiCbJIC1TezdNAOmjZHB8GmQF1nnCl8IxmBOCrJU2rt3L73//gc0a9antGfPHgZWBVSdycnJqszRo0hVlkoFmB3Lmy9Bld+06W+10CLDxemnl2U2LoXgmIHLg0XDgxYgEQAtf/6CShqoBwfyMOiD8wdSo5U6rRQ1adqUzq5ShYErvHO171+ePNzIuGO8D+FXAC41WER7sCUwuEtOTlHsYj4GeQc5T+7ChQtp6dKlyiO3AIO9Xbt305HDR6h169Z03333KsaveIkiviOjHxR+pvXZNJC22myVwHEBvSjNNrNSnZmtwojByr0gLRy4Q/Mt0IvBQbRNshKwEvBKwO/pEQ6UmceEbdL7VPgH/k/UFRLmxHvFFMZKP/zwC6tH9ypP02Ockmz37j20efNm+vOvP2nzP5vo8JGDzJIdVeCxXLkzOC1ZAypcuDAzYvEMskAHahVpkSJFqHz5M5jZO0JvvjmVZs+eTQ0aNKAOHTpQmTKlmVXT0enT+JOCD4NEoL44PlfaiUaDLcyDGHwOIC1VqhSdfXZVtu0rzSASKudAL8SmLoXz5eJcxnZBG7AZ+oX9OG/58pX8Wc4sYAIVLFiQ/tn0D339zde0fv167vsxKlasKF19zTXUvn07DtpcUdWFOH4KfLIjivrtxvTSKnB3w371wLEzOydIIFqgp++n4C2qwMGYK3YuZHoqhAJ6ZoXe9IqhWEC5b9VYWkYv02NiT7QSsBI4bgl4gV6kp4QECg6EDwBI0qFA9DGlwnRUsynMeqUyIALLtXHDn5xXdiWtWLmKli9bweCMGTnGMwBMUH1q9ScDv6RESmSgV6hwAfrPf66gW265lRo3rpX+ycd9h1aWTe7U9thjTzDYe5MeeughDqvSN1gyDvhCbwWY4dp4mqq2wi5OsXrHLVDfCtDHeHj4OuLdsWMXZ+qYTh9+8AGtXbtWgbUWLVowQH2ILr64haP+DlSlw7roNup4gnoLALwo6Z7s6Z6tNUoJRAv0fJ0xohxiC/SiHAyfYpEYvVB2eqG8da3qNvNjYc+0ErASyDIJ+D1S/J4osk8/qhDCVYcClg9YLF0mPl7XuWfPXmbuFjJTt4XVqvvYQWIu//6JWbIKVLtWHWaySii1KFirIkWKUvXq1emcGjVY5VqGChTMR0WLFqJSpUuyijVyZ5cvX0v33nMP29RtpVGjRlLbu/7rAiMFhhygB+1syE0TdLqwhlFhy6IU1NSQQ3xCoGxyEtTVwfv8KkpMPEbbtm1TOXcnTHiNM3d8zGxkYxo+bBTH/bsgkOFDVY06NaBW7ULYmaAmRokCIovSlshGCZh3kd9lZBb5Aj1zaoZqI6ZGNrY/t1cdCeipW855oTW/R2ICLaOX22eO7Z+VQMxKIMRTwQEWgWY7SAnqRAU48Bv2dxppiHrR281Vq1ZzVorn6Ouvv2bQVkxloqhwZkW64opWdGGzi9Q+2LehvqLssFC8eBF2WAiuxWTsoAZ1Y87hewBjssr2S7rv3nupKKtBX375ZWYCL1UVuedwW+GdC/YuMmvnIj7U4BhXm49e5zvAIxhMWPw5ABIqW+WBq5jC4Ly7OOZNzya9RS5eZPB4+aWJVLt2UxoyeCRdemkTKliIz+G6U9mAMRWOINwebTOoaUztbQzHEt0mYVRjdsqd4g2LFoSF49VDHYu27lN8CMJ2PxJgk5O9zJ7sx/kBkxBjBbWqWzvtrASsBE6O+2S7yAAAIABJREFUBPyBnn5gpDhqQUFT2AuwId6lbLjGYA+MFrxsZUtMZF0q647i2ZYOtnazZs9kde0yZvHKU4P6Demii5pT6TIlw3YX4AWASHGHAugU5HI4Ngd3moDtww9nssr2Qb5OOQZLL1PzFhdqIOSAK2U3x/UCHAooc71twxF3jm2cvzOJ50RDpYprK8mZwZCdfe4DGXjQUBXv27eXBg4cTS+OfYPOq92IOnV6mO6480oqwGBPjUjKES7PoC4PQB7knx7oGVI6OVPKXtVKIAdLQICe+TeUI5nXK1evN2YaxYAgLKOXgyeFbbqVQM6WgA/Qc9k8CWpsAj2dtkzrhjgmnIOYwJStWbOOfv31N9rN8efKnn46NW3ahJ0ZtGNBpM30LFWLKgPF4BAjGiEFUoLxbw9Ieued9+nhhx9iZ4ZK9Oqrr9IFHLdOgyNWJRug0bXJQxUO4grnyBAwtPbrhUEpeg87qFTqDs56EdwX8/oH9qfQa+PfpvHj3qADB/dy4Of7qf09/6VyZxTHY4Q/CCXD45AKTw92TEkQ273g5OqRZG6PWwlYCWgJmM4U8lv+miDPZMtNkCdyNMNMyT5ro2dnmZWAlUBMSUCFQoFqU9ng6eDH2g4PuEopKJWnq5nrdf++ZOUAMX78a/QPM3gIaVK37nnUrt1d7El6hU//TLWoLLQmqMQ+A0B5AFMogb3zzrv0v/91oDMrnEmvvPoKXXihZvTgBCKMowKKUr1TkS/IM5oIGaQDnUGNCLB6ouD2tlF58vJ/yrOXv0vwYx1IWv82HyjsbEwffDCPBg0aSCtX/0oP3N+OBgx8ir2LS3PVqSqsC+oCW5mPgy+bDysd0sYq8WLqxrKNiVkJeFW1ch/6qV/NToQLu2Ke697jVnUbs3PANsxKINdLQKUjYyN/gBEVqMOII6KBH1KQATwE2+JBDbpi+Xqa8oYOaYIYdnXr1qFzzqlB1apXoYsuvIDq1TtPA0euX8CNxNTzvkWbDhDet+gAbtFAScM1+a6H6OOPP6EHH3xQhVR56aWX6JJLLnGAXrKKvQeY6rpYBGlcg+3ovAOeEdAUxDhKRSH8OuQBgLZpJxYBfIEWzPn8B+rYqSNt4bAznTr/jzp36chAtowCnopZdZTZGqyGs+rK9dPYdtBKIMMS8Kpp/ezu/Jg7uZDXKQP7TdWtuXZY1W2Gh8eeYCVgJZAVEtDgC4ABYA+4wUQlGtgB4LkIiQ8nJhL99dd2+mLO5zRj+lu07ve1HBakOXXs2JEdIJqlwxtJSWzrx1Un5NV2fJrV0uqSAFgTkKK9SrWKJJjlCvRXGDET9BHNncvOGPfdzwGJ89OYMWPp6quvVqekcNA+MysHYuUJSxmNDDMC9CLXF6AKUa92oNBqalPFa7KMy5aupyFDhtOnn86iBx64j559drCyMZQywu4FWMtgABy5TbaElcCpJwG/cCje4Md+wZBNkCfAzpsFCPu9L7IW6J16c8z22ErgJEtAjNPUkqTt3RTWSh97BF6vSZz0YdGidZyh4jNavGgx7dy5nTNY7OdAwnnYg/YSuvvuO6lxkzq+fUJwZCA9FeMYm4Pp8OYLkALGUANJYbUMVagvSQWgB3Ck88/KIrtw4QJm9B7irBeHaMSIEXTbbbc5QE9Ut1B1BsBVtAOQXUDPBLlivwf2U2NteDdjTPR4LFm8nrp27U5Lliyhzp07UZdHO7LNXmF1TJcXgG4C9fQq8mj7bMtZCeQ2CYS7j73Hovkdiv0z5WYZvdw2i2x/rARyqAQAFCQ0h7cLG9bvpJUr1tPPPy2l77//QaUXO3hwP5UqVZxaXnI+3XzLdRzc9wLKl1/swgR86dArLk/H32FPpjxeHcCnHAo4P62oYsXQOZpUaX4qk3Xr1rGXaieVaqx79+7qA5YL6dKQXzazW9YCvfSt0PUH1Mc6Vh6nUFOspmN/x7hv8eLf6amn+tJ3381j7+IHqP+APnRaKR1gMAD2JHC1gomZ7bI9z0og10nAZNhMpwrpqPd4qPs+o/utjV6um0q2Q1YCJ1ICIYy/fJtgGuc7qlhDP+g18Vq7ZhMDu/k069MvaPXqjZylgtj2rhbbvV1MDRvW4zyyFalsuaIcsy5wMQ3aRGWh1b5il+cbwVVdVPKKZR6UCDDct2+fAnfINnH77bfTyJEjqUSJEm4DTdWmd6EPBy6zG+gFD5cGeRp4cxI0EHtpedmzVodR+e3XP6lPn6c5d+4C6tbtUeo34FEX6OXJo8M6aDVwNqX3OJHT217LSiALJeBVpZprgGmHF05dq1+q/B2dIu23qtssHExblZXAqSEB72ITAii52jsAAM22SUgU8bkwMcGin3+nN6ZMoV9/W0I7dmzjvKyFqeY5dThbQ1NqflELqt+gKhURcGdoBrVnqtiGSdsANgJhUkx2D2STxpmZA3rmIm2CtP79+9OAAQOoSZMm9Pbbb1OlSpUUqxfwbtUp2uT8aFjEEwX0RB2dwoGRE5SeGywkvGvjghjX775dQbfeepvKKjJ37hw6q4qjwuWwK0B5eTjGHthTbOHCxpwa94ntpZWAlkA4ICbH/GztvPKLBOi85cUD1wI9OxOtBKwEMigB7cjgPM49f8WZQUMrvTABAIDqgRGY47XqnJ7E+GDb1n0czuMjeued95jBW0VnVizHcega0003tWHQdD6DioKsnvU0EepYpZKFV2t8UGYGsbcLUh+mIyD9+hCdGLxv4/BcxQY2D3luweS9//77HMuvqW+FQbYzEdDQCQF6CjRrFk8xoyrEjc66gVh50j/pzKABL3H2j3F02WWX07DhA6jSWcXUeVrusOvLo1OzKVV5wNHFqnOjm1+2VO6TgJfRk7XRu5aEYvQyy/SlMC2vQijZ8Cq5b1LZHlkJZK8ETJCEK0VSfZrMmYA93cJPZ35HkyZP4VApK6lw4cLsOXsFtWlzHV3QrI6bQUItipoQVJtWD5ptcBwqHKYuGBzJSYZE1C45P1Lbw0vSZPRWrFjB8fvaEez1xo0bR23btvU92c9GJ9RVTgjQMy7uekFDdcvUXHwcAlMnBHnmbly/i/r3H6w8cdvcdAM9/XQvZi/LBGpxVOga4Mvu45Nz9s5nW7uVQPZKwE91azJ53u8ZZe78ymOftdHL3nG1tVsJ5GIJCEjyelYK0gIY0yFTVLBexRQBqSHgMTsoMIt34MAR+mz2HFZ1DqbNW7YqgNSmTWtmwRpT8RLBNl4AduJM4fXwlBAhGgE68M1VjwaAoekhGwxAMjdM8oZtAj0sqg888ABNYfUzwr0MGjSI8+cio0Tmt5MC9ACinYdEPBvo6TA3AVUsPJlXr15Po0c/S9OmzaBmnDd40MBBdHHLeukwv3bsELs9k93LvEzsmVYCOUUC5v3r9927jkgZL+tv2vF5+x5JLWwZvZwyW2w7rQRiSgKhGT29IDkqO6gMgL9c+zn9oN+75xBNmDCZP5M4HMlhVnc+TI880oFKlS6YrpfK3ssBcErp62h+cREVYBnwUVxpUZT1ubI/vchgI2iqlDMvVD+gh9qefPJJGj58uLLTe+GFF+j883UqNGwZYfLMlvm97UfjHZy53gGVqdYqWWr5BryGTcC3/o8NzOYNprdnzKQbb7yV4+0NpHNrI3uG3pR9EDtpBAJem6ye6NIz10p7lpVATpCAyeSZYM0bHsX05A/Fzvn1N1rmz6puc8JssW20EogpCYgqVsEABjCB8BywCQF7h5AibjqfFI4fF68f8tu2/stBd5+ncePHc5aFitSvXz/6739vCDanc9ijAMhDAjS9U0FHFy8EwIK+lnZ00Jv+HbyZDGTWqBK9jN67776rAF7RokU59lxXtmO7LEvCq/jFzcqeKRGQmchSHGgwHrC9y5s3wLju25dI/fuOpulvfUQ33HANjRo9gBlZrV7X9pNazqmpANkmU2uBXvaMn601liTgZfGyW12LvvuBPwv0YmlW2LZYCeQICUj6K9jGhQil4WhxpTvQ3C75dSXbdvVj266PqXGjptSzV0/24LzR7bGb/czBaK6PgCxezo6A3ZeABc0iKnjnAwLTL34ApuFDgJgLsnm+H5Nm7tuyZQutWrWKDh8+TLVq1aIqVaq4uW6lnuNl48TuJvumilee2ntZrhvvgHZB3BvWc2iZrn3o01mfcL7fe2jgoD5UoqR4zwj4DthRpgfg2dcTW7OVwMmUgB/QM9k7vWYFvPHlt6wV0TJ2Zh8t0DuZI26vbSWQaySQHuiJSs8PP8Em78MPZzOTN5odFVbThRc1o0cf7ayyWsgm7J2269OMELCbkEBB4aNcYi49+6SBnt5vAiqocyX1mK4rkNXCq1KRkAReb9NwC7KURV3i6SZtkGOy31uvd1qYKl60xVs+UsJzb9+zZNoZZKifg8WC79fxmHah9evXUN9+T9IjHR+m/Iz1AraVTitUPZbNy5IxsZXEvATCMXoC5kJ51GYG5EmdXsFYRi/mp4ptoJVArEkgeqCXzOnLXnvtbRo8ZACDt2Nsw9aT7r2vPRUpEmB8HEinWTkBFM5fb/SRoDIez1m9MCKshzB20alnTTsac6GMhnkzmT/vm3q4UYumbvNBYNaV/Yxe+pajn4HcuDpuoah0pfQPC9dw9ownaevWzWy715vuuLO1CrQs4VqEodVA24K9WLurbXuyXgKZVd1mFuT5AT314mjDq2T94NoarQRytwQEkSnuiD+OGhRmdIZGdO8u4jAjM+j5MSM4dEocDRjYh+644yYjbAoAo86rmqZUwByDzWHyVM0GTvO1uFNOHtomBR8EJz56NJFZpd/pGAfoQ7iWw+zsceDgAXYsSKUyZcpyVo1qbDOnU3vJhnMBniR7BfbrXLgBNg1sHJg1lPEaWAdUmvqYnOdncO0H3rxAU/ddq3OOHTumvkvb0AazXj/A6GX8ogWV4eesRt6QN3L24ntQ6joHt02b9gn17t2bGjaoTyNGDacaNc7U48tDbfCvztiaNpO5+46xvTs1JOAFdt51xrx3TeZe1gXzr6wDss8L/kKBQa+k1fpkgd6pMQFtL60Esk4CAvRMwAenjOAsCs+N+ojB3QCqcvbpNHxEX7ryqgs9TRCQB4YIh3T4Fd/NJIAcAKhDtni3NM7Y8CV99dVczot7iNWH+RUwiuNsDyU41EmBAgWpXLkzVLBfAL+EBA3OvIuqG2jUQZuawfIHWVhIzePaISUtyAkD+wQkmtcyF3YBdyboRGq1119/nf744w92driB1d1XBKmk0/Xe6YsJHrMG6OkruQ8nccBx1Oxg7pAqbcf2QzT6mWdp9mez6Z572lP3xzukHyEARVfFHh3rmnVz19ZkJZB9EpC1xDQHMa+WUe9aLzCUuqIFee46YIFe9g26rdlKIHdKwAR6AFv4AKDldVm4Bd9toIce7ESHDh+gCZPG0hX/aeALynRGBQV9PJ/IktOgI1BOFsW1a1dzfL7+NGv2bGrUsBFdfHELKnnaaZR0LIm+/fZbWr9hA7Vp3YY6dHiEA/1WDLoQ6gQowwbPYQE3AuRCtcpc2AEIAda2bt2qGLny5csrwGmmQgvXuyRmIwEKUc/evXvp3nvv5dy/36v0ao888khIoGcCTmEWtRo7YI8YWarRldA2mRKqRtviOeKiJb+sowcffJhKlixBU994g86oUDRdpX4sZnRXtqWsBGJXAibQk7XDz6TDzy4vHHjzOxYN2HNfYi3Qi91JY1tmJRCbEjCZPMRKg6NDXqZ79IN//R976Ykn+tCXc76kjp070JCh3ZxuSHqLYBYHqsBgb9nwHrEBmej8tukZuWR6guPZTXjtNbrllluoW7dudOaZFdU1vvhiDg0bNpw2MNh78sne9NhjjwWpbM3F2ZS9qG7DsWOmKubAgQM0nkPI7Nq1iz1R/0cVKwYDynDjataTnJxMn332GQcoXk0tW7ZUadWiZehE/awYzaDQJsc/qwIOLaI6Z6jveOOy9pzZx1vol8VL6MWXXqTb77jGAr3jF7mtIQdIwKu6Ne9lr6rWfImMBNoyCvRMwKle9CzQywGzxzbRSiCmJGACPQ22kBNVecoylpv5yQJ66ukn6JyaVdgJox/VrFmVW5/Mx5F3Ecwfyjqx9/gcpckzvGWDg+p5Oh6EEb1AD2V1gQED+nJA5gl0N2fcGDxosBH0N40GDx7MzgJ96bbbbmNHkQmUL19exd6ZNnrmVf2YOAA49Ps0Zgr9tq+++oodE54iALVnnnlGBU4+evQox6DLSwULFgwCa2D9UK5QoULpqsI5YAO9oBP7CxQokA7AAWAihp88RMAO5suXL8iuMKunUgBoQ7Wtax/z/ER69dXxnLO4Gdvs9aLqNc5wLxtwxrA2elk9Fra+kyuBSKpbs3XywiZMfKSWe8FeRhhAC/QiSdcetxKwEjAkYIA85SEBsKXj6eEBjvRYw4aNo+kzJrKa8R7q1PkRLnSMVXtst8bf4vIgkDKzf86W3otWjkRhu4VrcywWL6OHGnr3foLeYLVh+/btaeDAgWyjF0/HFGgqSBMnTqAePXrS1VdfTZMmTWbW7V96//33mfU7kxo1akTFihVTNnG///67AmTVq1dX+7EhTt6iRYuUShUsGVKcNW7cWKlnZdu+fbtKg/bSSy9RiRIl6L777lPx9HBO1apV6aKLLlJFExMTacmSJfTXX38pEIiyuFbt2rXVcQBAXGv9+vWqTbgO2ogHw9KlS2nt2rXK4eS8885T4A7tRZ5dHK9Tpw7Vq1dPAUtskRiDzE5x2EkKuNMetlA5E+369yg90asP/bxoMfXt25tuvqWVMeZiEyntimKsM9tAe56VwAmUgJ/q1l3RjHh5Yk4hJhaRmphRRs9bnwV6kSRsj1sJWAl4JMDOBwhj4mSp0PHptBPFjm0AWb35Af8NjXqmH1155ZW8l9k8BTaUryZ/05662mMWB5xd6UJuhAIAjmeG8vL1B3p9+vRWYAsgq3///kGhQIYOHcox/Z7l3LptlHp127Zt1KVLF1qzZg1dfvnldO6559Ivv/xCX375Je3fv19luAA7h0DIqAtqXDhGAJx99913CvBBRYx92DZu3EhTp06lyZMnK9btzjvvZFvASvTvv/9S/fr11TUABkePHq3A2iWXXKIA5eeff65YRdjhXXvttaqumTNnqmsCFIKJRJuxAeg999xz6m+LFi2oQoUKBPYOTOMXX3xBpUqVUllH4LyBzY8NiFYFHHr6m04sCsYHFR3QbwyNGTOWBg3uTx073R10TNRY2qHGAj27xOQOCfipbqVnpl2eyeZF03PTBth00Ih0rrXRiyQhe9xKwErARwIamQHoOQhCqWPFW/bz2b9wrtehVKhwHrbN60MNGsAJA84NAGTaKSBIFapUt8FOFRkRu5+NHs4HyJk4caJi9Hr27KmYN1x3NjtoPP/88wQV5z333KPs57DB0QEAEOFXAA6hyl2wYIECYvfff78CWK+++iqrel9T58DuD6AKKc/gFQsgB+CFbBjwlJ01axaDnDFKJYu2gI0DoES50qVLq3omTZpEF154oQJ80uZPP/1UAcFOnTqpsn/++SeniPsvbdq0iUaNGsXhae5wvXeRVxfn4poAhki3BtCJfqDtAIzo++mnn571jJ4DzsPZVr4w5g1u33P0wIP3sCr/0XRALyPjbMtaCcS6BLwgD+312uWZgE2OR9Mvk/kzg7OHO1euZW30opGwLWMlYCVgSABPeO2AgaT3WEyQ9F6A3v8efpq++eZr6vPUY3TnXa0p3mHc8rDKVpgbU9Wqv2feVisU0BsyZCiNHTuWmjW7QAElMGXr129QbQMTd/fddyu2CypVbLCp69ixo1LBIlct1Kdg4Pbs2aPA08cff6xUwVCTQiUL4Ijt4MGDCvR98MEHrKLsq5hBbAsXLlQqY6hOUR6gTTawcMLSAYhdeuml6tDPP/+sQNo///yj2gJvW2xgBOGMgevceOONSo2L7c0331TXAAMJ0HfBBReo/QCfALMlS5ZUILNJkybZxOhhSCXjiHheB6bKu+98weB3DLOYdZjl7U5nVizrHvQai9tbzEogJ0sgFJPnXZ+OF+iZHvTWRi8nzxjbdiuBmJaABnoqcC6r3YDT4uNgB5aHDh0kuurK1rR58z/04cfT2EbsHN7P9nlKZYvQKxKOwwyKJ98zp74LBfSGDx+u2K7KlStTq1atlOoTDBzYLXivQqVsxsUDOAJQgxp15MiRrkMDhgKs3HXXXUcrVqygESNGUNu2bYNGCM4WAGgPP/ww2ycOU8cA9FAfHCzA7AmgxDGolJ944gmO51dO1QUWEW2BXSBYvpUrV3Lolw70yiuvuEAPauXHH3+crr/+erdtL774omIGweaBARQ7wTlz5qi+o04AQQA9bN6H0fGrbk0nGgHrWn0Le73vv1/M6uah7HySj57s/TiD7sb6GAK4GnMhK9oR07eMbVyul4DJnnnVrN4XWz/mL5yAMuKE4b3PpV5ro5frp6DtoJVA1klAqyLwoNaJ76GOBaOHbc3qf6jd3Q9Q/gJ56a23JlDFSqcDJvEnYMMnC5FXpZGZFmo2EU4gpq2YrgkAB8xcs2bNFAADs4ayYOQAsLwbbOqGDBlC//nPf5T9HspLkGMwgDfddJOy0QMIvPXWW93TAVoAKgG6wMBBBQy1rwA9eNiCXYMThmxgGmHzB49dXA/2dfCsBXsIZwrY2gG8QfWKDern3377TalhwegVKVJE7YeqGKCxdevWCuhBJYwNamNcAwAK7YHHr/cBkBXydx8iTu5aKPSxiR3mnxu3MQAeQcuXL6X77m/PsfXauzLILueQzMwje46VQLQSMOet+YKSEfBmZq4Jdx94Y+35xd7za7cJOt171IZXiXaIbTkrASsBAXraTg/eFAB62hFj6hsfciiR56n5Rc1ozAvDWV2K9F1Q6QEIoowfo5d5mQrQExBjLrx9+vRR7NgDDzxAgwYNCrqIH8h5++23XecFACgAPSl35MgRZRsHr1aAOrBqsqEM2DywdrDtw7VwLmzkALLA6AE4nn322e45KIt9F198MXXv3l2xjmAcARARCgXn44Pf8Lx98MEHlVoX4BDMoqiNUQ/6CPtBqHrLlCmjrvHJJ58okIvzwSoC7GYX0BMZ6dRoAPWSNk57+77/3mwlk3PPrcHp8F6mYsULO23RNp7w2A5kOMkcq5v5GWTPtBKIXgJ+AMo826uW9dac0SDJ5hrjvU64VvuBR8voRT/OtqSVwCkvgQDQU49p/sARgwhBcl8Y+6qKnXbLrW045dnTSlapaYdV6BWEVEGKNA3GTNXt8YlUFk+v+g9AD3H0APTA1Hk3Lwv4zjvvKFAERwgAKMmKgfMAttpxPD5kp4AtHNgzc4MdHBg9MHACKgH0nn76aeV1i2Mm0IOnLwBj8+bNlaoXjF6oDWwiGMkff/xRtQ9AT2z00E44gtx8880K6MEmD5s4nOA7mE2x3csO1a02r9QADaA+NQ3gHjOjgNq3ZfNeZhzbMJA9RB9+9AEzm07uWycjSkD1LiDPgr3juyPs2VkpAT+mzjQ78L40hgKDfvulbi9LGOp3RlW4kIO7zllGLyunha3LSiB3S0AvbOIli1RfYPSI04sB6I2nV9gz9ZZbWtOw4X2VINIIQA9sXoLrdZuVEgoF9GDPBlYLYU/grWrGuZPrm4s0QCHCwgBIjRs3zo0/J2UBmADOkJnirbfecuvbsWOHcsCAMwfs4gAIsf30009qP2LnQS2M88DaQR2M2HkAolDTQh0LJwtsO3fuVGnToMIFOwdvWgA9MHa//vqrsg+ECllUt/iNdsPZBP0VoAdGDywjbAvRJtgkmou+fM8a2ziwulpKeeIQdidJB8amfDw3EijxSBp7N9+nYgGOHctsb4uGTlvgiR2wz9QWfgB5Fuhl5f1h68q8BEwgFiqkSbTgywR6fnWFYgMjXddcw0KBTnVvWqCX+Ylgz7QSONUkIEBPh9DT2TDA4Bw8kMY2Y8/TR8za3HEHA48endWDPI0SuRxUtwB62SctE7TA6UIYPThXAKAhvIkfwJN9sL1DnDqwbFCr1qhRQ7GPUi/CnACQIVcuHCkQcgVhVMCeIdgynC0ArsT+D6FUwP4hXAps92CLh/JQ09asWVN5zAKooXyPHj0Uqwcwhxh8cBi55pprVLnNmzcrr1t46vbq1UsBSYmZB89dMHpgIVEHgiRjgzoXDiKwSUSfUBcYyqwBdt4xDAA9fprwwaN4qvDQQ3XLYI/x3NChz9P3331Pd919F/elDSUgW14a1LwBb2sJvWOBXvbdI7bm6CUQynbOC8i87J7fFULVZZaNpPbNaL0msFRrtgV60Q++LWklcCpLIPDGyFH0lOcksiBoBmbxotUK6OTPn5ftzh6lxk3q8d5kLoesGAwJ4/Op8pHsXI5HvrLoIogxwp2AMQPLBQcGeN4i84Qf2AOYmjZtmnJigEMDQq8g5InYwsk5UJ9CxYuQKmIPt3v3bhU6BcGSJaMFWDu0BepbeMUCJCKjBWIKoh3IWAGmb8aMGSrgMpwvoOJFdguESoFNnQBTHAeDiPAq2Acv3YYNGyrHEOxfvHixAplI5waQinphb4i+wBEEbCBAZtmygdAm6I/prXw8MjeBmWLy4pja5biJaQz04vLo1G3jx82gN6dOo2YXNuO50YXKnl7EAr3jE7o9Oxsl4KdSNdcN89J+QM+8t0KpZ/3qiwYQesFhKADoNU2xQC8bJ4yt2kogd0pAx8+DzR2cMVhDyEzeLE551YtuuvlGGv2stolLTU1UIVjghRkXl4/3IPRG9tB6aA8YLABQhCc5fJhVxrxB9QkHB4QwEa9U7BePWpyHuHVQwYJxQ3kwaigvKlKUkTy4AHbz5s1ToVBQ71lnnaWcKkLlvEVYlLlz56p2ITjyOeecoxw0UB/aAAA3f/58OnTokAJ5AINg+fCwQB+g8oQzCNS+sBVEuwBcZzvsAAAgAElEQVQaAR6RXQP7wNZVrFhRnQcQipRqaCfkgXZhP/rk9VDO6IPFfy47qlZ4YDPAy5MnCSPP/Y3nPmqgN3ni+5yBZCID1UYcX7EXlTsDQA+q20BWDMvo5c6VIif2ygz/Y3rISl8ieduGcrqQF2UJeCx1m+W96tdw8vO7f0OqgC2jlxOnom2zlcDJlIC20UtLjWOwwkpZVsWNe+VtVhMOoHvubcspr/pooMeG+Xigx8fhgR8Ig5KdLQ+nnpTk4VLGLBvqPCycAGRYnGWBRvsBwvAbTJzfJkDyePoq7RWQKXXJYm62R47hHDNyvrQ9e9S27qNPfVGMXh5te6eBng67M3ECA71xE5WdYt9+T1KZsvl9gJ72wNWbtdM7nnljzz0+CXhZOAFfXmAVKtxJOKAnsTtRV1CGIKyXfO9mBdDT9yLWaCM9pAV6xzcp7NlWAqeKBAKLEIzuGbqxKlaBHg6UPGTwGPpk5vv06GMPccqruxyRJKnFS8fZiw8KlJudMgsHarzAJ9LCar51m/WKetYPbHmBmPcaka4ZDaCLRn7mdbJPZR5gaBEmRewak5PZMjNeGXLSG6/PZG/sCVS3bn32RGZ7xIp+jJ5WJwcDPQv4ohlnWyZrJRAK6AmAiuZqJigMxbxJPaEAY6TrhGLkTZAn363qNpI07XErASsBJQET6IG10WnN2MN0IfKwPkOHDu/mDAhdqEWLJmyrhSOw0QPDAzYse50xTHDkZexCMWPmOfgu5wHEiSo4o0yYLL7hGMKM1mlOP1M1YzqLoI/CEJgZPwSo+gHSrJnWksJO5gfC7bA6nzW48MZGiMVpb86m18ZPVqrpnj0fpSpVS3kYPQm5YwI764GbNeNja8moBLwgLZyJg/de9oJEExxGAnThruPXh0gvb+ZxC/QyOgtseSuBU1QCJtDTC5xWtb074yeVz7VipTLUr39XqlZdYqUx0GOWB8yfOGKcbNG5b7guexTcoowutie7Pyf/+ibQc9SvbLeZgnTImCE8Rd6Y8jG9PuVNqstewd27d6JKlU9Lr7oF0HY7IyDPMnonf3xPvRZkVHUrL4nmS5gJ8LwSDMfEZUTa4dYqE+SpNc+qbjMiWlvWSuDUlUAw0API0w/iN6d8p4ICn3vuWTR4aC+qcKZOxYVMCVDnIXOGzoBw8mRnvk2bTFioRdjv7TsUEyf7I71hmw+EcJIwbWtClfOWMdtmPgDMtkUv/YwCLD2w7vxgoKfzG2ugN3HiuxwGZgo1atiAevbqSuUrWKAX/VjYkidaApFUt0G2b4YdXCR1rfQjO4Get+3SVgv0TvQsstezEsihEggAPW3oGwB636rgxLXPq8qOGD0doAevXDEu1qAwGgCTFaIx1aeBNgfX7AfaQi3Afu32A3fRgipvm7zXDde2UKoiAZHmwyTzKuKMAj2gPCcpnnOqCqQNEz0AvQnvMNh7jb1uG3JQ6p7sdSuqW9O+TxJsmHZ6mWhHVkwgW8cpLQE/1a15b4e7P/1UtyLM7FDd+r2omuufe23L6J3Sc9p23kogagkEAz3xkGQbrDe+VarbWrXPZq/KrlTprHJOnDQFP4K8KWNFNZp5EBQsrljpT9SDGFXBzAEsHTxbgzcT6E2a+A5n8ADQa0C9+3B4lXIm0NPXSg/IrY1eVENlC2W5BHKy6tZsu8vmIfA7p8lJC6fKyHIp2gqtBKwEcqQEtFeljoWHh7oY+L85RQO9OvWqUf/+3Vg1V4ZVd8lasYtFhv9ptW3mAMSJEFYo1Wc018biKo4QZiiUUGxi7IPDCOMUSGjhJrcQdwotLziGxHFYHT3kkye+p4Beg4b1FKNXvkLpoBcBFPKXVezOl2jmhS2TsyTgx+SZLyHeNcKP6TfnsemxL/VkhdrWW0e439KePByVPc300spZQ2NbayVgJXCiJGAyeqKKxbXfepNt9F54kRm9KjRg4OOsumWgx/Z52t9BVLaxC/TcxdCxtwkF0Lxy9lO5RrKVkwXffICcqPGL/joZA1jOMLvVK7mwnZ6ExZs04T2a/PpkzujRgFPjPcrBncs4zhgqSI+aI9HKPPo+2JJWAgEJRGseEQrsqdXL48CVUVVsVoA8EzB6zUekt75mJRxKwDWUyCp1hp1gVgJWArlPAqFUtzOmLVCM3jk1K1H/Ad3pTPUgD3hjBoOf3CUXM6SJ2TPk22Vtict6IssGUpJhk6DG3jf+2JFM9IyeYnZNLatjq+cFesjJ27Bhfer+OAM99s7WmTEE/GvGN/3z5yR678TOYNiWHKcEsBaZLxLmi523agnFJPtDgTPRgkrdocpHYu8jHfe2z6+82QYvyyjl8wjQC9f545SzPd1KwEogF0ggiNFzVLLo1pRJ39C4ceOobr0aykavfIWSqrfiZSsvwhld1HKCyLzr5qZNm2jOnDn022+/qeYjg8b+/ftVftq77rpLpSrTspE0cvpvbGlVogd6HL7Pdbow+6VjJ+oRnDzpfXbGmEANG9Snnk/wiwB7ZcMMQG98LWb/lDY45GUt4MsJ90KsttELxqSdpsmarE1+Zf3WLT/m3lsu1O9onbZMeYZbO/2ukw7Yio2e3KTWXi9Wp6ttl5XAyZVAENBTD2b9JJ888Ut65eVX2QarNjN6PeiM8kU5PZpjvgXPS+cBHmD5MqYaPLm9Tn91cxE1F/xffvmF3n77bZUHFzltq1evTosWLaJ3332XSpYsSX369KG7777bzZsrQY5RH2z7YkejEj3QwzhjfEVNm8pxVQDiTFvFSRM4vMqUSYrR69mzu2OjJ+ANQC8wV/zH2gK9WLsHclJ7wqlMTWZO+mSCvWheTv1UuCZwzAyw88pX2hTK49dsp8viOQuvWq9MoGfBXk6avratVgInVgIm0AvkJSWaPu0bGjF8FFWuUoGeGT2EAyaX9X14a4ZPHtrhHt45BwjKwnvgwAF2NOhN8+fPp9atW9Pjjz9OhQsXph07dtCkSZNowYIFKtdr165dCWpcbKaaKPsyV2RmjkQvf61yDYB5AD2Msdmfia/NoGlvTaVGjRpQt+6P0RlngNEz2mWBXmYGyZ4TpQRCgSRh0gX3ZAbomapSE9x56/JjD6Nsvsv+h3oR9II8XwYSqltfBAjVTGguPdo22nJWAlYCuUQCJpOlnSx0x7ZvS6Ynn+hDn3/xGfXq1Z3z3bb37bGAAhVfDynUfEuZcdRiU3Dm4i5r5KpVqxRbh/RpY8eOpYsvvtht/J49e2jJkiVKhduqVSsFAL0qothba8OBvWA2DgOp5oLY5/FXsz+TJyGO3niqX78uh1d5gsqXL5sBoGfZvNi8C3JOq/yAnh/m8ao7/cqYvfYDeeZxP1bPBIDRSjAcm+dXH8qL7TCOK5ApQE86adKMVo0b7VDYclYCuV8C8gasFx4F9ZTKLiWZaP73S1k1+RQdOnSIPW/70w03BoCOKxknLIe2zzJstNKJLrZjqMkCb4KZZcuWUdu2bdUCO2bMGLriiivcXnFkA+WYARAIkGeqeoT5ikZFFJszzACEanw1MEvjgMkAf5gnzz//Cs2Y8RaD3Mupa7fHqFSpElEAPQvwYnO8c16rIqk9Q4GvSEAvEmjz3tNeIOkHCkMByXBS9740mr9ljQoCei76M5i82HvTzHkTzbbYSiC3SCCgqvMwPvxcnjp1FnXv1oPOq1ObH+xvUtnT8/t2W3tchnqQC8iLXn14MmUr6+POnTupR48eyh7vhhtuoCFDhtDZZ5+drmnmw8Pv+8nsS/TXNhg95UzhnOkOmUb0jGvpyOEUevTRLrR8xW/09NO9WTbXaiAYUXVrqvhzxlyIXn625ImUgBfo+QGucHZ2fm31K59R4GeWD9aWRC8ds29egBf0GzZ63gZ6mTwL9qIXvC1pJZCbJaAXpIAjhtnXvbuJPUvvo2+++ZoGDHia7bHuJ05zm25DjD2gA72uODo/t1TsAz3vg0JYua+++krZ5sHjtkWLFvS///2PWrZsyarK8m7vIj1kcsZaa6C0NKZ0HRwmDJ4aW6XPJdqx/SBdf/11tP/AHvr44w+oRo2qDtDTdagHpi+5a4Febl5HTmTfwqlu3TnoE4IlHMueWaDnBXSRWL9Qzhd+7fYDtG4IJwRMFqH72Z5Y9e2JnJL2WlYCOUECBkhz1LH66U308UcLafjwYZSQEEfDhg+i5i3qRgR62l7PZG1iW3UrKmxxpjA9TD/77DN6+eWX6euvv1b9vvbaa6lLly504YUXKgcFsZ3xLuA5T3UrenjHVtP1rNYTQYDetq0H6Oqrr6Rjxw7TF1/M5hiLGvRqVlenxwsP9HLC/WDbGMsS8Ko25d4z7dj0nNTrmtyLfvekadom53j7Hupe9gN1GWXy/NSyZr3ea7hAD4yeiQS9YM8CvViewrZtVgInQwI69htipSk7PQOXpSQRp0EbQ9OnT6POXTr6OmakUQo/3FNdz8xULLBuN0xnjNhV2QnY85P+33//rVS4U6dOpaVLl7K3aSN66qmnFOgDKPTzsM1ZQC/A6KUxo2cGTBbPankg7th+iK677hpKSj5Cs2fPZI/b0xUQDAC9eK3GNV8Y5K3hZExte81cJwG/e8sL5ry4RzBRKCAWLZgTYWY1yJN6o1U5q/AqJjIVYCcNM988c4ZaIdfNU9shK4EYk0AA6IGVMR/0cMz4bPZCBnmdqS7b6o0Z+xxVrlIqqP2pqUnMbKUw65dXsTqB4Lnu8qX2x3JuXHkAhFsT165dSyNGjKDJkydT8+bNVfaQunU1w+m38GN/zlhjHYcLpe7C+DPgd4IjI7xKHnbIkPA7W7fsV0Dv6NFDNPuzmVSp0plO//mNQL0kJDgeyAEv7tD2mzF2G9jmxKwEwr04+TF2fg5WwoZ5O5kRkBcKZB4PkyfrRCjm0Yvd1LWOHTuW5npmOE4Y5mJjnpQzFqGYnXu2YVYCuUQCQr+k5+GAzzZu2MMMVh/OEPEFe6LeQQMH9qVixfOpvqsgway20+BQ8YGOTExKJ/ZDrJhAD960oTJbIKxKu3btaOXKlcpBo1evXorV86pbogGOsTN5BOgBsOaheAymM2Qa6AUA66a/d3NcwRu46ck0a/YnVK4cx1hUQBdAD+UA9LAjpnF97IjetiQqCZhaSj3fgp2//Igs8x4Us4xQTJ/ZiEj2el5Q5019GAn0+bGP0iezX952mL/zHD16VEnAVCeYwM9shAV6Uc0xW8hK4JSQgOQnDVKwOj8WLlhBTzCoWb/hdw4k3JPuu/8ezvWaQElJ4oih1xx/gGOyebEXZsO7+CN8CnLb4lOtWjXKnz8/26Qdo3z58qmwKo899hhNmTJFpUB75pln3Dh6Mkm8i3XOmTw6R62kOsN38zf6MXvWPAa4g6jGOdXoxRef574XANzncpgHYPEc1W2IqIo5Rxa2pbEkAT+gF47l82t7OIDlLX+8LF8o2YVjH6O5pgtoBeiZ4M4L6DIC8DJSNpYmhm2LlYCVQGYkIAnpHf9ZftiLGu/LOT/QE0/0pMTEgzRwUD+6+ebW6gLaWiRNOWyAyVGMGLNc8pbqriFu2I7YAHsmKPW+hX/xxRccUmYGtWnTRoVXMbd7772XHRG+oM6dO1P37t0VAPQyelI+p6yfYGLVKCLXLdS2jM1ZG6/+CvDbtnUvPfvsczRv3jy6887b2V6zg9NNttFUzhgqhwaf4uOanZmpaM85pSUQirUToZgsngmg/ByjQjllZAQsRgPEIg2YAFaUMx1BommHCXYVo+e1wzMrlAt49/k1UOz7IjXeHrcSsBLILRLIw+pYztXK6jthdJDoXpnf8Tb6mZc4flofate+Hb366lgHzKknvAKEOCclBblR+YGPkGwho2qcfLDnBXfmujl9+nTF2DVs2JBGjRqlct1CRfvDDz/QoEGDqGzZsuovHDME0JoPoBylumV1rTkaSlXLncG4m0Bv/R//MMAfrHL/du70CN1+x01OlwOMHlS/YPXsZiVwvBIwgY0JkEyQ5L3nIl3T+0IWSc1q1hcKjPmpbv3a6Lc+ePslZbzmdlLO1Zp4gZ55oldFEc3bZjRlIgnXHrcSsBKIdQkEPer1E14hmACjh59LflnFseV60b69BzljxkC67voWbsdUWA0F7hyvW2Wz55jiOzZbgdjtOhtHLGzedRFtWrx4MbOXTyhbvMsvv5zq1atHR44coY0bN7IjwlG68cYbmdG8mVnMBC0mpzOoyzT6zp71M6sFp5lYGQ8ZI6S5xXdh9Nas2UADBwyif//dyWxmJ7r+hquc4ROvW23jZ+ZNjoXxtW3ImRLwqjlNUOY1j/BTiXp7HYkhjCSlrGb0zHUj3LX9WMA8iYmJitHzMnamcbG5KEVaiCIdjyQce9xKwEog1iVgAgcnHZqjr+XU2fDDpXiNZ1htSzRh/DR2yBhJ1apWp5defp4aNNKel4HcqGB4NHDQ64cGjRpAiDdmKKB38q34YYd3+PBhFUoFQA9MXqFChVQf8ubNq9g9fAoWLBg0sNGoX45/JpgUabjaTKcYLzBU3hXumAkwA4OHj9K6g5mFGhdAzyHo3p7xgQor07hJY2Wnd/bZZ7kNkPAqekfshtE5fvnbGk6EBPyYN/O6XibO796TMuGOqWUrhGOHXrP0XA5Vh1nGKxeTkfTWEY7J8x7zu7YCet6L+6lyw4G9jADBEzHo9hpWAlYC2SkBbWMnm1ogHRoHalzkORVVLMrs3J5GgweNZtXteLrk0gvZbmsw1a7jgD0+Di9czeUJuwVQp9MlADQFFs/YAQXosziweb1u8RtsHkAePuLBBzbPZAOzc4QCdUcL9NzRVGOLfwpkO+Oix0DHUFGgnIdHVO8OHtdwzcFsy5etpi6PPkp/MqPZr9/TdM+97ZwLIOG6DkwrbKYlB07MTMitVzHZOT/mLpoXqnBlTHwDGfqpXr1A0itrb7v0faTvTb81wY+d9NaZETtCF+jJBf2YPW9jwtni2Zs2t95Otl9WAsFgIDjemTBvpsdsgKn5dwdRr54DOJDwW/Tf227krBkDqUxZeGBqVsgljBhB5MkDkIePXgid5VAxhRpsnHwGSBZ2ASv4bWbI8M4VsH7YwpXJnvkloFwAXyTZBYN4LWvxrtVUHcYrJTmF8uYL2NZJDmQcX7N6PfXo2YOWLPmFOnR4mD8PUZkypZ1zk3TsvTgGvahLjXekNmWPZGytOV8CfoBIAJD8DQfiIpUJBdDCgTQ/qfqxdaHmvVk2FJNnXiMcwyjl8vCbZ1AcPS/QM0GdKUDzQl4GMOdPH9sDKwErgdAS8IIHlHQe1sow39+4/o91+1Qu2JkzP+a0YJ2Y2etLYocPj01l1K9II4AiDfag4gMDhAOIuRYM9kyAkNV2aNGPP97wvaYu5ppopj3zLvjRX+V4Skoy2UAd7sNBPGAchk3bSEqmEi1fxdI6gZFdI0pDm4syHE2GtmzeSnPnzqWJkybQ4kU/cwzFO2no0CFUvkI558JimydgXaebsjjveMb21DzXBDcmGPLaz0YCShkBemqVM1Sz0TCFMjrhgJ7JBobqV6hR9gJdbzkXkLJtiQJ6oobw0pRm56STXmG6qNGw9Ts1p5/ttZXAqSABE+gFgy0ciVPoTUCCVvU50VPot1/X023/vZPW/bGGRg5/lnr0uj9IYFqbkcL2XkdVrDWogOMQVJf/pXBYljzMBMXH5VXAI3iTNp04dshcvM31U9ZQ8XgD0DOZPFH1ov2RVD4ZmU2BddkJQ82i0PU7zKh4v0DCjKxRKl4ZU2pVuba9w0fsLsXeSLdCctKKDZ60bf++Y/TOO+/SBx+8Tz/++CMVLlKIbr/9v9Tu7rvZNrG6Yv40ntTUrQrNcvJweUZEasvGsATCqTe9hFU41anch6FAkne/1G06UfnhJjkvWkDoBaWhzvMDp6FeIN2XTDB6JpgzQZvZQWH2/Bg/c2GzNHwM3xm2aVYCWSKB0EBP3/8Bey7tcIEHPAMJYlDBvydNeo/GPP8iM0V5qH37e1T2jDMq6MwZwAIon8y5UVNSEXQ4r3oJVaE7lIdmglL7edW30S6mWdL9DFZiLuB+eW4zWJ1v8eB110RRgbFyFeEqdVnAPii4QnP8AMi0Sl4NK8ZSk6tqSzxMtHr1H/TxJx8yS/sR/fXXX9SsWTMOpXM3XdnqP1SkqHY+0eabDNQVuERdNpxKVoy5rSPY6cELlEKxdYJlwgGraNYTL/vmh6OiqUfdHc49GYlhlGtECwrd+1ycMcIxeVK5V0BeUGeqef06bSemlYCVQG6QgB/QE+AgBvsBkJCWxnq9PEh5xQ/4tPwEBui7736kN6a8RV999TVVr16dHnnkYbr66ivo9DMKuwJCmizYcCEvLtanhHgE59NqP7BP6V8qxTNXOxLE0hbujT/j7fTSYYG+avzmjI/KOev8NlSkANJpjJzNWvTajQcOctcCiMUrcK2ZU53PWAAeTly+bBuNG/cas3jvciYQosuvaEmXXtqSLr64JVWsVCbgsOGcpx9MWoVsw6lkfMTtGeklEEptad5r+C7MmzDsXmziBWN+gFHAmN84hGLTpGyo+v0AZzgmUurzgsFwYDII6Pk11GTwTMGFs+Ez0aYX9NmJaiVgJZBbJOA12HeXNAeEAeRxejOHnUujY/xwd5LYU37+zqpXPrZ82QYaO/YlBgsf0mmlStBVV15Bt7HK76KLGrvhWWSBBdjTC5x++w32xg1AFhw7kVoFv+uZC69p7hLuYWE+FPzaH1ynWmndyWSW1+UC4yNAT3vRwvZOuUBoT2DkpWA9rK5JmDz8DajezRmLMVuxfBNNnTqD5n07n/btP8BxAdPo2uv+Qw8+2J6qVa8QKO6wfwpyC9jMLdPf9uOkS8AEY96XKPOelHL4G8o8zXsPCzD0qzcU0AsnEPPeNdsdSjtq7veC1qD70WDmQ13fPR+qW7+3zVBAzUShAuxMpGkuOidywT3pM882wErglJFAMJgIgA4BXFp1q70rAS+OKVUs1oP4OAA9poCc7SjH2fv4o8/p5Vdeol9/XUL169en1je2piZNm9K559akUqUDZTXIg4OG9tQMXouyg8ELZ0jmdz2z/6HOPZ52mvW70ND5EuJ6YNQcKKedLDSg0zLEqWHUqFwlR4pRuJFjPnNQ6GX0yqvj6JOPP6WKFavQA/c/QNdc24oZ2bKU1xkmjBHOUXGh+bvOliHgO5w8T5mbx3b0OCXgB5yE5TIxiZeZ84KkUPgkM4xeOKDlBZ4mXvKSbFJW+hiKrQvXN28/lUwE6MkFvJ332pT4AT0TgfoBRAv4jnNm29OtBGJKAl6g521cwM5LgwlWvbInLVg5qAVhZ+cFGIt+XkXvv/8ezfliLu3es1/lTa1WrRrdemsbanvXbVSsuBOBGfgBcfcc7zeJyaZbICAG38Opbx01s1Mq0PpwQMSsLxAHLtRC7JWIN4tE+uF0eLUwODBwLcdITlUioWikzwE5iIrbDH3iN42OHUtlr9lEjvmXX43PEba9++abxTTr00/p700bqHiJIrRzx3Zat24tFSlSmFq1upLtKu+ixo1rkNKmGxvGDU7SCQ4pqFldy+rF1O2bQxrjx2xJ000gFA3IM8tEf8+GfzEJB8IiidjL1IVi7jIL9LznBQE9tUQ4C6j8lbABXnpTOmICO7OMCNaqcCMNuT1uJZDTJBBKdWv2I+BZKcb8KmYaWCW1xsRrw343XAHRoYNJtHDhz/T9dz9wjtjFbOi/hhnBNDr//EYcfPcRurhl43SCEpu0wEJpgCAv1gv6HeyQYD4IohkN3WwdHiQ8qIymtmjKSOMdJBhE7onXbHTpxJJZi/7339tow4aNnM3jNxXvDmnaSpUqxZ7NCZyuLol27NhL27ZtYWYulQoVzke7dm3nbB/56eGHH6SOne5zs1+YLQeoQ3YM8bAOxtqWzYtmlE/1MiZACaXCVK80YRyKIjF5kWQsa0E0gNCvjJel87ueH9DzEmLePvoxmaH6kg7oHTp0yI2jJwI01SIm+PNW6gVxXmRt1biRppQ9biWQEyUgD+3w6km92GhgomLh8ZMfIEAb/UuGBHjRmgyVlgcCLM+d+y29/fZb9OWXn1HNmtWpc5eOdN11V7M6V6cX826a6dPOGgGnBLWCuYDM9SBlltGNcM+eBjo+n/Yq1ZtJrXmdHTRADax3WQVixCEi3UrrqFn1fsGWwtS5ThK+UtE7oSLfsmUn29itpLVr19HKVato7Zo1tGv3LgZ3yVSgQAFm64rSoUOJXH9eVqE3pBYtmnPasors+RxHySlH6bTTSlCtWudQfh3nWrGuEvsQ35M5/V1CglbXq/RojPriE+A0o8ffxssLM0Cn8KFQzJ0JhkQ8fgDPC2pCgS+zDnWHh5mQmQV5+v5Mvx4ENBAwPYl+vQjF/IW6jt9+RcAdPHgwXa7bSOrXSOpbXMxP5WvOZavOPYXvbNv1HC6B6BcqvfAAKDnqUscTVNvbqeXWBU2uUAzm7e8/D9Obb75Br0+ZTIcPHaQbW7eme9q3Y/u9cxiAEOVzQIdXoFATm+tQSkqy48QB4IELQJ0s2TcMRwR2IhGQp3Eql+d/KmiwjhWj+gInBq9xt9kGv4cUzgu1yPt6ETuX83seJbEjs2w4nuCoUP/cuJcW/byINm/eQklJSayOZSDNsQh37fqXFsyfT0uXLaVCnHO3XLlydHbVqgyga1KTxk2odOnSysEFtnv58idQiRLF6YwzSnMMvGDJwv5OPHDB4KUqI3cg90DoFQ3k9QNPr/MZmy85/OawzT8OCURiuiSdoFeTGO7e0y+V6YOGR9PMUPdrRsCayRCGYulMPCR1y/1j/vXrp+wLB3DTAT0/MCYXCsfQ+QE3rxrYVOeqJd6+4kUz12wZK4EcLwHvW7v33pelAKAQACIoKC//njLlIxr97PO0ffsOBnm1qFrVanTWWZWoadNGdFHzxhyzLXJstgDw0GAt8DE9TiOI2gA0bl3LFCoAAAitSURBVEkBpl48E8rezimnTnNAEZoTiZkDuNu2bQetWbOOVq1azefGMzjLSwcPHKaDB/UHAG/zP5tp/4F9CoApEAYLyRQdk7B8+XLsPFGNGrDTS5OmTahKlUqKZWUs6Dre6rFAdpL03rcC0MWT1lS9eyWnr2xBXo6/eU9QB0ygEkp96gVBoUCOqV00z8loVwSYeYFYOKDnh5NMT95oQGKkMpFYS1Muat2D6tZE0eaC7EXNfqpaP3Wt39usCfr8rpfRAbDlrQSsBHK+BDT4EuClPTaRQg3qP/c90AFMPyxcTR99+Anb7/3EgGc77dz5L1WtWoVaXXkpNWhwHtWpex5VqXyWq1rMDukAbCWyGhQMoSb4vLSb9mxVbRcUB89Xp48SS06fp0M+pLCKMzHxCDtEHGMWDh7KzD467B9yyh7l/Zv+3kQrVq5kELeF/vx/e2fTE8cRhOEBbDDBGAfFt4RLpCWSgR/ho23lnyb5CT46B3CSSy6RkiiyZCcHHFhfgsna9VZ1zdTWVs8HXoy9NBZa785Md3XNxz68VV3951/VixcvecWQVYqjnvw7rk5OTin8ul7t7OxUo9GIwtvbFEZdobDsG7Z1c3ODat09oJDsAYOdhl+nfJQglqwhu85TOBsqn66YYdcZFnVScxXFDbrecf01cxmnoLS5gB6IgIqfCkEJkRwERm6xQNQFT13H2+192vLh2i67rQ8sh3m7+kKe+g+vDHr2AxtyjZQ8PsgocVEY1xoWqXraX5tCuIDXchlS8UDxgPNAAwuyQcK5ki/HpVlSxEXVLoreVn/8/pzyzH4j4PuRSn4cksr3kkDnVbVDCt/jR99WDx8+oiK+awROb1K9PbQmYVqoYAAXwCTn8yHXjreIoCWvSe2r4Yz0LYKv4+NjnnmKX0xewPNrmdqwqlXzvJOWNHQpYCelYdALh5Lp3w2qQ0JF6wngnlfj12P6XMAMy6RJbhtmxAoAIny8tXW32ts7qPbuH9AkidvcPkK0qxTH3rpzh4oVf0Vq59ekcN6iNnSSRkUh3JUa7mgo/MMlUNjpafD0ck5gOaHl5yTXTkrkyPkwkp8eBtDD/5PjVKFMm8tL8UBvD/iQJl+WCfJ8NEAZxYdxPQDllLxIiMoZmgO6PqBnx8C3Cd2rEbjqNh0P3kdpIRexpR6r5uj5geaUPd2vK4zrlT5/nCfWAn2974myY/HAwnjAPifkwagTHWSIvDoDZnI21VXqsePzp09/rX569gsD3+HhM4KmM8ov+5wnFuAhtwwYo7gkJmrwerMEeQCdyeQGw56QisZjgSqat5dekVPIOXoThi/k/q2QUrax8Vm1trpGs0yp+DDLkD4XTSFI5EgBPBQplgFJweJJrej9R7Ml0M7q2k2yE/1JjiHCrfi9TevH3t/bq3ZH3zDojUZfTs8XSV45O3tL++dixkkxTQqjzZzRiR0YI2zlQsr1mLS99DqTO1jCswtzQ17RQCyUtQGRik9yT8l1Zz9T83OQZ4+zzJEbdhtcRf3adtrgFft5gPW2+30iG9uA025bGo/H9WQMT7pDw7jWEO/ECOT8Prb/Pifhiq7J0m3xQPHAnDzg/+BThU9mz2J9VJq5mRL2wEoSEp3tHNuePPm5+v67H6qjoyNSsFZZ5ZKHrUAbQpmTyTIpYARS/2NFCOSgpUkWBF1LtB4v9chAxr9QrDAjF7BINqCG3O7ubrW/v1/du/cFq3FQ02a/fBR8jFTGshkGIPYAQDGOc6hxpD5ub29X6+u3arAT0HvLn90E7NGkiq27G50zV2UFEVUuZWbxClMy1gtGLUP4QYvfNTomtuEdFEpRPRW6+ZtUwrL8zRN+3aQPddx50JzTZVOaWTAPWCjxgFTPjof67lQx+z4Kd/ZV3i4Cem2nIKfcRTCHz3JqZFcfbXbb51INejnIGqrseSUvUvZy6l0BvQW7e8twigcGekAeTpL7xQ9LZIqZkik2zBpBxz9/v6YQ6yuGJACOrKShyx9h9h3CJwQ++OVwZArTKuAtKehN19kD4QAeNzc3KXxKah5WgkgwVOON8k1SvJiLcswjnMeK5dTEk4H+mt4dapwogU04NRV35pVKZC1gP8MXPuIvUzJoZVn8Mg16JrpbQO+9ztB1OLhLpIngKwI9tJMDuT5hzMuAvD5telDNKY+6X/THbtd10mWHb3sG9OThJHezf1VC7KPWqaH2ZNk2o/btMV0DLduLB4oHFtUDqsIJlGjZKQGUlMfHwJKAZlHdMGBcGhpuwLV+mgqR8vNc8uykpuF06Ij34XzFlI83SJwrodsBp+pa7JqDvS7lym/PhTfhRK+kW6B6Xye3wajt1/fjbYjC0JHyqOPpA3BdY4vaWDo9PZ0J3UZAdllhXO3LKn9RAdWuwZXtxQPFA4viAQ8OiehSpLEWzgyMSG08Wxdv5hGcwiM6QcJLU/Z4fiqlBux+SpYXDU2qemghzNs5lF5VebQqqLTZCIwpXxDTTGrXNhNFpvce2j9/RS3KhVfG8QE94JUvCzuWB6xJV6XkedsiN0Xh2rZ8Qz+uLshTG9pOUQ5QGfQ82NWPoWB2rXamSp3t1Idko7Btn/2jtj/g9Ve6Kh4oHvgoPGCAyrGEhnBrM3nXrqKoWvQ4lQWpG/FQF0Gel7iGwp6FPJu7Fzk66t/ul3II2f4GPqHHcS/JVGlFxqxlUJovAgt6Q8ZSoO6juDU+cSN8qNYrdxHo5aBpnkpeBFN9ASxU0oKZtm15hkMgro9dNa8p6Fm4i/LsPPzNK4wb5et1xfg/8Wu8mF88UDzQ6gHEZ9MOM0SXJgmkzYxMyHczh+SbVtDDxAsLLOjElQ+JRMW5nLUhoKQpNNKxrjaBVT0a+5PdXOsu+En+Uz9pO3it/44Pw7RD7JyLY0oj18QDPmfN8kYun827xqtn+r4trNrXvVF4uStcq8dE7BIpfWqLB96cjTmb5D7WJR6bdAzbDo59BxsLIk+pFlrzAAAAAElFTkSuQmCC;" vertex="1" parent="1">
          <mxGeometry x="1326" y="182.52" width="374" height="147.48" as="geometry" />
        </mxCell>
        <mxCell id="24Ofo_av3dnUQXe8KebZ-55" style="edgeStyle=orthogonalEdgeStyle;rounded=0;orthogonalLoop=1;jettySize=auto;html=1;entryX=1;entryY=0.5;entryDx=0;entryDy=0;" edge="1" parent="1" source="24Ofo_av3dnUQXe8KebZ-54" target="24Ofo_av3dnUQXe8KebZ-1">
          <mxGeometry relative="1" as="geometry">
            <Array as="points">
              <mxPoint x="530" y="90" />
              <mxPoint x="530" y="330" />
            </Array>
          </mxGeometry>
        </mxCell>
        <mxCell id="24Ofo_av3dnUQXe8KebZ-71" style="edgeStyle=orthogonalEdgeStyle;rounded=0;orthogonalLoop=1;jettySize=auto;html=1;entryX=0.5;entryY=1;entryDx=0;entryDy=0;" edge="1" parent="1" source="24Ofo_av3dnUQXe8KebZ-54" target="24Ofo_av3dnUQXe8KebZ-70">
          <mxGeometry relative="1" as="geometry">
            <Array as="points">
              <mxPoint x="690" y="30" />
              <mxPoint x="930" y="30" />
            </Array>
          </mxGeometry>
        </mxCell>
        <mxCell id="24Ofo_av3dnUQXe8KebZ-54" value="antiphospholipid syndrome" style="rounded=0;whiteSpace=wrap;html=1;" vertex="1" parent="1">
          <mxGeometry x="630" y="60" width="120" height="60" as="geometry" />
        </mxCell>
        <mxCell id="24Ofo_av3dnUQXe8KebZ-57" value="" style="edgeStyle=orthogonalEdgeStyle;rounded=0;orthogonalLoop=1;jettySize=auto;html=1;" edge="1" parent="1" source="24Ofo_av3dnUQXe8KebZ-56" target="24Ofo_av3dnUQXe8KebZ-54">
          <mxGeometry relative="1" as="geometry" />
        </mxCell>
        <mxCell id="24Ofo_av3dnUQXe8KebZ-56" value="caused by antiphospholipid antibodies" style="rounded=0;whiteSpace=wrap;html=1;" vertex="1" parent="1">
          <mxGeometry x="630" y="-50" width="120" height="60" as="geometry" />
        </mxCell>
        <mxCell id="24Ofo_av3dnUQXe8KebZ-59" value="" style="edgeStyle=orthogonalEdgeStyle;rounded=0;orthogonalLoop=1;jettySize=auto;html=1;" edge="1" parent="1" source="24Ofo_av3dnUQXe8KebZ-58" target="24Ofo_av3dnUQXe8KebZ-54">
          <mxGeometry relative="1" as="geometry" />
        </mxCell>
        <mxCell id="24Ofo_av3dnUQXe8KebZ-58" value="lupus or as primary disease" style="rounded=0;whiteSpace=wrap;html=1;" vertex="1" parent="1">
          <mxGeometry x="800" y="60" width="120" height="60" as="geometry" />
        </mxCell>
        <mxCell id="24Ofo_av3dnUQXe8KebZ-61" style="edgeStyle=orthogonalEdgeStyle;rounded=0;orthogonalLoop=1;jettySize=auto;html=1;entryX=0;entryY=0.25;entryDx=0;entryDy=0;" edge="1" parent="1" source="24Ofo_av3dnUQXe8KebZ-60" target="24Ofo_av3dnUQXe8KebZ-54">
          <mxGeometry relative="1" as="geometry">
            <Array as="points">
              <mxPoint x="540" y="75" />
            </Array>
          </mxGeometry>
        </mxCell>
        <mxCell id="24Ofo_av3dnUQXe8KebZ-63" value="" style="edgeStyle=orthogonalEdgeStyle;rounded=0;orthogonalLoop=1;jettySize=auto;html=1;" edge="1" parent="1" source="24Ofo_av3dnUQXe8KebZ-60" target="24Ofo_av3dnUQXe8KebZ-62">
          <mxGeometry relative="1" as="geometry" />
        </mxCell>
        <mxCell id="24Ofo_av3dnUQXe8KebZ-67" style="edgeStyle=orthogonalEdgeStyle;rounded=0;orthogonalLoop=1;jettySize=auto;html=1;" edge="1" parent="1" source="24Ofo_av3dnUQXe8KebZ-60" target="24Ofo_av3dnUQXe8KebZ-66">
          <mxGeometry relative="1" as="geometry" />
        </mxCell>
        <mxCell id="24Ofo_av3dnUQXe8KebZ-69" style="edgeStyle=orthogonalEdgeStyle;rounded=0;orthogonalLoop=1;jettySize=auto;html=1;" edge="1" parent="1" source="24Ofo_av3dnUQXe8KebZ-60" target="24Ofo_av3dnUQXe8KebZ-68">
          <mxGeometry relative="1" as="geometry" />
        </mxCell>
        <mxCell id="24Ofo_av3dnUQXe8KebZ-60" value="clinical consquense" style="rounded=0;whiteSpace=wrap;html=1;" vertex="1" parent="1">
          <mxGeometry x="480" y="-90" width="120" height="60" as="geometry" />
        </mxCell>
        <mxCell id="24Ofo_av3dnUQXe8KebZ-65" value="" style="edgeStyle=orthogonalEdgeStyle;rounded=0;orthogonalLoop=1;jettySize=auto;html=1;" edge="1" parent="1" source="24Ofo_av3dnUQXe8KebZ-62" target="24Ofo_av3dnUQXe8KebZ-64">
          <mxGeometry relative="1" as="geometry" />
        </mxCell>
        <mxCell id="24Ofo_av3dnUQXe8KebZ-62" value="increased risk of venous and arterial thrombosis" style="rounded=0;whiteSpace=wrap;html=1;" vertex="1" parent="1">
          <mxGeometry x="305" y="-90" width="120" height="60" as="geometry" />
        </mxCell>
        <mxCell id="24Ofo_av3dnUQXe8KebZ-64" value="recurrent fetal loss" style="rounded=0;whiteSpace=wrap;html=1;" vertex="1" parent="1">
          <mxGeometry x="140" y="-90" width="120" height="60" as="geometry" />
        </mxCell>
        <mxCell id="24Ofo_av3dnUQXe8KebZ-66" value="Increased PTT" style="rounded=0;whiteSpace=wrap;html=1;" vertex="1" parent="1">
          <mxGeometry x="390" y="-240" width="120" height="60" as="geometry" />
        </mxCell>
        <mxCell id="24Ofo_av3dnUQXe8KebZ-68" value="False positive syphilis" style="rounded=0;whiteSpace=wrap;html=1;" vertex="1" parent="1">
          <mxGeometry x="590" y="-240" width="120" height="60" as="geometry" />
        </mxCell>
        <mxCell id="24Ofo_av3dnUQXe8KebZ-73" style="edgeStyle=orthogonalEdgeStyle;rounded=0;orthogonalLoop=1;jettySize=auto;html=1;" edge="1" parent="1" source="24Ofo_av3dnUQXe8KebZ-70" target="24Ofo_av3dnUQXe8KebZ-72">
          <mxGeometry relative="1" as="geometry" />
        </mxCell>
        <mxCell id="24Ofo_av3dnUQXe8KebZ-75" style="edgeStyle=orthogonalEdgeStyle;rounded=0;orthogonalLoop=1;jettySize=auto;html=1;" edge="1" parent="1" source="24Ofo_av3dnUQXe8KebZ-70" target="24Ofo_av3dnUQXe8KebZ-74">
          <mxGeometry relative="1" as="geometry" />
        </mxCell>
        <mxCell id="24Ofo_av3dnUQXe8KebZ-77" style="edgeStyle=orthogonalEdgeStyle;rounded=0;orthogonalLoop=1;jettySize=auto;html=1;" edge="1" parent="1" source="24Ofo_av3dnUQXe8KebZ-70" target="24Ofo_av3dnUQXe8KebZ-76">
          <mxGeometry relative="1" as="geometry" />
        </mxCell>
        <mxCell id="24Ofo_av3dnUQXe8KebZ-70" value="three antibodies" style="rounded=0;whiteSpace=wrap;html=1;" vertex="1" parent="1">
          <mxGeometry x="870" y="-130" width="120" height="60" as="geometry" />
        </mxCell>
        <mxCell id="24Ofo_av3dnUQXe8KebZ-72" value="anti-cardiolipin" style="rounded=0;whiteSpace=wrap;html=1;" vertex="1" parent="1">
          <mxGeometry x="740" y="-260" width="120" height="60" as="geometry" />
        </mxCell>
        <mxCell id="24Ofo_av3dnUQXe8KebZ-74" value="lupus anticoagulant" style="rounded=0;whiteSpace=wrap;html=1;" vertex="1" parent="1">
          <mxGeometry x="870" y="-400" width="120" height="60" as="geometry" />
        </mxCell>
        <mxCell id="24Ofo_av3dnUQXe8KebZ-76" value="Anti-B2 glycoprotien" style="rounded=0;whiteSpace=wrap;html=1;" vertex="1" parent="1">
          <mxGeometry x="1010" y="-250" width="120" height="60" as="geometry" />
        </mxCell>
        <mxCell id="24Ofo_av3dnUQXe8KebZ-79" style="edgeStyle=orthogonalEdgeStyle;rounded=0;orthogonalLoop=1;jettySize=auto;html=1;" edge="1" parent="1" source="24Ofo_av3dnUQXe8KebZ-78" target="24Ofo_av3dnUQXe8KebZ-72">
          <mxGeometry relative="1" as="geometry" />
        </mxCell>
        <mxCell id="24Ofo_av3dnUQXe8KebZ-80" style="edgeStyle=orthogonalEdgeStyle;rounded=0;orthogonalLoop=1;jettySize=auto;html=1;" edge="1" parent="1" source="24Ofo_av3dnUQXe8KebZ-78" target="24Ofo_av3dnUQXe8KebZ-76">
          <mxGeometry relative="1" as="geometry">
            <Array as="points">
              <mxPoint x="740" y="-290" />
              <mxPoint x="1070" y="-290" />
            </Array>
          </mxGeometry>
        </mxCell>
        <mxCell id="24Ofo_av3dnUQXe8KebZ-78" value="identified with Elisa" style="rounded=0;whiteSpace=wrap;html=1;" vertex="1" parent="1">
          <mxGeometry x="680" y="-390" width="120" height="60" as="geometry" />
        </mxCell>
        <mxCell id="24Ofo_av3dnUQXe8KebZ-82" value="" style="edgeStyle=orthogonalEdgeStyle;rounded=0;orthogonalLoop=1;jettySize=auto;html=1;" edge="1" parent="1" source="24Ofo_av3dnUQXe8KebZ-81" target="24Ofo_av3dnUQXe8KebZ-74">
          <mxGeometry relative="1" as="geometry" />
        </mxCell>
        <mxCell id="24Ofo_av3dnUQXe8KebZ-81" value="identified through assessing the coag assay" style="rounded=0;whiteSpace=wrap;html=1;" vertex="1" parent="1">
          <mxGeometry x="1050" y="-400" width="120" height="60" as="geometry" />
        </mxCell>
        <mxCell id="24Ofo_av3dnUQXe8KebZ-84" value="" style="edgeStyle=orthogonalEdgeStyle;rounded=0;orthogonalLoop=1;jettySize=auto;html=1;" edge="1" parent="1" source="24Ofo_av3dnUQXe8KebZ-83" target="24Ofo_av3dnUQXe8KebZ-81">
          <mxGeometry relative="1" as="geometry" />
        </mxCell>
        <mxCell id="24Ofo_av3dnUQXe8KebZ-86" value="" style="edgeStyle=orthogonalEdgeStyle;rounded=0;orthogonalLoop=1;jettySize=auto;html=1;" edge="1" parent="1" source="24Ofo_av3dnUQXe8KebZ-83" target="24Ofo_av3dnUQXe8KebZ-85">
          <mxGeometry relative="1" as="geometry" />
        </mxCell>
        <mxCell id="24Ofo_av3dnUQXe8KebZ-83" value="can do through a mixing study" style="rounded=0;whiteSpace=wrap;html=1;" vertex="1" parent="1">
          <mxGeometry x="1050" y="-520" width="120" height="60" as="geometry" />
        </mxCell>
        <mxCell id="24Ofo_av3dnUQXe8KebZ-85" value="inhibitor will not correct PTT time" style="rounded=0;whiteSpace=wrap;html=1;" vertex="1" parent="1">
          <mxGeometry x="1206" y="-520" width="120" height="60" as="geometry" />
        </mxCell>
      </root>
    </mxGraphModel>
  </diagram>
</mxfile>
